<svg xmlns="http://www.w3.org/2000/svg" id="Layer_1" version="1" viewBox="0 0 1885 732">
  <style>
    .st0{fill:#b86519}.st1{fill-rule:evenodd;clip-rule:evenodd;fill:#ff9400}.st2{fill:#7b0c7e}.st3{fill-rule:evenodd;clip-rule:evenodd}.st4{fill:none}.st5{fill:#63a8dc}.st6{fill:#b6c72f}.st7{fill:#fff}.st8{fill:#80ac42}.st9{fill:#f9ed38}.st12{fill:#99a870}.st13{fill:#80ac41}.st14{fill:#728155}.st16,.st20{fill:#4d87c9;stroke:#ce7fac;stroke-miterlimit:10}.st20{fill:#b5c62f}
  </style>
  <g id="MOLD_FUNDO_1_">
    <path d="M491 578l40-5 46 33 8 38-43 14-57 4-14-5 1-52zM970 554h46l43 36 1 41-20 9-19 5-27 3-44-5-18-6 14-78zM1349 577l14 7 12 6 21 1 50 29 3 47-49 2-49-5-49-23 4-35z" class="st0"/>
    <path d="M469 667s55-1 73-4c13-2 50-16 50-16l-8-5-25 7-6 1-5 1-13 4c-16 3-66 2-66 2v10zM507 573l14-1 1 8-19 3zM971 549c8 4 35 0 35 0v9l-14 1-20-1s-4-10-1-9zM931 641s7 8 49 9h8l3 2c7 1 20-1 27-2 12-2 45-16 45-16l-5-5-29 11-4 2h-4c-15 5-48 2-64-1l-20-5-6 5zM1297 642c7 14 46 26 62 29l9 1c23 2 90-2 90-2l-5-9s-39 6-51 3l-3-1v2c-24 2-68-10-91-24-2-1 4-10 4-10s-21 0-15 11zM1347 574l-1 5 15 7 3 3h2c6 3 13 4 17 5s14-1 14-1v-4h-12c-3 0-8-1-11-3l-27-12"/>
  </g>
  <g id="MOLD_DOIDERAS_1_">
    <path d="M1839 661l21-11-56-12-42-22-14-5 6-19 20-46-10-5-20-5-10-6-2-2 9-8 19-19 34-48 29-74 7-50-2-43-23-64-23-41-32-38-55-31-63-15-69 3-65 22-39 26-36 33-22 40-9 23-8 19-8 32-4 70 13 52 17 44 26 47v5l-39 5 1 24 7 61 13 18 12-1 77 3 66-1 55 6 68 8 23 4-22 54 29 13 46 4h31l15-5-33-19-13-13 40-2z" class="st1"/>
    <path d="M1468 516l-17-22-20-31-15-37-11-51-2-45 4-15 3-39 17-53 26-43 32-26 45-22 56-13 55-2 26 4 42 22 38 33 24 38 17 34 9 34 4 51-6 45-14 38-26 43-19 25-23 27-18 18-94-11-45-3-46-3z" class="st2"/>
    <path d="M1768 446a252 252 0 0 0 36-113c-1-17-2-34-5-51-1-10-2-19-6-28-6-15-12-31-20-46-7-11-13-22-21-32l-14-16c-10-10-23-18-36-25l-27-12c-10-5-20-7-31-8a265 265 0 0 0-101 9c-11 3-22 8-32 13-15 6-28 13-40 23l-12 10-7 7c-12 12-20 26-27 41-7 16-11 32-15 48a232 232 0 0 0-7 55c-4 17-3 35-1 52 3 26 9 52 20 76l6 12c8 15 18 30 29 43l10 13 7-1h28c8 0 17-2 25-1l55 4c16 1 32 4 47 7 18 3 41 3 58 6 6 1 5 2 11 2 3-1 0-5 2-6h1c11-9 19-20 28-31l14-18c10-10 18-21 25-33zm-45 48l-15 17-14 12c-1 2-2 2-4 1-13-4-27-2-40-4l-31-5-41-3-48-2c-18-1-31-3-48 0l-10 2c-3 0-4-1-6-3-6-12-17-19-23-31-9-15-12-20-19-39l-9-26c-3-18-6-33-6-52v-29s-1-4 1-10v-8c1-16 2-28 6-44 5-15 9-32 15-47 3-9 14-27 20-34 9-11 19-18 30-26 10-8 15-13 27-17l32-13c13-5 29-8 42-10l44-2c10-1 28 1 37 4l24 10a154 154 0 0 1 64 51c9 12 14 21 20 34 5 11 10 19 14 30 10 21 10 44 12 72 1 15-1 24-3 39-1 12-4 23-9 35l-8 14c-6 19-17 33-27 50-8 13-18 22-27 34z" class="st3"/>
    <path d="M1456 538l2 3 1 6v8l-1 4-1 5-2 6-1 5-2 3-1 2-1 4-1 2-1 3c-1 2-2 3-4 2l-4 4-2 3-1 1h-2l-1 1-2 1h-2c-2 0-3-2-4-5l-3-2-1-4v-5-3l1-6-1-4v-4-4-3-3-2l-1-3-1-2-1-4v-2l-1-4v-2-2-1l1-3 1-2 1-1 2-1 4 1 3 1 2-1 6-1h6l1 1h2l2 1 1 1 1 2 2 1h1l1 1 1 2zm-20 15v4l1 5a23 23 0 0 1 0 8l-1 4v4l1 2 1 1 1-1 1-2 1-4a23 23 0 0 0 2-5v-2-1l1-2v-3a59 59 0 0 1-1-6l-2-1-2-1h-1-2zM1462 546v-3l1-3 2-3 2-3 2-2 2-3c3-2 7-2 13-2l6 2 3 4a155 155 0 0 0 3 5l2 1 1 2 1 4c1 4 2 6 1 9v7l-1 9-2 4v7l-1 4-1 2-2 1-2 2-1 1-1 1-1 2-1 1v1l-1 2-1 1c-3 3-5 4-7 1l-1-1-2 1h-2l-2-2-2-2-1-1-1-1-2-1v-1-2l-4-13c-2-4-2-8-1-13l1-8 1-7-1-3zm19 5l-2 1-1 3-1 1-1 2v5l2 5v8l3 6 2-3v-1-3l1-8v-3-9l-1-3-2-1zM1523 585l2 2h1v8l-2 3-3 1-2 1-2 1h-5-1l-2 1-1-1h-2c-1 0-2-2-2-6v-5-2l1-1h2l1-1 1-2v-3l1-6-1-4v-8-6-7-2-1l-2-1-3-1v-4-8l1-2v-2c0-1 1-2 3-2l4 1h3l5 1h9l1 2 1 2v3 8l-2 3h-1l-1 1h-2v10l-1 16-1 11zM1571 541l1 3 1 6v8l-2 4-1 5-2 5-2 6-2 3-1 2-1 3-1 3-1 2c-2 2-3 3-5 2l-4 4-2 2-2 1-1 1h-1l-2 1h-3c-2-1-3-2-3-5l-3-2-1-5v-4l1-3 1-6v-4-4-4l1-4a275 275 0 0 1 0-5l-1-3-1-2v-4l-1-2v-4-2-2-1l1-3 2-2 1-1h2c1-1 3 0 4 1l3 1 1-1 6-1 4 1 2 1h2l1 1h2l1 2 1 1 2 1 1 1 1 1 1 2zm-21 14v17l-1 3-1 4 1 3h2l1-3 1-3 2-3 1-2a33 33 0 0 1 0-3l1-2v-3-3l-1-2-2-2-1-1-1-1-2 1zM1576 545l1-5v-3l1-3 3-2 4-1 4 1 2 2 2 1 6-1 5 1h10c2 2 2 4 0 7v3l-1 2v3l-1 3-1 1v1l-1 2-4 2h-1a19 19 0 0 0-9-2c-2 0-3 1-4 3v3l1 1h3l2 1h5l1 1 2 2v3l-1 2-1 3v1l-1 2h-4l-1-1h-7l-1 2v3l-1 4 2 2 3 1h9l2 2v6c0 2-1 3-2 3l-2 3h-3a6 6 0 0 0-5 0l-2 1h-4l-1-1-4-1c-2 0-3 0-4-2l-2-4 1-3v-1-2c-1-2-2-3-1-5l1-3v-1-2-2l-1-2c-1 0-2-1-2-3l1-5 1-5v-3l1-3-1-4v-3-3-2zM1628 590l-1 5-2 4-1 7-3 1c-2 0-3 0-3-2l-2-2-1-1h-1v-1-2-2-5-3l1-3-1-7v-8-2l1-1 1-3v-4-4a784 784 0 0 0 1-11l3-9h1l2-1 1-1h4a26 26 0 0 0 4 2h5a73 73 0 0 1 8 2 15 15 0 0 1 10 13 51 51 0 0 0 0 8v5l-1 2v2l-1 3-1 4-1 2-4 4h-2l-1 1v1l2 2 1 2h1l2 1 1 2v8l-1 3v4l-2 3-2 2-1-1h-2v-1h-1l-1-1c-1 0-2-3-2-7l-2-4-2-4v-3l-2-4-2-1-2 1-1 4zm7-17l2-2 3-2 1-3 1-5v-4l-2-1-3-1-1-2-2-2-1 1v2l-1 5v9a100 100 0 0 1 0 6l3-1zM1688 616l-2 1h-2l-1-1h-1l-1-1-1-3v-1-3l-1-2v-2l1-2-1-1v-2-3l-1-1h-2l-1 1-2 1h-5l-2 2-1 3v2l-1 2v2l-2 2h-2l-3 2c-3 0-4-1-5-2v-4-5l1-4v-4l1-3v-1l1-2v-2l1-2 1-3 2-6v-3l2-2 2-5v-2l1-2 7-16 2-1h3l3 1h1a10 10 0 0 1 4-2h3l3 1 3 3v2l1 3v8l-1 4v27l-1 5a54 54 0 0 1-1 9v2l-1 6c0 3-1 4-2 4zm-9-40l1-5v-4-2l-2-1h-2l-1 3-1 3-1 3-2 4v4l2 2h3l2-1 1-1v-2-3zM1706 552l6-2h3l3-1 4-1 2 1h1l2 1h2l6 6 3 6-1 6v10l-1 2c0 2-1 2-2 3h-6-1-1-2l-3-3 1-5 1-1v-2l-1-1h-3l-2 3-1 2v2l-1 2 1 4 1 1h2l2 1 2 1 1 2 1 2 2 1 1 1-1 8-1 2v2l-1 1v2l-2 5-4 3-1 1h-1l-1 2-4 1h-5l-4-1-3-2-1-3-1-2h-3l-1-1-1-2 1-2 1-3 1-2 4-2h3l1-1h2c1 1 2 1 1 2v5c0 2 1 3 2 3l3-4v-2l1-2c0-3-1-5-3-7l-3-3-3-2-3-7v-5l-1-2v-1l-1-1v-3l2-3v-3l1-3v-3l4-6zM1408 520c8-1 13 0 21-3 3-1 7-4 6-5-4-3-5-9-7-13l-13-21-8-16-4-9-7-19-6-15-9-30c-4-13-4-26-4-40l2-39 2-16 8-32a232 232 0 0 1 51-93l15-15 22-16 14-8a245 245 0 0 1 89-29l27-2c11-1 23 1 35 2a209 209 0 0 1 87 32c17 10 29 24 42 38 8 10 13 21 19 32l13 24c9 19 14 39 21 58v5c-1 11 3 23 3 35l-2 23c-2 21-8 42-15 61a269 269 0 0 1-62 99l-13 13-4 4c-2 3 0 4 3 5h-1 1c0-3 3-4 5-5 13-7 21-21 31-33 16-18 24-30 35-53 10-21 19-40 23-63 3-16 7-34 6-51s-1-30-5-47c-5-22-5-28-16-48l-18-33c-2-5-5-12-9-16l-14-20c-5-6-12-16-19-20-15-11-23-20-41-27-13-5-30-12-43-15-9-2-21-6-30-7a262 262 0 0 0-160 37l-37 28c-21 15-38 44-49 68a273 273 0 0 0-23 140c1 21 5 31 9 46s10 28 16 43c8 18 12 24 21 39 3 5 8 11 10 18l-39 4 3 6 18-1zM1705 632l-42-8-50-5h-4v-10l-8 6-4 3c-5 1-19-2-25-2l-51-3a468 468 0 0 0-64-1l-2-1 1-7c-5 1-9 3-12 6s-15 3-21 3h-10l1-12c-5 2-4 2-8 7s-5-4-5-7c0 1-16 26 8 25l35 1h49c11-2 23-1 34 0 13 0 25 4 39 2h3l58 5 46 4a309 309 0 0 1 46 8l4-11-18-3zM1734 530c-2 5 5 7 10 9l17 6 3-7c-12-4-20-7-30-8z"/>
    <path d="M1678 638c8 1 6 7 5 11l-1 17v17c0 3 1 5-1 8l2 4 7 7c13 9 27 14 43 14 25 1 50-1 75-5 5-1 11-1 15-7-9-1-17-6-24-10l-24-15a537 537 0 0 0 66-16l25-11 3-1v-3l-1-1-20-4c-23-3-46-9-67-20l-30-15 1-1c7-19 17-34 22-55l1-3c1-2-1-5-3-6-6-3-12-7-19-9-14-4-23 1-13 4l23 8 8 2-5 11-23 48c-4 9-5 18-8 27l-1 4-8-3c-14-6-28-9-42-11l-58-3v13c14 2 15 0 30 2l22 2zm24 50l18-20 15-19c2-2 3-4 5-4 3 1 5-1 5-3l4-13 3-11c1-2 2-3 4-1l8 5c6 6 15 10 22 14 9 4 18 9 28 12 9 2 18 5 28 5h4l1 1c-18 8-36 12-55 15h-27l-8 2c-7 2-8 5-2 10l9 7c11 8 23 13 36 17l3 1-13 1h-37c-16-1-31-5-45-13l-7-4 1-2z"/>
    <path d="M1393 595v0z" class="st4"/>
    <path d="M1483 614c-17-1-34-1-50 1h-21c-9 2-9 2-11-7-1-10-1-20-3-29l-6-50c-1-6-1-7 4-7l25-3c10-1 20-9 7-8l-33 4h-9l1 13 1 32 5 35v2s-1 14 1 19c1 4 4 9 9 12l4 3c12 14 39 33 40 34l5 5 9-1c3-2 3-3 1-7v-4-13l1-19h13l7-1 7-7s-3-4-7-4z"/>
  </g>
  <g id="CORES_BONECO_1_">
    <path d="M1482 512l10-1h35l45 4 51 5 42 5 25 4 7-5v-6l-3-13-4-10-5-1-2-6-6-12h-8l-7 1-10-11-4-1-9-1-10-9-12 2-9-6h-4l-12 1-36-7-9-5-5-3-7 6-4 5-8-1-11 8-10 7h-5l-14 12-2 4-3 6-3 1-7 5-2 12 10 8 6 2z" class="st5"/>
    <path d="M1589 118l3-4 5-8 2-5 6-7 4-4 4-3 4-6 2 4 9 2 5-6 4 10 4 1 4 9 4 14 1 10v5l6-3 1 8 3-3 5-4 4-1-2 9-4 7-3 4 5 9 7 12-7-2h-1l1 7v5l-6-2v3l4 4 4 6h-7l-1 4 2 2 4 7h-5l-2 6-2 1-5-3-3-2-2 5-1 1-2-1-3-2-2-3-3 4h-3l-1 1-1 3 2 2 13 2 27 6 8 5 4 7a448 448 0 0 0 24 15l2-1 5-3 14-11-6-8-1-5-2-11-8-3-7 5-6 4-4-3-4-7 7-7 7-5 2-10-1-16-7-3-1-2 1-3 4-1 10-2h6l4 2 3-2 10-6 4-3-2-7v-2l6-2h3l5 8 2 2 12 3 8-1 5-2-1-5 3-1h5l2 3 2 9 1 7 2 2 8 9 3-9 4 1 2 1 1 9 1 12-5 8-2 4h-3l-4 6-23 22-14 6-8 11-23 16-14 8-3 1h-4l-3-2-1-3-10-4-26-16-5 6-4 8-4 8-3 6 1 2-5 13-5 6-2 2-5 13-4 9-1 7 6 9 5 8 5 11 4 10 5 10 1 6 2 8 2 12 1 5-8 2-15 6-19 4 2-25-1-5-3-5-6-31-8 2-3 8-7 15-6 11-3 10 2 6 1 4 2 5 1 8v29h-2v4l1 6v4l-4 3-4 6v7l-12 10-5-2-4-1h-7l-1-1-3-2-4-1h-4l-2-2-2-1h-5l-4-6 3-2 5-3 9-8 7-4 4-7 3-4 1-6-2-10-3-7-4-14-3-14-5 1 1-4 4-10 5-8 4-6 3-4h-4l-5 1 6-11 14-21 7-10 4-1 1-3-2-11-2-10-4-4-3-5-2-9-3-6-7-8-2-9-2-8-6 4-5 5-6 10-4 11-5 10-4 8-2 8-1 2-2-2-3-6-5-6-1-3-11-5-11-10-9-15-1-15-7 2-10-1-8-2-3 4-3 3v6l-2 2-4 1 1 3 2 5 2 7-1 3-6-2-4-9-3-8 2-14-3-7-7-7-2 1-4-2-4-6 8-17 8-2v-11l3-5 4-4 1-5 3-5 6-1h10l6 1 2-2 4-5 4-2 3-4 5-5h4l5 3 6 7-1 13 2 9 3 6 1 3h2l6-3 8-1 6 1 5 4 4 3-1 10 3 7-3 6-3 7h-3l-5-3-3-7v-9l-8-2-5-1-3-1-2 12-4 8-4 6-4 6-1 1 5 6 5 7 8 6 12 5 3 2 2-2 4-4 7-11 3-10 3-16 5-4h7v-2h11l17-3h11l1-2 1-3-1-7-4 5-2-1-2-4h-2l-7 5-1-1-1-7h-2l-5 3-1-1-2-5h-2l-5 1 1-4 3-6 2-5-3-1 4-8 6-9 1-2-1-1h-6l-2-2 8-5 13-14-2-7v-6l1-3 2-1 2-5 2 3z" class="st6"/>
    <path id="UNHAS_1_" d="M1532 467l38 15-11 20-14 2-11-7-9-5-5 4 1-8-7-4-3 2 4-8 8-8z" class="st7"/>
    <path d="M1584 137l-2-11v-4l1-2h1l3-5v-1l2 4v4l1 2 3 2 4-6 2 3v7l6 4 5-6 1 3v11l4 3-1 7-3 5-5 2-11-6-8-10-1-2-5 9-2 7 3 3 7 6v3l-1 3-4 3-7 4-1-2 1-3 1-4-1-1h-9l-1-1 2-3 3-4 1-2-2-1h-5l-2-2 8-5 12-14zM1628 144l9-8 3-3 3-2 2 2 1 3 3-3 3-3 2-2 2-1 1 8 5-4 4-3 3-1-1 5-1 5-2 3-4 6 3 6 8 16-6-2h-2l1 11-6-2v3l-1 3-1 5-11-11 10-10 1-5v-5l-2-5-13 4-10 1-4-7z" class="st8"/>
    <path d="M1565 178l-2 6-3 4-1 2-1 4 5-2h3l1 6 1 1 5-3 2-1 1 7 1 2 7-5 2-1 3 5h1l4-4v-3l1-5h1l4 3 1 3 1 6 2 5 7 2h7l6-7 4-6 2-1 1 2v5l1 5h3l3-5 5 6 2 1 3-6h1l7 4 2-1 2-6h5l-3-7-3-2-2 5-5-4-3-1-2 6h-2l-6-6-1-2 2-8-2-1-5-5-11-9h-12l-11 5-9 4v2l1 4v2l-6 4-2 2-3-2-1-4-9 3-2-1 1-4-1-5-3 1z" class="st8"/>
    <path d="M1596 141l8 2 5 2 1 3-3 2-4-1-4-2-3-3v-3zM1635 147l5-2 8-1h2l-3 4-6 2-3-1z" class="st9"/>
    <path id="DENTES_1_" d="M1597 180l7-3 11-2 7 1 6 3 3 3-3 5-13 1-13-2-4-3z" class="st7"/>
    <path d="M1535 282l10 1 7-1 2-1-2-2-5-5 4-1h6l-7-10h9v-2l-8-11-2 1-7 11-4 11-4 8zM1483 256l-1 13 2 9 2-1 5-6 2 2 2 11 3 9 2-3 3-8 2 6 2 8 4 7 3-8 1-6h1v-5l-13-6-10-9-8-13zM1677 246l-11 10 2 2h9l-1 3-4 8h2l11-4 5-1v5l-3 8 5-2 10-7 3-2 3 1-1 10v6l3-2 12-11 1 2 3 8 13-19 1 3 3 7 3-7 4-10 3 3 3 7 4-16 1-11h-4l-18 16-13 8-13 6-5-1-3-4-8-4zM1582 288l1 15 2 11 2 3 6 1 7 1 23 3 9 1 2-8 8-21-3-8-4 1-4 3-4-6-2-4-6 4-5 5-8-9-6 4-4 4-8 1zM1559 243l6-5 6 6 14-7 5 3 4 5 4 5 6-7 2 2 4 5 4-3 2-1 3 3 4 3 16-15 3 5 5 8 6-6 2 1 1 4 2 7-6 13-6 4-3 1-2-2v-6l-1-3-2 1-8 5-2-4-2-5-4 2-8 6h-1l-1-2-5-7-2 1-3 4-9-4-11 10-9 1-3-3-7-8z" class="st8"/>
    <path d="M1584 316l12 18 6 9 4 5 7-4 7-8 14-13 5 7 10 20 8 19v3h-5l-3 5-8-6-4 9h-2l-7-5h-2l-3 5-2 1-2-4-5-32-3 3-5 2-14 28-3 5-4-3-8-10-4-1-2-4h-2l-4 3-2-3-1-7-8 1 2-4 7-11 11-17 6-9zM1551 390l5-4 1 1v4l1 5 3-1 7-4 2 4v5h5l9-1 4-3 2 6 3 13v6l-11 2-9-3-4-4-2-1-6 6-1 2-3-7zM1562 436l4 2 3-2 5 5 3 1h13l1 3v3l1 6v4l-4 4-6 13-10 9-9-3h-7l-3-2-3-1-4-1h-2l-2-2-4-1h-4l-1-2-2-4 3-3 9-4 4-6 6-4 4-4 3-6 2-5zM1788 196c5 4-7 16-12 17l-4 2c0 2-4 6-7 5-2-1-7 4-7 4l-5-2-1 1-5 4h-7l-4-2-1-5-3-4-4-5 2-5 1-4 1-1-1-3 1-5 4-1 7-2h10l10 2 10-1h8l5 3 2 2zM1491 218l-1-5 1-7v-8c0-5-2-7-4-8h1l2-4-3-7-6-2-1 3-4 8v5l-3 4-1-2-2-6-2-4-4-2h-5l-2 2-3 4-6-1-1 3-2 8 1 1 5-2h9l4 4 2 1-1 2-6 11-1 4 1 3v3l2 2 5 1 5 2h5l5-2h6l3-3 2-4-1-4zM1430 225l2-7 2-2 7-3 4 5 2 1 3 6v4l-3 3-4 3-3 2-4-5zM1500 165l5 3 5 8 6 6 6 6-5 2-7 2h-5v-1l-3-6-2-9v-11zM1707 168l7-1 2 5 7 5 2 4-5 14-4 1-11-2 2-10zM1740 147l5 6 2 8v9l-3 8-3-1-7-5-10-12-1-2zM1754 147l5 10 1 10 1 6v4l3 3 7 2 4-8 5-10-2-8-1-9-11 4-12-4zM1791 161l-4 12-1 9v4l5 2 8-6 3-8-1-4z" class="st8"/>
    <path d="M1594 317l-1-10 2-15 5-7 7-5 2 3 5 6 7-6 2 6v14l-2 17-14-1z" class="st9"/>
    <path id="UNHA_17_" d="M1804 162l-5-14 3 1 5 4 3 5v6l-3-2z" class="st7"/>
    <path id="UNHA_16_" d="M1767 129h5l7 2 4 5 2 5h-7l-6-5z" class="st7"/>
    <path id="UNHA_15_" d="M1743 137l-3-3-6-2h-7l-8 2-3 2 10 2 9 2h2z" class="st7"/>
    <path id="UNHA_14_" d="M1707 158l-2-2h-9l-10 7-4 10 3-2 3-2 10-5 1-4 5-1z" class="st7"/>
    <path id="UNHA_13_" d="M1694 211l-2 6-2 7 3 3 3-3 3-7v-2l-2-2z" class="st7"/>
    <path id="UNHA_12_" d="M1525 224l-2 9-4 6-2 3v2l4-1 6-5 5-8 1-3z" class="st7"/>
    <path id="UNHA_11_" d="M1488 165l1 3-1 1-7 7-3 8-3 10-2 3-3-9-2-16 2-6 5-4 5-1 5 1z" class="st7"/>
    <path id="UNHA_10_" d="M1442 179h6l4 3-5 7-2 10-1 14-1 2-3-3-3-7-3-5v-8l2-6 3-3z" class="st7"/>
    <path id="UNHA_9_" d="M1421 221l-2 11v10l2 5 4 5v-22l1-4-3-2z" class="st7"/>
  </g>
  <path d="M1785 192c-2-2-5-4-9-4h-36l-8 4-1 3c-1 2-2 4 0 6v1l2 1h5c2 0 3 1 3 2l-3 4-2 4h-3c-1 0-2-1-2-3v-8c-3 2-4 4-4 7-1 4 2 6 4 8 0 6 0 6 4 7 0 3 3 4 5 6h4c4-1 7-3 8-7l-11 3-3-2c-1-1 0-2 1-3l1-1 1 3h5c1-4 2-4 5-1l1 1c2 2 4 3 7 2s6-2 7-5v-2l-4 1 1-4 4-2 2 2h5l2-1c1 0 2-1 1-2h-7c0-5 5-7 7-11l-5 4c-2 1-3 3-5 3l1-5c0-2-1-3-2-3-6 3-6 4-5 7l2 1h2c-1 2-3 3-6 2-1 0-3 0-3-2-1-1 0-2 1-3l3-3 2-3-5 3-3 1h-11c-1-1-2-2-1-3l3-3 6-3h7l3 1 4 1 12-3h4l7 3 2-1-5-3zm-53 7l1-5h2c0 1-1 3 1 4h2l-1-5 4-2 1 5c-1 3-6 5-10 3zm26 16l-1 3 3 2-3 1c-3 1-4 0-5-2l6-4zm-15-9l3 2-1 2c-1 2-1 3 2 3h1l1-4 2-1 4 5c-4 2-7 2-11 2h-2c-2-1-3-3-2-5l3-4z"/>
  <path d="M1774 208l4 2c2-4 2-4 1-7-2 1-5 2-5 5zM1748 199c-1 1-2 2-1 3h5c1-2 2-4 0-6l-4 3zM1624 220l-2 4c-1 2-2 3-1 5l5-5 1 3 2 2c1-3-1-6-5-9zM1601 219l-4 6c0 1-1 2 1 3l3-5c2 2 2 4 5 6l-1-3-4-7zM1584 218l-4 6c0 1-1 2 1 2l3-4 4 4c0-3 0-3-4-8zM1639 227v3l4-2 4 4c0-4-2-6-3-9l-5 4zM1660 226l-5 7 6-2 1 3c1-4 1-5-2-8zM1567 220l-4 5 1 2 3-4c2 1 2 4 4 4 0-3-2-5-4-7zM1481 199c0 2-1 3 1 5 2 0 4-1 5-3-2-2-4-3-6-2zM1472 209h-2c1 5 1 5 5 4 0-3-1-3-3-4zM1611 105l-5 7 1 1c1-1 2-4 5-5l3 7h1l-2-5c-1-2-1-4-3-5zM1627 103c2-2 2-5 5-6 2 2 2 5 6 7-2-4-3-8-7-10l-4 7v2zM1612 96l2 3c1 1 1 3 3 3-1-4-3-6-5-9-2 3-5 4-6 8 3-1 4-3 6-5zM1632 109c-4 5-5 6-4 9l4-6 5 8c0-4-2-8-5-11zM1633 339l5 4c-1-4-3-5-6-7-1 3-4 5-3 9 3-1 2-5 4-6zM1635 358l2-5c3 0 3 3 5 2-1-2-3-5-6-6-1 3-2 6-1 9zM1567 461c-1 3-4 5-5 9 3-1 3-3 5-5l2 4 1 1c0-4 0-6-3-9zM1567 454l1 4c1-3 1-4-2-9l-2 4-2 4c2 0 2-2 3-3h2zM1550 466l-1 3 5-5c1 1 1 4 3 5l-2-8-5 5zM1582 338v-3c-1-2-3-3-5-1l-6 4c3 3 3 3 5 1l4-3 1 4 1 3v-4-1zM1570 347l-4 3-1 2 2 1 6-4v1l2 5h2l-2-7c-1-2-3-2-5-1zM1650 384c-2-1-4-1-6 1l-2 4v2h2l1-2 3-4 4 5 1-1-3-5zM1561 381l4-4c2 2 1 5 3 6l-1-5c-1-3-3-4-5-3l-5 5c2 2 2 2 4 1zM1627 191c3-1 5-4 7-8-5-6-11-9-19-9-7 0-14 2-20 7l2 3c1 3 4 4 6 6 8 5 16 5 24 1zm-3-12l3 1 2 1-4 4-1-6zm-4-1c0 3-2 4-3 7-2-3-2-5-2-8l5 1zm-19 5l-1-3 3-1c1 2 0 3-2 4zm7 0l-1-5h4c0 3 0 3-3 5zM1605 142c-3-2-7-3-11-3l1 5c2 5 8 8 13 7l2-1c2 0 2-2 1-4l-2-2-4-2zm-5 5c-1-1-3-2-3-4 5 0 8 2 12 4h-9zM1609 144zM1736 207l-1-2c-2 2-3 3-3 5 4 0 5 0 4-3z"/>
  <path d="M1783 397l-6 13c-6 19-18 33-27 50-8 13-18 22-27 34l-15 17-14 12c-1 2-2 2-4 1-13-4-27-2-40-4l-31-5-41-3-48-2c-18-1-31-3-48 0l-10 2c-3 0-4-1-6-3-6-12-17-19-23-31-9-15-12-20-19-39l-9-26-3-15h-6c4 17 9 35 16 52l6 12c9 15 18 29 29 43l10 12h7l28-1 26-1 54 5 48 6c17 3 40 3 58 7l10 1c3 0 0-4 3-5v-1c11-8 20-19 28-30l14-19a214 214 0 0 0 48-81h-8z" class="st3"/>
  <path d="M1527 511h4l-1-2-3 2z"/>
  <path d="M1814 184c-2-4-2-8-2-12l-1-13c-2-7-6-11-13-13l4 15-1 3-2 3-1-1c-4-4-6-9-7-14l-5-14c-2-4-5-7-10-8l-4-2h-7v1c5 4 8 9 11 13 2 2 1 4-1 5-6 1-12 1-18-1l-4-3-4-6-3-2c-2 1-3 0-4-1-3-2-6-4-10-4-7 0-13 2-18 6l-1 2c9 0 17 1 24 5v6l-14 7c-3-2-7-2-10 0l-6-1-8-1c-4 1-9 2-12 6s-5 8-6 13c-1 1-1 1 2 3 4-5 10-8 16-10l5 2 2 4c1 6 0 12-1 18-1 2-1 4-3 5-3 1-5 4-7 6l-4 5 2 5-2 3c-1 3-2 6-1 9 0 3 1 6 4 8h3v-3c0-5 2-9 7-12 3-2 6-4 8-8l7 4 1 8 4 9 3 5c-6 7-11 10-17 13l-14-8-6-3-6-6c-1-3-3-5-6-7-2-1-4-1-5-4l-1-1-5-2-21-2-13-2-1-3c2 1 3 1 4-1l3-3 4 5h4l2-4 2 1 3 1c3 2 5 2 6-2 0-1 0-3 2-3h5l-6-12 2-2 6 1-2-5c-1-1-3-2-3-4-1-1-3-2-3-4l6 2-1-4v-4-4c3 0 5 2 8 1l-11-22 3-5 2-5 1-5c1-2 2-4 1-6-4 1-7 5-11 7l-1-7-3 1c-1 0-1 2-3 2l1-6-1-6c-1-7-4-14-7-20-1-3-3-5-6-6l-2-1-2-7-2-2-4 5-9-1-2-5c-3 4-5 8-9 10l-3 3c-4 3-7 8-10 12l-5 9-1 3c-2 0 0-3-3-3l-2 5-1 1c-2 1-2 2-2 3-1 5 0 10 1 14l-5 6-5 5-5 5-6 5 3 1 3 1 3 1-6 9c-2 3-5 6-6 10l4 1-2 5-3 8v2c3 0 5-2 8-1l1 6h3c2-1 3-3 5-2l1 6 2 1 4-3 5-2 1 3c1 2 3 2 4 1l3-3v7c-14 0-27 2-41 4v2h-3l-6 2-4 5c-2 4-3 8-3 13l-2 7-7 15-3 5 4-2c6-7 10-14 12-23l3-12c1-3 3-6 7-7 1 1 0 2-1 4l-1 4v5a40 40 0 0 0-1 9l1 5v5c-3 3-6 7-8 12l-3 7-10 21-2 7-1 3h-1v-1l-6-10 3-2-4-3a51 51 0 0 1-33-36l-1-4v-1l7-4 2 3c4 8 10 13 17 17l6 3c3 2 6 4 7 8l2 6-3 7h4c2-1 3-2 3-4l2-4 1-4-3-6-3-3-15-7c-8-4-14-11-18-18l9-12c2-1 3-3 4-6l1-9 1-4 6 1c2 1 5 0 6 2l2 10 1 4v7l-4 8-4 5v2l2 1 5-1 9-8 3-6v-2c4-4 4-9 5-13v-4l-1-14v-3l-3-2-4-3c-3-2-6-4-9-3-7-6-13-13-17-21l-1-2v-3l-5-5-5-4c-5-2-8-2-11 1l-5 6-3 2-5 5-2 2h-17c-4 0-7 2-9 6v2c-1 3-2 5-5 7l-3 6-1 7v3l-6 1-3 3c-2 5-5 11-6 17 1 1 2 1 1 3l-1 12c-1 8 2 14 7 20 1 1 2 2 4 1l-2-10-1-7c-1-4 0-8 2-12l2 1 5 7 2 7-1 9v6l5 12 3 4 4 1 6 2h5c0-2-1-4-3-5l-3-2c-2-1-3-3-3-5l-1-5-2-3 5-1c2-1 2-2 2-4l-1-5 6-5c8 3 7 4 19 2h3c0 4 2 7 1 11l-1 18 1 9c1 1 1 2 3 2l6-9 1 4 5 15 2 3c3-3 2-7 4-10l2 5 2 8 3 6c0 2 1 2 4 3l1-9c0-2 0-5 2-8l9 16 3 2h1v-3l1-13v-3l5-6 17 1c1 0 3 0 4-2l-2-3-4-3-1-2h5l4-1c-1-4-5-6-6-9h6c1 0 2 0 3-3v-1h-1l-7-8c1-3 2-4 5-6a121 121 0 0 0 3 14l3 4 4 5 3 6 5 14 5 5 2 20c-5 2-5 2-8 6l-9 12c-6 8-10 18-14 26v1c2 2 5-1 7 0l-3 5c-5 7-9 15-12 23v5l5-1 1 2 8 32 1 4 1 5c0 4-1 7-4 9l-8-4c-2-1-5-4-8-4l-10 10-5-1-7 2-13 11c-2 1-3 2-5 1-3 0-5 1-7 3l-6 5-6 8-2 3c0 5-3 7-7 8s-6 4-7 7c0 5-1 9-3 13l6 9 23-3h8c1-3 0-5-1-8l-4 2-1-1v-4c-2-1-3 1-3 2-2 1-3 3-6 2 4-4 6-9 11-12l10 6 1 3-1 1c-2 2-2 5-3 9h18v-3l-1-2c-4 2-8 4-12 4 3-4 2-7 1-11-1-3-2-4-4-5l-7-4c0-2 2-3 3-4l2-8c-1-1-2 0-2 1l-7 5c0-4 4-7 1-11l-12 16-3 5-3 1-2-4-3 5-3 3 1-7 3-3 3-1c3 0 5-2 6-4l2-7 2-3 7-6c3-3 5-5 9-3 7-4 13-10 19-15h5c3 1 5 0 7-2l9-9h2l11 7-6 6-2-2-4 3-1 1v-6l-7 5-7-1c-4 0-7 1-9 4-3 3-6 6-7 10l-3 4-3 3c4 1 7 0 9-3l5-8c2-4 8-5 12-3l4 3-3-1-4 4-1-3h-1l-4 5-3 1c-3 4-6 7-8 12l-3 4c-1 2 0 4 1 5l5-3 2 3 2 1-1 4v4l7-4c5 2 5 2 7 8l2-1 2-2 6 5 2 3 5 1c2 0 4 0 4 2l2 1h14l8-8 2-7-9 3 7-13c4 1 6 4 7 7l-1 8-3 6-1 4-6 2 1 2 4 1 6-3c5-2 9-1 13 1l2 4 24 2 32 3 1-5-1-5-3 1v-1l1-1v-6c-5 1-9 5-15 8l3-6c2-2 1-4 1-6-5 2-8 6-12 8-1-2 0-3 1-4 1-3 1-4-2-7-3 3-7 6-12 8l1-2 1-2 1-3c1-2 2-5 0-8l-3 1c-1 1-2 3-4 3 2-10 2-10 0-12-3 3-6 7-10 9 0-5 0-5-2-8l-8 7c-2 2-5 2-6-1l-1-4 6-2 5-4c3-2 5-4 8-3l5-2 6-2c2-1 3 0 4 1 2 1 4 3 4 6l3 8c0 3 2 4 5 4l3 1c2-1 5 0 7 2 4 2 8 4 12 4l4 4 1 1c1 4 4 6 7 9l-4 3v7h2l17 3 1-1 4-2 2-4-1-2-1-1-4 1 1-1 1-1c2-1 3-4 2-7l-9 2 1-2 2-3c3-2 3-4 2-7l-1-1c-2 2-6 2-9 3 0-3 2-3 3-5 1-1 2-2 1-4l-5 2v-6l-5 2-1-5-5 2-1-1c0-3-1-5-4-7l-4-3c-1-2-3-2-5-1l-7 2-2 1c0-3 2-5 1-7l-3 1-3 1-1-7-6 3-2-5-3 2c-3 3-6 4-9 5l-3 1v-5l-8 7v-3c1-3 3-5 3-8l-11 10v-2l4-6v-5l-7 8-1-3v-3c4-3 4-3 5-8l11-2 4 1c1 1 3 2 3 4 2 3 5 4 8 3l6-1c3-1 5 0 7 3l5 3c2 3 5 3 8 3l6-1 3 3 5 7c2 2 5 4 8 3l6-2c2 0 3 0 4 2l2 4 2 5c2 2 1 4 2 6 2 2 4 1 6 1l1 2c3 6 5 13 6 20l-2 5c-2 3-4 4-7 5l5 1 6-4v-6a97 97 0 0 0-5-22c-1-3-3-4-7-4l-1-1v-2l-5-11c-2-4-5-5-9-5h-4l-3 1-4-2-6-6-4-2-7-2c-3 0-6-2-9-5l-2-2c-2-2-4-3-7-2h-9c-2 0-4 0-6-2s-6-2-9-2l-5 1h-4v-5h2v-1l-1-20v-2-7l-5-23v-3l1-4 2-5 13-24 4-7 4-1 1 1 5 31c1 2 1 4 4 4-7 2-14 3-20 7v6l-2 17v27l1 4 1-1 5-9c1-1 1-2 2-1l4 12 1-3 1-2 1-3 2-2 3 11c3-2 2-6 5-8l2 5 1 6h2l2-16v-16c0-3 1-5 4-6l6-3 12-5 3-1 3-1 3 1v-5l-3-16-2-8v-3l-2-7c-2-4-5-8-6-13l-13-24-4-8v-3l6-15 5-10 4-6 6-15 1-4 4-8c1-2 1-4 3-5 3-2 5-5 6-8l2-2 4 3-5 5-5 4c-2 1-2 2-1 4 4 1 7-2 11-1l-4 7v6l5-2 10-4 2-1v3l-2 8v4l6-2 12-10h3l-1 3a428 428 0 0 1 0 15l2-2 11-11 3-1 1 8c1 1 1 3 3 3 3-2 4-6 6-9l6-9c2 2 2 4 2 6s1 3 3 4l8-18c3 3 2 8 6 10l2-8 5-25 6-3 9-4 16-16c4-3 6-7 7-11l1-1a126 126 0 0 1 4-2c2-3 3-7 6-10l1-3zm-295 58l2-4 2-3 2-4 1-4 5 2c-2 6-7 10-12 13zm-16-73l5 6 5 6 5 5c-1 2-3 2-4 2-5-3-8-7-11-12v-1-6zm8 20l-5 2-3-8c2 0 2 1 3 2l2 2 3 2zm-39-23c3-5 12-6 14 0l1 2c-4 3-7 7-10 12l-4 15-2-10-1-12 2-7zm13 13l1 1 1 8-10 3v-2l3-7c1-3 1-3 5-3zm-17 12v-1l1 1 1 5-5 5-3-4 6-6zm-11-4c0-2 2-3 4-3l6 2-7 9c-2 2-5 2-8 2l5-10zm-11 11c0-3 1-6 3-8h3v1c-2 4-3 5-6 7zm5-29c6 0 11 0 16 2v12l-3-1c-3-1-5-1-7 1l-4 4h-2c0-2 2-3 3-5-2-4-6-5-10-4 0-5 3-8 7-9zm-14 18c1-4 4-6 7-7 2-1 3 0 6 2-3 4-6 8-7 14-2 5-1 10 0 16l-2-2-4-9c-2-5-2-10 0-14zm8 35l2-2c2 2 2 5 3 8l-6 4-2-6-3-4-4-4 5-4 5 8zm-22 16l1 10c-3-2-3-4-3-7-1-5-1-10 1-16l3 2-2 11zm6-27l1 7c1 4-1 5-4 7l-2-2-3-5 7-16 3-1h3l5 11-7 4-3-5zm3 14l1-5c5 3 8 7 9 13l-2 2-8-10zm49 12l-6 1c-6 2-11 1-16-1l-3-1-2 1 2 2c0 2-1 3-3 3-3 2-4 5-3 8v2l-3 1c-2 1-3 2-2 4l2 3 1 4 1 7c-2 0-4-1-5-4l-6-11v-5a323 323 0 0 1 6-15c3-2 5-4 9-5l2-1-1-2-2-1c-1-4-3-8-7-12 4 0 6 2 9 0-2-3-6-2-8-4v-10c6-1 12-3 17 2l-1 3c-3 4-6 9-6 15l2 1v4l2 3 4 2 2 2h1c3-2 6 0 8-1l3 2 6-3 1-1 4-1c4-2 6-6 4-10v-4l-1-5 6-2c0-3-3-3-5-5l-2-5-1 2-3 6c-1 3-4 3-6 1l-3-3v8l-3 5c-1 2-3 2-4 0l-2-3h-1c-1 2 0 4 1 5v4c-2-2-3-5-6-5v5l2 2 3-1c-1 3-2 4-4 4s-3-1-3-3l-1-5c3-7 6-14 12-20l1 2c3-2 2-4 3-6l8-4h5l5-3v-2l-2-6c0-2-1-3-3-3l-6-1 4-5 4-4c-1-6-6-7-11-8l1-2 5-5h5l5 5 1 4 1 11c0 6 2 11 5 17v3l4 2 1-1 13-3c2-1 4-1 6 1l8 5v3 13c1 4-1 7-2 11-1 1-2 2-4 1-2-2-5-4-5-8l-1-10c-6-3-13-2-19-5l-1 3v4l-9 21c-1 2-3 4-6 5l-7 2zm-4-10l-2 2h-4v-1l1-2 5 1zm-4-6l4-1c3 1 3 3 1 6l-5-5zm13-8l1-2 1-1v3l-3 6h-4l-1-2 2-1 2-1 2-2zm4 8l-2 5c-2 2-4 2-6 1v-1l1-1h2l2-1c1-1 1-3 3-3zm-6 55c-2-4-1-12 0-16l1 1 5 8-6 7zm14 14c-3-5-4-10-4-16l8 7c-1 3-1 6-4 9zm16-2l-3 10-1 2-5-17 5 2 4 1v2zm120 196l6-3 9-4 8 7c0 2-2 4 0 6l2 5c-3 1-3 0-6-2h-3v-1c2-3 2-3 1-7l-4 3-1-5-1-3-3 3-2 2-3 3-5-3 2-1zm29-284h-4c-2 2-1 5-3 7-3 0-5-4-9-4l-2 6-2-1-2-3-3-3-3 5c-2 0-3-1-3-3v-7l5-4 4 4 2 2c2 2 4 2 6-1l2-4 4 3c2 2 3 2 4-1l1-1 3 5zm-21-35l9-10 4-2 1 2-1 9-6 6-4 3-5 6-1 2-5-7 3-6 2-1 3-2zm-6-18c3-2 7-3 12-3-5 5-8 5-12 3zm25 34l5 6h-7l-3 9c-3-1-4-5-8-5l-3 7-6-7 2-8 1-2 4-3 8 6c1 2 3 3 5 3v-6h2zm9-15c-3 0-5-3-8-2 2 4 2 8 2 12l-6-2v3l-1 3v4l-2-1-6-7 6-6c2-1 3-3 2-5l1-6-1-7 4-3 9 17zm-3-38l-2 9-6-3 8-6zm-4 12l-1 2c-3 3-7 6-13 7 0-2 2-2 2-3l2-3c-2-2-4-1-6-1-5 0-10 1-15 4l8 6c-7 2-9 0-12-7 11-7 25-9 35-5zm-36 19l-8-2-7 3 3-6 6 2h7l4 7h-24c1-2 2-3 4-3l10 1 6-1-1-1zm0-8l1 3c-4-2-8-3-13-1v-7l3-1h7l1 4c-3 0-6-2-9 0 3 3 6 2 10 2zm13-16l3-3 2 2-5 1zm15-6l1 5h-5c1-3 2-4 4-5zm-60-18c3-7 7-13 13-19l2-1 4-4 3-4 4 8c2-2 0-3 0-5l5 1 1 2c3-1 3-5 6-7l3 10 4 1 4 6 5 23v7c1 2-1 3-3 5l-1-4h-3l-3 2-7 7-5 3h-6l-5 1c-3 0-4-1-4-3l-1-8v-5c-2-2-3-1-4 0l-3 5c-3-2-4-4-4-7l-2-6c-1-1-2 0-3 1l-3 3c-2-1-2-3-3-5 3-1 4-4 6-7zm15 27l-3-4 1-4 1 1 1 7zm-12-11c-3-1-3-1-1-5l1 2v3zm-11-10l1 5c-1 0-2 0-2-2l1-3zm-3 6l1 1c9 5 17 11 24 19v1l5 2-2 7-9 1c-2 1-4 0-6-2l-7-7-7-21 1-1zm18 41l-2 6-8 5-1-4c0-3-1-6-4-8l-5-5v-4l4-9 16 19zm-32 2l4-5c1-2 0-4-3-4h-5l18-17v3l-5 9c-2 3-1 5 1 8l3 3c3 2 4 4 4 8-2 3-5 4-8 6-1-3 2-6 0-9-3-1-6 1-10 1l1-3zm-4 5h10c1 1-1 3-1 4l-2 5c1 1 2 2 3 1l6-3 5-4c3 3 2 6 3 9l-7 6c-2-2-1-5-4-6-3 0-6 3-9 4l-1-3 1-3c0-4-1-5-5-4h-2c0-3 2-4 3-6zm24 31c-2-1-2-4-5-5l-7 5-2-5-1-4-6 4-1-1v-2c-1-3-2-4-4-3l-4 1 1-3 6-11 1 1-1 8c1 2 2 1 3 1l8-2 1 4c1 3 3 3 5 2l2-2 5-4c3 3 3 6 3 9s-2 5-4 7zm4-17c-1-2-3-4-3-7l12-5 14-2c5 0 9 1 13 4l8 8-2 5c-4 5-9 8-16 9l-17-3c-4-1-8-4-9-9zm23 23h-10c-2 0-3-1-3-2l-2-8c3 0 4 2 5 3l4 4 6 3zm-60 51v2h-6l-3 1c2 3 5 5 6 9h-5l-7 1 10 9-15-1c3-9 6-18 12-26l1-2 2 2 5 5zm4-15l4-5 6 8v2l1 9 1 2c2-1 1-4 4-5 2 1 1 4 3 5l2-2h2l3 6-1 2-2-1-3-3c-1-1-3-1-4 1l-5 5c-8-6-11-14-11-24zm13 30l2 5c-2-2-2-2-2-5zm5 13l-3-3 2-1 1-4 3 5-3 3zm4 4v1l5 12c0 1-1 3 1 4v-1l1-2 1-10 2-4v6c-1 6-2 12 0 18l-6 1-4-24v-1zm-35 97c-1-3 1-5 2-7l3-7a81 81 0 0 1 9-13v6c0 1 2 2 4 1l5-2 1 5c0 3 1 4 5 3-2 6-4 11-3 18l3-4 1 3c2 0 1-2 3-1v2l5-8c1 5-1 9-4 14l-3-3h-3l-3 2-2 1-1-6c0-2-1-3-3-2l-3 2-5 2-1-8c-2-2-3-1-5 0l-5 2zm-34 96c0-4 3-6 6-8 2-3 6-5 10-6l2 3-18 11zm7 9l1-3c2-5 6-8 9-12l6-2h4c-3 4-15 14-20 17zm15 2c0-3 2-6 4-9l5-8 9 3-1 1-17 13zm11 6c1-4 6-12 10-18 6-1 6-1 10 1-8 8-16 16-20 17zm38-41c-3 2-5 5-5 8s0 4-2 6l-8 8-2-1c-3-1-6-2-9-1-2 0-4 0-5-2l-6-2h-3c-3-3-6-3-9-3h-1l-2-4c0-2 3-3 4-3 4-2 8-4 10-8l2-1c6-5 11-10 13-17l4 2c1-1 1-4 4-5a687 687 0 0 0 6 8l2-1c0 4-1 8 1 11l1-2 2 2c2-1 1-3 2-4 2 0 1 3 3 4l1-4v-4l1-3 1 11-5 5zm4-20c-2-2-4-3-6-1l-2-3c-2-2-3-2-5 1l-1 3-3-3c-2-3-3-3-6-2l-2 1-2-7v-2l5-11c1-1 1 1 2 1 2 3 2 6 5 7l1 3 2 4 2 2v-5-1 1l1 1 2 5c2 1 2-2 4-2l2 2 1-5 1-4 1 16-2-1zm0-37zm1 3l1 9-4-2-4 6-6-4c-2-1-3 1-5 3l-4-5c-2-1-3 0-4 1l-3 6-2-2a207 207 0 0 1-7-28l4-2v7l2 5 10-7 1 7 2 2 1 2 1 5 2 2 1-6 1 2 1 5 3 1 3-1 1-5v-4l3 5 2-2zm-1-6h-1 1zm10-43v1h-1v3l-3 4v1l-6 14-1-2-1-10-2-4c-3 1-6 4-11 4l-1-6c-3 0-5 3-8 4l-1-9h-9l2-2 9-12 13-20 4-5c2 0 2 1 3 2l10 16-4 8-7 15v3l3-3 1 1v5l3-4 1 5h2v-1c0-2 0-3 3-4v-3-1h1zm13-14c-4 4-5 4-8 0l-14-23h-1l1-1 4 1 13 2 23 3-5 5-13 13zm-11-46h4c1 4 0 7-1 11h-9l1-11h5zm-5-4c1-3 5-7 10-11v11c-3 2-6 1-10 0zm8 23l-4 1h-4l-1-7h9v6zm18-17l-1 11-14-2 1-11c4 0 9 0 14 2zm-14-10v-5l5 7c4-1 5-4 8-6v10l-13-1v-5zm-1 22l7 1 6 1v5l-13-1v-6zm50 67l5 18-8-2-3 5-2-2c-2-2-5-1-6 2l-1 2-1 1-1 1-2-3c-3-2-4-3-7 0l-2 2c-3-7-3-14-5-20l3-6c4 1 6 5 10 6 3-2 3-6 4-9 4 1 5 5 9 6 2-1 2-4 3-6 2 1 4 2 4 5zm-23-53l8 15 7 15c2 5 5 9 6 15-1 1-2-1-3-1l-4 6-2-1-4-4c-2 0-3 1-3 3l-4 6-2-2-3-3c-2-1-3-1-5 1-1 1-2 3-4 3l-2-10-2-10-2-11 19-22zm4-26l-7 21-8-1v-3c2-10 3-21 0-31l2-3c2 4 3 8 6 11l7-5c1 4 2 7 0 11zm5-10l-4-6-9 6-3-7c-1-4-2-4-5-2l-8 5-2 1-1-2-3-4c-1-2-2-2-4-1l-7 6-3 2-2-2-2-4c-2-1-3-1-5 1l-1 1h-1c0-2 0-4 2-5s2-1 5 1l2-10 1 4 1 3c0 1 0 2 2 2 1-5-1-10 1-15l5 3c2-2 2-5 5-6 3 3 3 8 7 10 5-1 7-6 11-8l2 2 1 4c1 2 2 2 4 1l4-3 4-2v8c0 2 0 4 2 5l6-3 5-2c-1 6-5 13-10 17zm10-25c-2 4-5 7-10 8l-1-2v-7c-1-2-2-2-4-1l-5 3-4 1-1-3-1-3c-1-2-3-2-5-1l-5 5-4 3-3-5-1-3c-2-2-3-3-5 0l-3 2-1 1-5-5-4-1-2 4c-1-1 1-8 3-13 3 1 3 5 6 6l6-8c3 2 3 6 7 7l5-5 2 3 2 3c2 2 3 2 5 0l12-12 2-2 3 7c2 2 2 5 4 6l7-7c3 4 3 8 4 11l-4 8zm16-31l-6 16c-1 2-2 3-5 4l-1-5-2-4c-1-1-2-2-4 0l-5 4c-3-5-4-9-8-13l-8 7-9 7-3-3c-2-2-3-2-5-1l-3 2c-2 0-2-2-3-3-2-1-4-2-6 0l-2 2-2 2c-2-2-3-4-3-7l-4-8-2-2-13 7-4 4-3-3-3-3-11 8c-2-8-1-22 2-29h23l12-1 1-1c4 0 4-1 4-4v-10l-1-6c4 1 5 2 5 5l2 7c0 4 2 6 5 6l9 1c5 0 10-4 11-10l1-3h2l-1 7v7l9 4a254 254 0 0 0 33 6l-2 10zm28 37c-2 2-4 4-8 5l2-6 1-6h-4l-7 2-7 3c2-5 5-8 5-12l-4-1-4 1h-3l9-9 27 17-7 6zm6-10h-2l-4-3-26-16 2-8v-8l3 1 5 5 7 8c5 5 11 8 17 12l1 1-3 8zm98-110h2c3 3 5 6 6 12l-4-2-4-10zm-8 14l7 8-1 6-2-1-3-4c-3-3-3-6-1-9zm3 18l-2 2c-2 3-3 3-7 1 0-4 1-8 3-11l6 8zm-19-43l-8-9h2l7 3c3 1 5 3 5 6-2 2-4 0-6 0zm1 23l-5 10c-4 0-8 0-11-3v-4-3c8 2 10 2 16 0zm-7 14l-1 3-2 1c-2 0-4 0-5-2l-1-5 9 3zm5-25l1 8-2 1h-9c-3-1-6-3-7-6l-2-5c9 4 9 4 19 2zm-44-13l-13-3c6-2 11-3 16-2 3 0 5 1 6 4-3 1-6 2-9 1zm1 17l7-5 2 2 2 2c-2 3-4 6-8 7l-2 2c-4 1-5 1-8-2l-1-2 8-4zm10 12l-4 2c-4 1-4 1-8-3 5-1 10-3 13-8 3 4 2 6-1 9zm4 1l-4 9-6-4 10-5zm-49-8v2c-1 1-2 3-4 3l-4 2-5 3c1-5 4-7 7-10s7-4 12-3l-6 3zm-5 66c-2-4-1-8 1-12l4 3-5 9zm65 21l-1 7-2 7-3-8c-2-1-3 0-4 2l-2 6-3 7-2-3-1-5c-2-1-3 0-4 1l-8 13-2 3-3-9c-2-1-3 0-4 1l-9 9-2 3-1-2 2-9v-2l14-4c10-5 20-10 28-17l5-5 2-2 1 1-1 6zm51-62l-3 6c-1 2-1 4-4 4l-3 2a178 178 0 0 1-29 28l-5 2-19 6-1 1 9 2-6 6-18 14-15 9-3 1c-3-1-4-2-5-5 0-2 0-4 2-6l2-6 4-1 4-1c5-2 8-4 10-9h7c2 0 4 0 4-2l-3-2-3-1-5-4-5-6v-6-5l-4-4-8-2c-3 0-5 2-7 3l-5 4c-2 1-3 1-4-1l-3-5 6-7c2-3 5-4 9-3l11 1 5-2c2-5 3-9 3-14l-1-4-6-6-4-3 3-3-2-1-7 1-10-1-1-1 1-3 6-1 10-1 4-1 3 4 11 12 1 1c3 0 5 3 8 5l1 1 2-2 3-9 1-4-2-9-3-6c-3-3-5-7-6-11l8-2 2 3 8 15 1 7 2 14 2 4 8 3c2 0 3 0 4-2l7-17c-2-8-1-15-1-23l6 1 2 5 1 7-1 5c-1 7-3 13-3 20v4c0 3 1 4 3 5l5 1 4-2a47 47 0 0 1 6-8l2-2-1-4 1-4v-3c-1-2 0-3 1-3 2 0 3 0 4 2v13c1 2 0 4-1 6zm-101-15l2-1h3l1 5c0 6 0 12-3 18 0 2-1 2-4 1 2-7 2-15 1-23zm8 4l2 1 6 5-7 13c-1 2-1 2-4 1 3-6 4-13 3-20z"/>
  <g id="MOLD_ARTE_1_">
    <path d="M1329 586l18 1 3-22 17-58 5-21-17-4-10-5-2-3 8-8 19-20 33-50 27-77 6-51-4-43-26-66-25-40-34-38-57-30-65-13-70 6-66 25-38 28-36 35-21 41-9 24-7 20-6 32-2 72 15 53 19 44 28 47v5l-30 5v44l4 56 13 5h10l79-1 68-3 56 5 70 5 26 4z" class="st1"/>
    <path d="M1072 470l-17-22-21-30-17-38-13-52-3-46 3-15 2-39 16-55 25-44 31-28 46-24 56-14 57-4 26 3 44 21 39 32 26 38 19 34 9 35 6 51-4 46-14 39-25 45-18 26-23 28-17 19-97-9-45-1-48-1z" class="st2"/>
    <path d="M1377 390c11-20 20-42 25-64 5-17 8-35 7-53-1-17-3-35-6-52-2-9-4-19-8-28-7-15-13-31-22-46-7-11-14-22-23-32l-14-16c-11-10-24-17-38-24l-28-11c-10-5-21-7-31-8-17-1-34 0-50 2-18 1-36 5-53 11-12 4-22 9-33 15-14 6-28 15-40 25l-12 11-7 7c-11 13-19 27-25 43-7 16-11 33-14 49a243 243 0 0 0-5 57 267 267 0 0 0 31 142c8 15 19 29 30 42l11 13 7-1 29-1 26-2 56 2 48 5c18 3 42 2 60 5 5 1 5 2 10 1 4 0 1-4 3-5v-1c11-9 19-21 28-32 4-7 8-14 14-20 9-10 17-22 24-34zm-45 50l-15 18-13 13c-1 2-3 2-5 1-13-3-27-1-40-3l-32-4-42-2h-49c-18 0-31-1-49 2l-10 2c-3 1-5 0-6-3-8-12-18-18-26-30-9-16-12-20-20-40-3-7-8-18-10-26-4-18-7-33-8-52l-1-30v-10l1-9c0-16 0-29 4-44 4-16 8-34 14-49 3-9 13-28 18-36 9-11 19-18 31-27 9-8 15-14 26-19l33-14c12-5 29-9 42-11l45-4c10-2 28 0 38 3 6 1 19 7 25 9a156 156 0 0 1 67 50c9 11 15 20 21 34l16 29c10 22 11 45 14 73 1 16 0 25-1 41-1 12-4 23-9 35l-7 16c-6 19-16 34-26 52-7 13-17 23-26 35z" class="st3"/>
    <path d="M1129 557l-1 1h-4-1l-2-1v-4l-1-4-1-2-1-2v-1-1l-1-3v-2l-2-2-2 1-1 1-2 2h-2l-2 1-2 2-1 3v4l-1 2-1 3h-2l-3 3c-3 0-4 0-5-2l-1-3-1-6v-3-4-4-2l1-1v-2-3a175 175 0 0 0 3-15l1-5v-3-2c0-4 2-9 5-17l2-2h8l1-2 2-1 3-1 3 1 4 3 1 2 1 2 1 3v10l1 3v1l1 3v7l1 3c1 1 2 3 1 6l1 2v4 11l1 3v9c0 2 0 4-2 4zm-16-40v-5-4l-1-3h-4l-1 3v4l-1 3-1 5v4l3 1 2-1h1l2-1 1-1-1-2v-3zM1154 538v5c0 3-1 4-2 5l-1 7-2 2c-2 0-4 0-4-2l-2-2-1-1h-1v-1-3l-1-1-1-5 1-3v-3a34 34 0 0 0-3-12v-4-2l1-1v-4-4-4-6-6c0-5 1-9 2-9l1-1 2-1 1-1h5l2 1h7a62 62 0 0 1 8 1c5 1 8 4 11 8l1 5a54 54 0 0 0 1 8l1 5-1 3v1l-1 3v5l-2 2-3 5h-2l-1 1 1 1 1 2 2 2h1l2 1 1 2v12l1 3-2 4-2 2h-2l-1-1-1-1h-1c-2-1-3-3-3-7l-3-5-2-3-1-3c0-3-1-4-2-5l-2-1-2 2-1 4zm5-19l3-2 2-2 1-3 1-6-1-3-2-1-3-1-2-2-1-2-1 1-1 2v8l1 2v11l3-2zM1225 493v7l-1 5v4l-1 4-2 1h-3l-2-1h-3l-2 2-1 4v16l1 3-1 1v1l-1 1-1 1h-1v8l-1 5-1 3-5 2c-2 0-3-1-3-2l-1-6v-5-3l-1-2-1-3 1-4-2-3 1-5 1-5v-5c0-3 0-4-2-5l-3 1-2 1h-2l-1-2 1-2 1-3v-2l-1-1-1-1-1-6a828 828 0 0 0 4-14c2-1 4-2 7-1l21 3 2-1c4-2 7 1 7 9zM1230 500v-6-3l1-3 3-2 5-1 3 1 3 1 3 1h6c2-1 4-1 5 1h10c2 1 2 4 0 7v3l-1 2v3l-1 3-1 2v1l-1 2c-2 2-3 3-4 2h-1-1a21 21 0 0 0-9-2c-2 0-3 1-4 3v3l1 1h2l1 1h2l4 1h1l1 1 3 1-1 4v1l-1 3-1 2-1 2h-4l-1-1h-7l-2 2v7l2 2c1 1 1 2 3 2h2l3-1h4l3 2v3l-1 3v1l-1 4-3 2h-6l-3 1-2 1h-3l-1-1-5-1-4-2-2-4 1-4v-1-2c-1-2-2-4-1-6l1-2v-2-2-2l-1-1-2-4 1-6 1-4v-7-4-3-3l1-2zM1011 475l25-2c3 0 4-3 3-4-4-3-5-9-8-13l-13-21-9-16-5-9-8-19-6-15-11-31c-3-13-5-27-4-40v-40l2-17 6-32a231 231 0 0 1 31-74l18-23 15-16c7-6 13-12 21-17l15-9a261 261 0 0 1 90-33l27-3c12-2 24 0 36 1a217 217 0 0 1 89 29c18 10 31 24 44 38 10 9 15 21 22 32l13 24c10 19 16 39 23 58l1 5c0 12 4 24 4 36l-1 24c-2 21-6 42-13 63-8 22-17 44-30 65-9 13-18 27-30 38l-12 13-4 5c-2 2 0 4 2 4 1-3 3-3 5-5 14-8 21-22 31-34 16-20 24-32 34-56 9-21 18-41 21-65 3-17 6-35 4-52-2-18-2-31-6-48-7-23-7-28-18-48l-19-33c-3-5-7-13-11-17l-15-19c-5-6-13-16-19-21-17-10-25-19-43-25-14-5-31-12-45-14-9-2-22-6-31-6h-29a268 268 0 0 0-133 43l-37 30c-21 16-37 47-47 72a279 279 0 0 0-19 143c3 21 7 32 11 46 5 16 12 29 18 43 9 19 13 25 23 40 4 5 8 10 10 16l-29 2 7 7h4zM1319 581l-43-6-51-3-5-1v-9l-8 6-4 3c-5 1-7 0-8-7-5 7-11 6-18 6l-51-1h-68l1-7c-5 1-9 3-12 6-4 4-8 4-13 3l-2-2 1-7-9 7h-8c0 6 12 17 12 17h19l32-2h19l34-1c13 0 26 3 39 0h3a12168 12168 0 0 1 134 9l24 4 4-11-22-4z"/>
    <path d="M1124 574c-2 3-4-1-6-2l-8-1 2-13c-5 2-8 4-12 8-1 2-7 2-11 2-17 2-30 4-47 4l-22-3c-10-1-10 1-11-8l-2-29-4-50c0-6 0-6 5-7l18-1c11-1 12-7 4-7l-22 1h-10v45l3 35v3l-1 19c0 5 5 8 10 11l3 4c12 14 24 28 38 41l1 3 7 6 7-2c4-1 4-2 2-7v-3l2-21 1-17 13-1 18-2h24l-2-8zM1314 634l18-21 13-16c1-2 2-4 5-4l2-6c1-7 2-23 5-36v-1l3-8 2-8c4-14 9-27 11-44l1-3c1-2 1-4-1-5-7-3-19-3-26-5l-5-5s-7 7 4 10l15 3 9 3-3 11-18 53c-3 9-4 19-5 29l-1 4-9-2-26-4v-18c-5 2-9 5-10 8-3 6-7 6-11 5v-16c-6 3-11 6-12 13-1 3-33 2-35 2l-3 13 33 2 19 1c3 1 4 4 4 8v15l1 16c1 3 2 5 1 8-1 1 0 3 1 4l7 6 11-12z"/>
  </g>
  <g>
    <g id="CORES_PINTOR_1_">
      <path d="M1204 337l10 6 14 25 21 16-5 16-6 13 3 3 12-2 7 3 4 8v14l7-4 8-10 1 4 2 11 1 5 4 2 3-2-1-1 1-9 4-6h11l4-4 6-11-1-2-4-1-10-5-2-4 2-3 4-4 3-2 7 5 6 4 20-4 4 8 4 6 1 4 8-1h6l2-2 3-7v-5l-9-3-4-4 1-7 5-6-2-3-8-2-5-2v-3l2-5 8-4 4 2 6-1 12 2 4-5v-3l-8-6-3-5 3-4 5-1-2-6 1-7v-2l-11-5h-12l2-7 4-3 4-6v-2l-8-5-12-9-32-65-13-26 1-15-12-8-18-9-17-30-2-4 2-7-5-5-6 9-3 8-11-4-6 13-10 2 7 15-21-1-13-1v-7l-10 1-2-4 3-18h-7l-9 9-5 3-4-2-3-1-8 13-1 5-4 9-4-5-5-6-3 2-5 9-1 12-10 17-2 9 1 5-11 10-15-4-5 2-3 8-5 14 5 8-1 11 3 8 3 21 19 28 34 14 47-1z" class="st6"/>
      <path fill="#bf0c13" d="M1114 303l18 15 51-56-11-3 7-8 13 1 40-45 35-37 26-27 19-21 25-25 11-14 16-21 9-17-3-5-15 5-37 27-33 32-20 21-38 45-38 45-44 53-18 23z"/>
      <path fill="#794f21" d="M1005 358l6 9 5 5 1-1 15 6 11 1 17-4 5-13 5-13 12-7 8-3 5 4 4 7 4 8v11l-3 10-6 17-9 10-12 8-14 6-11 2-14-2-12-8-14-12v-11l-1-8-2-10-2-8z"/>
      <path d="M1328 445l12-14-10-18-4-9-6-1-5-5-8-5-4 3-3 3-2 2v3l8 4 9 5-2 8-2 4 3 2 5 8 7 9 2 1z" class="st12"/>
      <path id="DETALHE_PINCEL_3_" d="M1288 115l6 11 7 5 1 1-10 11-12-12-5-17 9-10z" class="st7"/>
      <path id="DETALHE_PINCEL_2_" d="M1109 311l-17 24-2 7-1 4 9-3 14-9 17-16 1-1-15-13z" class="st7"/>
      <path d="M1280 263l-1-7-3-8 8-3 3-3 2 1 2 6 3 1h8l7-4 3-14 1-5 11-4 16-12 1 11 3 7 5 6-4 2-6 3-4 3 1 4 8 4 10 3-9 3-6 4-1 3v2l1 3 3 4 5 4 6 4-8 8-11 5-2 4 2 8 1 6-3 2h-5l-9 2-3 6 3 8-2 3-12 8-1-6-1-4-4-3-6-1-6-1 1-7 1-6-5-1-8-3-1-4 4-2 3-6v-30l-1-4z" class="st13"/>
      <path d="M1077 275l1-6 3-3 6-4 6 1 4 1 2-5v-10l2-5 6-8 8-6 7-1h8v12l-6 25-2 15-2 8h6l2-3v-2l4-2 5-4 1-4v-2l11-4 14-5 11-4 13 6 7 7 3 6-8 8-20 9-12 4-15 3-3-5 8-4-3-4-10 2-5 1-2-1-10 3-15 12-7 7-12-5-9-20 3-8z" class="st14"/>
      <path d="M1185 160l-2 7 2 7-3 1-9-1-5 3-3 10 23 1 22 2 15-18 5-7-20-2-18-2zM1275 274l4-5 3-1 8 1h7l9-1h10l3 7 2 9-4 12-5 6-5-2-29-9-13-2-16-1-10 2 2-5 4-4h10l6 1-5-6-2-3 1-2 3-1h3l5 2 6 2z" class="st12"/>
      <path d="M1112 415l12 5 20 13 11 10 4 4 2 3v3l-13 8-8-4-5-7-7-12-10-14-6-8zM1085 427l-5 32v21l2 9 4 8 4 2 7-4 4-6 2-9-1-9-7-21-8-21zM1041 323l-15-27-11-32v-13l2-8 6-8 9 1 6 18 3 23 1 15v30zM1024 338l-31-15-17-13-8-9-2-9 3-4 10-1 12 4 7 6 10 14 7 10 6 10 3 6z" class="st5"/>
    </g>
    <path d="M1015 273c5 12 9 23 15 34l14 28v-6l-1-10v-18-21c-2-10-3-21-3-32-1-7-4-12-9-16-1-2-4-2-6-1s-4 2-6 5l-3 5c-4 8-5 15-3 23l2 9zm3-28l3-7c4-1 7 1 9 3 3 3 5 7 6 11l5 34v34l-1-1-13-27-7-20-3-9c-2-6-1-12 1-18zM1031 345h1l-2-5-9-10-16-25c-3-5-7-10-12-14s-11-6-17-6l-9 2c-2 2-3 4-3 7 0 2 0 5 2 7l3 4c5 9 12 16 22 20l8 4 26 12 6 4zm-11-10l-29-17-13-8-1-1c-3-1-5-5-7-8l-1-7c0-3 2-4 4-4h7c8 2 14 5 19 11l12 16 11 17v2l-2-1zM1104 470l-4-14-12-28-3-5h-1l-1 5a303 303 0 0 0-5 49l3 13 4 8c1 2 3 3 6 2l2-1 3-1c4-3 7-6 8-10v-2c2-3 2-6 1-9l-1-7zm-8 22l-2 1c-3 2-3 1-5 0l-4-7c-2-5-3-10-3-16l1-23 2-18 2 4 10 24c2 6 4 13 4 20 0 5-2 10-5 15zM1158 444a103 103 0 0 0-26-21l-23-12h-1l1 2 14 20 8 13 6 12c4 7 13 6 18 4l1-1 5-5c2-2 2-4 1-7l-4-5zm-6 11c-6 1-11 1-15-5l-5-9-7-10-11-14 3 1c7 3 14 8 20 12a1182 1182 0 0 1 23 20l-8 5zM1344 327l1-13v-12l-1-2v4l-1 10c0 5-1 9-3 14l-7 2-7 3v2c4-1 8-3 13-3v1l-2 5c-10 0-10 0-12 2 3 2 7 1 10 2l-3 7-5-2c-1-1-3-2-5-1 2 3 5 4 8 6l-3 5c-7 8-14 15-23 20l-1 3c13-6 24-13 31-25 3 0 5 2 8 3l-4-4-3-3 2-4 3-5 8 2 7 1c-4-4-9-5-14-6l2-9h6l10-1 2-1c-6-2-11-1-17-1zM1289 359l1 7c-2 2-5 3-8 2l-2-4 1-5-1 1c-3 3-4 6-1 10 2 3 7 4 11 3 2 0 3-1 3-2 2-4 0-8-4-12zM1287 350l2-1 1-4c0-2 0-4-2-5v4c-1 2-2 3-4 2l-4-3v-3c1-1 2-2 1-4l-4 5c0 5 5 10 10 9z" class="st3"/>
    <path d="M1309 367c2 0 3-1 4-3 1-3 1-7-2-10v5c0 1-1 2-3 2l-2-2-1-5c-2 1-2 3-2 5l2 5c1 2 2 3 4 3zM1344 300zM1344 300v-1 1zM1250 364zM1251 364h-1 1zM1288 222l4 3c1 0 3 0 4-2 2-2 2-4 0-8l-8 4v3zM1287 198l4-3-1-6c-3 0-4 2-6 3l3 6z" class="st3"/>
    <path d="M1381 355l-7-6c-2-1-2-3 0-4l3-1h3v-4c-2-4-2-7 0-10 1-3 1-4-1-5l-3-2-9-3-8-3c-1-1 0-2 1-3l4-5c3-5 3-6-2-9l-13-8-2-2c2-4 5-5 8-7l-2-4-7-4c-4-2-6-5-7-8s0-5 2-7l13-5 2-1-1-1c-2-2-4-3-7-3l-7-3-3-2v-3l1-1 11-4h1c1-2 0-3-1-3l-2-3c-6-4-8-10-6-17l1-5-3-2-5 5-10 9c-4 2-5 2-8-1-6-4-9-9-11-15l2-4-1-10c0-5-2-10-7-13l-4-2-20-10-2-1 3-3 7-8 25-25 18-19 17-18 16-19c6-7 10-15 14-24v-7c-1-3-2-4-5-3l-13 3a427 427 0 0 0-100 92h-1c0-3 2-5 4-7l-8-7c-1-2-4-1-5 1l-1 3-5 9-1 3-3-2-4-2c-3-1-5 0-6 2l-1 2-4 9-7 1-8 1c5 3 9 7 10 13h-27-1l4-6-2-1-7 1c-2 0-4 1-6-1l1-9 2-3 5-6c1-2 3-4 3-8v-3l-4 1h-3l-11 5-2 2-8 9c-1 1-2 3-4 3-4-1-5-4-9-4l-1 4-6 11-3 2c1 6 0 8-2 10l-2-2-4-7c0-1-1-2-3-2-3 5-7 11-12 15 2 5 1 9-2 14l-1 2-7 11c-2 3-2 6 0 10l1 3-9 9-4-1-11-1-6 3c-3 2-5 5-6 8l-3 9c-1 4 0 7 3 10 2 2 3 4 2 7-1 6 0 11 2 16l2 2v7l-10 7c-6 6-5 7-3 13a109 109 0 0 0 16 25l9 11-4 1c-6 1-11 4-14 8-4 4-6 9-7 14l-1 6c-1 6-5 9-10 10l-5 1c-6 2-13 1-19-2-3-1-7-2-10-5 0 0 0-1 0 0-3 1-3-1-4-2l-8-10-2-2-1 3c0 7 0 13 2 20l2 14c-1 9 3 16 10 20l2 1 15 8c4 2 9 3 13 3 5-1 11-1 16-3l14-5c7-5 13-11 18-18l4-6c3-6 4-13 6-20 1-8 1-16-3-23l-2-4h4l3 2c2 2 5 2 7 2l9-3 14 12c10 6 13 8 17 8l1-1c3-3 3-4 1-6l-3-3-2-5c7-2 7-2 14-8l4 3c4 3 9 5 14 6l3 1 6 1 12-1 5-2 6-2c7 16 17 30 33 39l-2 4a951 951 0 0 1-9 19c-2 2-1 6 3 7 2 1 5 2 8 1l10-1c6 5 6 11 5 17l-1 7-1 4 1 2 4-4c3-2 5-4 6-7l6-7 2-2 2 13v1c-1 3 1 6 3 8l8-2 2-2c-3 0-4-2-4-4l1-5c1-3 3-4 6-5h3l4 2 2 4c2 0 3-1 4-3v-5l2-3 6 9 1 2 2 2 4 5 4 3 3-4-4 1-4-5c2-2 4-2 4-5-3-1-7 1-10-3 1-2 4-3 4-6h-10l1-3 4-8c0-2-1-3-3-3l-11-5c-5-3-5-4-1-8l4-4 9 7 4 3c1 2 2 2 4 1l1 2c1 2 3 3 3 5l3 5 3 4 3 5 4 7 3-3-6-10-4-6-1-3 7-10 7 12 1 2v3l1 2h2c1-3 3-3 6-3 2 0 5-1 7 2h3l1-3 3-12c1-2 0-3-1-4l-3-1-6-2c-3-1-4-3-4-7l2-4c2-3 4-4 8-3l3 1-2-6-3-1-11-2-5-2-1-3c0-2 1-3 3-4l4-3 4 2 1 1c9-2 7-4 20 1l3-4 2-4c0-4-1-4-3-5zm-65-121v-4h1c4-1 8-2 11-5l11-9 2 10 5 8-2 1-6 3c-5 3-5 10 0 13l6 2 5 1-2 1-3 1c-7 2-8 6-6 12 1 4 4 7 8 9l4 3-8 8h-3l-3 1c-6 1-9 7-6 13l3 6v2l-3 2h-2c-2 0-5-1-7 1-3 1-6 3-7 5l-1 4c-1 2 0 5 1 7l-1 3-7 5-1 1-1-5c0-2-1-4-3-5-2-2-5-3-8-3l-5-1 2-6c1-3 1-6-2-8l-4-1-7-2-1-1 4-3c2-2 3-4 2-7v-2l6 2 1 2c2 5 5 9 9 13l2 2c2 1 4 2 6 1l5-1 4-3c4-1 5-3 7-6l5-16 1-6-1-3-4 14-3 9-3 3c-1 2-3 3-6 3l-8-2c-5-1-7-4-10-8h1l15 6h2c2 0 4-1 5-3l3-6c3-6 4-13 1-20l-1-4-2-3c-3-8-8-11-16-10l-9 2 3 1 6 2c2 0 2 0 2 4l-17 1-2-1c1-3 1-3-3-5 0-4 0-8-3-12l5-3 4-3 1 2 4 7c3 0 14-2 17-4l3-3 4-12zm-43 51l-1-4c-3 2-6 4-7 7l-12-1h-11v-2c2-2 4-3 7-3 4 0 9 0 13 2l1 1v-3l-5-6-1-1-2-2 3-2 4 1 11 4 3 1c2-3 3-6 6-7l16 1h16c3 3 5 8 5 12 1 3 0 5-1 8l-7 9-3-2c3-3 4-6 3-10 0-2 0-5-2-7-1 4-4 7-8 9-1-2 0-5-3-7l-1 3-1 3-3 2c1-4 1-8-3-11-1 4-2 6-5 8-1-2-1-5-3-7l-2 3-3 2-3 3-1-4zm15-108l8 5v9c-1 4-1 8 1 11l9 14 5 8-3 1 1 9c0 4-1 8-3 11l-3 2-11 1-2-4c0-2-1-3-4-4-4 2-7 6-13 7 4 5 7 9 5 15h-8l-1-1h-1c0-4 3-6 3-10-2-2-5 0-8 0l-8 1c-2-2-3-5-2-9l8-5 7-2c3-1 4-3 5-5l1-3-3-5h-7l-8 1 2-7 3-7v-6l-7 10-6 11 2-14 5-15v-6c-5 9-9 17-12 27l-8-11 36-38 2 1 15 8zm0-75l17-15c10-10 21-19 32-27 9-7 19-13 29-17l3-1-2 8-5 9-5 9-3 4c-11 15-23 28-35 41l-14 14-3 2-10-8-4-10-1-3c-1-3 0-4 1-6zm-5 6c3 10 6 19 16 24l-7 8c-6-4-13-14-15-25 1-3 4-5 6-7zm-11 11l2-2c2 11 6 20 15 26l-2 3-22 22-37 41-28 31-9 9h-9c-3 0-5 1-6 3l-6 7c-2 2-5 1-8 2l-7 2-2 1v-2l7-8a334 334 0 0 0 30-38l10-12 24-29 18-22 7-8 23-26zm-51 31c4 0 6-2 7-5a151 151 0 0 0 2-10l4 2 5 2 3-1 2-5 5-10c3 2 3 2 3 5-2 5-2 5 0 10l-6 7-13 16c-2 1-3 2-5 1l-6-2-6-10h5zm-34 13l16 2 24 2c1 1 0 1-1 2l-14 16-1 2c-4-3-9-4-14-4-4-1-9-2-14-1l-15 2 5-7 3-1c4 0 9 0 12 3h2c0-2-2-3-3-5-2-4-2-7 0-11zm-49 56h-2l-4 1-9-1c-7 0-14 3-20 6l-5 2c1-5 4-8 8-11l9-3 13-2 4 1c2 0 4 0 5-2 1 0 2-2 1-3l-3-2c-3-2-5-2-7 1l-2 3h-9l-9 1 3-10 4-8 4-8c2-4 3-8 2-13 0-2 0-3 2-5 1-2 2-5 4-6l4 5c1 2 3 5 5 5l5-7v-5l1-2 7-11 1-2 4 4c4 0 7-1 10-3l8-6v2l-1 10v1c1 5 3 7 8 6l4-1h2l-3 6-1 6 1 6-15-2c-3 5-3 11-7 16 0 3 2 5 5 6l7 2h3c-2 3-5 5-5 8l-2 8-10 1c-1-4-1-8-5-12v3l1 12v4c-1 2-1 4-3 5l-2 3 3 2-5 7h1l2 1c1 3 0 6-3 8l-5 7 4 2-5 6 1 1 1 1-2 6-6 3v4l-3 4-7 3 2 2-4 3-1-2 4-20 5-15 4-12v-3c0-2 0-4-2-6-2-1-4-3-7-3l-11 1c-6 2-10 6-14 11l-1 3-4-8c2-4 6-6 10-8 4-3 8-4 13-4h8l7 1c2 1 4 2 6 1 1-2 0-4-2-5zm-23 36l-1 5-3 1 3 4-2 13v12c-4-1-4-1-4-4l1-4v-4l-1-4 1-11 1-10-1-4c-2 2-1 4-1 5l-1 6-1 6-1 5-1 6h-3c0-10 2-21 1-31 3-7 7-13 16-15l-3 20-4 1 4 3zm-11 31l-1 12-2-1-2-4-1-2 2-13c3 3 5 5 4 8zm12-18v-3l1-3v-1-4l3-3c-2-2-2-4-2-6l2-11v-6c1-1 3-2 5-1v3l-2 17-2 19a188 188 0 0 1-3 16l-2 4-1-2c-1-6 0-13 1-19zm-42-21c-2-8 0-19 5-27 6 0 10 2 16 4v5l-3 4c-3 4-2 9 3 11l3 1c1 2 0 3-1 5-7-5-14-7-23-3zm3 18l-1-7v-6c0-2 1-3 3-3l5-1c5 1 10 2 13 8l-1 6-4-1c-5-2-8-1-11 3l-3 3-1-2zm19 2v3l-1 3h-1l-2-8 4 2zm-16 12h-1l1-1-1-5c0-4 3-6 5-9h6l1 6 2 9 1 6c-1 4 1 7 3 10l3 4c-1 2-2 2-3 0l-5-8-3-10-4-7-1 3-4 2c2 1 5 2 5 6l-4 1c-1-2-2-5-1-7zm1 8c3 1 5 3 6 5l1 2 5 10 2 5-1 1-1-1c-5-7-9-13-12-22zm-70 104l-2-4v-1 1h1l1 4zm81 0l-5 7a50 50 0 0 1-40 20c-8 0-16-2-22-8l-11-13-1-2h1c6 6 14 8 21 10 5 2 9 1 14 0l4-1c5 0 9-2 13-6 2-3 4-5 5-9 5-9 8-20 10-30v-2-1l-4 11c-2 8-6 16-11 22-4 6-10 10-17 12h-4l-10-2c-6-2-12-5-17-9-3-1-4-4-6-6l-7-22v-1 1l10 13 3 4c0 3 2 5 4 6 3 1 6 3 10 3l-4-4-3-3-3-4-2-4h1l5 4c6 4 12 6 18 6l4-1c5-1 9-4 13-8l5-7v-4c1-8 6-13 13-17l7-3 2-1c0 3-2 4-1 7 2 2 4-1 7-1l1 3c2 16-2 30-14 42-7 8-16 13-27 15l-4 2 15-2c5-1 9-3 13-6 4-2 8-5 11-9l8-13c-1 4-2 8-5 11zm5-42h-1v-2l1 2zm3 7c2 5 2 9 0 14l-1 4v-2l1-14v-2h-1v-1l1 1zm-9-13v-1c2-1 2-3 3-5l2-2c5-10 12-18 19-27l1-1c2 5 6 7 9 10-6 10-25 24-34 26zm39-30c-3-4-9-4-12-9l9-11 7-1 8-2 3 2c-2 3-6 3-8 5l3 6-10 10zm16-13l-4 1-1-3 12-5 10-4 5-2v-1h-1l-18 6h-1l-1-2v-1l5-2c7-1 14-5 21-7l6-4h-2l-6 1-16 4h-4l-5 4-15 6h-1l-1-7 10-2 11-3 9-3 8-3 3-1 6-3-3-3c-1-1-1-2-3-2l-1 4-3 1-6-4-1 3c0 2-1 3-3 3l-11 4c-4 1-4 1-5-2v-1l19-6h1v-1l12-3h4l8 2c4 2 7 4 8 8l3 6c-2 2-4 4-6 4l-4-3-3 6-4-2c-2 1-2 3-3 5l-10 5-19 7zm58-2c-8 6-17 8-27 7-6 0-13-1-18-4 6-3 11-6 18-7 3 0 5-1 8-3l5-3c5-2 7-7 8-11l-2-5c-2-5-6-9-10-11l-10-3c0-2 2-4 3-5h3c6 1 12 3 17 9 4 4 6 10 8 15l1 3c2-3 2-6 2-9l-2-9-6-7 17-11c3-2 5-3 6-6l2-4 4 1h11a103 103 0 0 0 26-10c1-1 2 0 2 1v3c0 1-1 2-3 2l-6 2a26 26 0 0 0-16 13c-1 2-1 5 1 8s5 4 9 3l6-2 6-2-2 5c-1 4 1 6 4 7h7l3 2-7 6-5-1-8-2c-2-1-4 0-5 1-2 2-2 4-1 5 1 2 3 2 3 4l-1 1-8-1c-7-1-12 6-10 12 1 4 3 6 7 7l3 1-6 5c-5-3-10-8-16-8 3-9 8-16 10-25h-1c-4 6-10 11-16 15l-14 11zm175 64l-5-1h-15c-4-2-7-1-10 1l-4 4c-2 4-1 9 3 11l7 3 3 1-2 3c-2 2-3 5-2 8 0 4 2 7 6 8l7 3c0 3-1 7-3 10-4 0-9 0-13 2l-1-3-2-3c-4-3-5-8-7-12l-1-4-3-4c-2-2-4-2-5-1l-10 9-4 3c-4-3-7-7-12-8l-1 1-2 2-5 4c-2 2-2 5 1 7l9 4 6 3-1 2-5 9-3 2h-6c-7 1-11 5-11 12l1 7-5-1-3-14-1-6-2-1-2 2-10 9-1 1 1-5c0-4 0-8-2-12-1-4-4-6-7-7h-4l-6 1h-7l5-11 5-11c3 0 5 0 7 3 3 4 6 7 11 10l14 5h4c-5-3-11-5-15-9 5 0 10 3 16 0-7-1-14-2-19-5l2-1h9c3 0 5-1 8-3h-9c-9-2-19-4-28-9-3-1-6-3-8-6l-19-22c-5-7-8-15-9-23l-1-12c0-7 2-12 9-14v4c-1 7 0 13 1 19 3 12 10 21 18 30l9 7v-2l-6-7c-6-7-8-15-10-23l-2-9c-1-3-2-7-1-10 2 0 2 1 2 2l7 12c6 11 15 18 26 24l-2-3-1-1c-4-4-9-8-12-13-3-7-6-13-6-20 0-3 0-6 3-9l7-6 1-2-6-1c-3-1-3-2-3-5l1-1c10 0 20 1 30 4l2 3-7 7-1 4c0 2 0 3 2 4l6 2 4 1v4l-1 5 1 5 5-1 10 2 3 3v8 3l2 4 2-1c0-4 3-6 5-8l8-5 2-1v-3l-3-6c0-4 0-5 3-7 3-1 6-2 9 0l3 1 3-5v-3l-3-10c0-2 1-4 4-4h1c3 1 5 0 6-2l1-2 2 2 5 4 9 5 2 1v2l-8 8-2 4v4l11 3 12 2c0 4-2 8 0 12l-3 1c-4 3-5 7-2 11l4 3 5 4c1 1 0 2-1 4z" class="st3"/>
  </g>
  <g id="MOLD_CAMISETAS_1_">
    <path d="M464 502l-2-3 7-9 15-22 27-52 16-78-1-51-9-41-33-60-29-37-38-32-59-22-65-4-68 14-61 32-33 32-31 39-15 42-5 25-5 20-2 33 7 69 21 49 24 42 33 41 1 5-43 13-9 2 8 44 11 37-25 5-40 9H24l5 8 25 15 54 15-14 12-29 12 8 8 40-3 39-3 38-11 2-19-35-34 13-3 77-10 66-12 55-2 68-4 55 2h13l-1-13 6-42 5-35v-16l-39-3z" class="st1"/>
    <path d="M200 531l-20-19-25-28-21-34-19-48-9-45 1-15-3-38 8-56 18-46 27-31 41-30 53-21 54-11h26l45 14 43 26 30 34 22 30 14 33 12 49 2 45-8 40-18 47-15 28-18 30-14 21-95 4-44 5-46 5z" class="st2"/>
    <path d="M158 555l6 2 1 1 1 1 1 4 1 4 2 3v7c0 3-1 5-3 6l-1 1-4 1h-3l-2-6v-2l-2-1-1-1h-1v-1l-1 1-1 1h-1l-1 1c-1 2 0 5 1 10l2 3 2 6v3l-1 3 2 6 3 4h2l2-1v-3l1-3 1-1 3-1h3l1 3 1 3v3l-1 2v4l-1 2-2 1-4 3-3 3-2-2-4-1h-1-3l-4-3-2-2-1-2-2-3-2-6h-1l-1-2-1-4v-4l-1-3-2-5v-4l-1-4-1-4-1-5c-1-5 0-9 3-11l7-5h2l1-1 1-1 1-1c1-1 3-2 4-1l3 2h5zM215 614l-1 2h-4l-2-1-2-2v-1l-1-3-2-2v-2l-1-2-1-3-1-2-2-1-2 1v1l-1 2-2 1-3 1-1 2v9l-1 3h-2l-2 3c-3 1-4 1-5-1l-1-3-2-5-1-3v-4l-1-3v-2-2-2-2-3-6l-1-3 1-3 1-5a29 29 0 0 1-1-5l2-16 2-2 3-1h2l2-1 1-2 2-1 2-1h3l4 2 2 2 1 2 1 2 1 3 1 3v3l1 3v1l2 3 1 3v3l2 3 2 5v2a12 12 0 0 1 1 4l1 4 1 6a29 29 0 0 0 2 5l1 7-2 4zm-21-35l-1-5-1-3-1-3h-2c-1-1-1 0-2 1v9l-1 5 1 4h3l2-1h1l1-1 1-1-1-2v-3zM249 536l6 1 3-1h3l4 2 1 2v8c2 4 2 9 2 17l-1 5v8l1 5 1 6 2 5v4l-1 2v3l-1 2-1 2-2-1-1-1-2-2v-2-1-2l-2-1-2-1-1-2-2-4v-3c-2-4-3-7-2-9v-3l-1-3v-5c0-2-1-3-2-3v15l-1 2-1 2-1 5 1 3v5l-1 6v3l-2 2h-3l-2-2-1-2-1-3v-6-4l-2-1-2-4-2-6-1-5-3-5v1a6 6 0 0 0 0 3l1 1-1 3 1 4 1 3v6l1 2-1 3-1 3 2 2 1 2-1 2v2c1 1 0 3-3 4-1 2-3 2-4 2l-3-1-1-2v-2l-1-2v-2l-1-4-1-2v-2-1l-1-2v-2l-1-3v-2-2l-1-3-3-3-1-3v-4-3-4l-1-4v-2l-1-3-1-5 2-4 4-1 6-2 4-1 2 1c4 0 6 2 7 3a54 54 0 0 1 4 14v3l1 1 1 1 1-1v-3-3-1l1-2v-5l2-2 1-2v-3l1-2 4-4zM295 587l2 2h2v8l-1 3-2 2-3 1-2 1-2 1h-4l-1 1-1-1h-3l-3-5v-5-2l1-1 1-1h1l1-2v-10l-1-4-2-8-1-6-1-6v-2-1l-2-1-3-1-1-4-1-5v-3-2l1-2 2-2h14l3-1h4l2 1v5l1 3 1 5-1 3-2 1h-1l-1 1v9l2 16 1 12zM301 536c1-2 3-4 5-4l3-1 2-1 4-2h7c3 0 5 1 8 4l4 5 1 6 1 6 1 3v3l-1 3-2 1h-4l-1 1-3 1-3-3-1-4 1-2v-2l-2-1-3 1-1 4v6l2 3 1 1h4l2 1 3 1 1 2h2l1 1 1 8v7l-1 6c0 2-1 3-2 3l-2 2v1l-1 1-3 3-5 1h-5l-2-1-3-3-1-1h-2l-2-1-1-1v-3-3l1-2 3-2 3-1v-1l1-1h2l1 2 1 2v3l3 2c1-1 2-2 2-5l-1-2v-2c0-3-2-5-5-6l-3-2-3-1c-3-2-4-4-5-7a72 72 0 0 0-3-6l-2-1v-4-3-3-3-3c0-2 0-4 2-6zM338 541v-5-6l3-3 4-1h3l3 1 3 1 6-1h5l4-1h5c2 1 2 3 1 6v11l-1 2v1l-1 2-3 3-1-1h-1l-5-1-3 1c-2 0-3 1-4 3l1 3 1 1h10l1 1 2 1v5l-1 3v2l-1 1c-1 1-2 2-3 1l-2-1-6 1-1 3v6l2 2 3 1h3l2-1 4-1 3 2v6l-1 4-2 2-3 1h-3l-2 1-2 1-3 1-1-1-5-1c-1 1-3 0-4-1l-2-3v-4-1-2c-2-1-2-3-2-5v-2-2-2-2l-2-1-2-3v-6l1-4-1-3v-4-3l-1-3v-3l-1-2zM416 531v20l-3 2-2-1h-2l-3-1-2 3v15l1 4 1 3-1 1v1l-1 1h-1l-1 1 1 7-1 5-1 3-4 2-3-2-1-5v-5l-1-3-1-2-1-2 1-4-2-3v-4a36 36 0 0 0 0-10c0-3-1-4-2-5l-3 1-2 1h-2l-1-1 1-3v-2-2l-1-1-1-1-1-5 1-7v-3l1-3 1-1c2-2 4-2 6-2 12 1 19 2 20 1h2c4-2 7 0 8 7zM451 595l-1 1h-4l-2-1-1-3v-1-3l-2-2v-2-2l-1-3v-3l-2-1-2 1-1 1-1 2h-5l-1 3-1 2v4l-1 2-1 3h-2l-3 2c-2 1-4 0-5-1v-3l-1-6v-3-4-3-2-2l1-2v-2-3l1-6v-3l2-3 1-4v-3-2l5-16 2-2h7l2-2 2-1h2l3 1 4 2 1 2 1 2 1 3v13l1 3v7l1 2c1 2 2 4 1 6v2l1 2-1 2v4a64 64 0 0 1 1 9v9c0 2 0 4-2 4zm-14-39v-4l-1-4v-2l-2-1h-2l-1 4-1 3v3l-1 4v4c1 1 1 2 2 1h3l2-1 1-1v-2-4zM458 529c1-2 3-3 5-3l3-1 3-1 4-1h5l2 1c3 0 5 2 8 5l3 5v12l1 3v3l-2 3-2 1h-4-1v1h-3l-3-3v-5l1-2v-1l-2-1h-2l-2 4-1 2v4l1 4 2 1h4l2 1 2 2 1 1 1 1h1l1 1v11l-1 1v3l-1 6-3 3-2 1-1 1v1l-4 2-5 1-4-1-3-1-2-3-2-1h-2l-2-1v-2-2-3l2-3 4-1 2-1 1-1 1-1 1 1 2 2v4c0 2 1 3 2 3 2 0 3-2 3-4v-4c0-3-1-6-4-7l-3-2-3-2c-3-2-4-5-4-7l-1-5-1-1-1-1-1-1v-4l1-3v-3-3-3l3-6zM139 542c9-1 17-4 25-6 2 0 3-3 2-3-5-3-6-8-9-12l-16-19-11-15-5-8-10-17-9-14-13-28c-6-13-8-26-10-39l-5-39v-16l2-32a227 227 0 0 1 35-101l13-17c6-7 11-14 19-19l12-11a252 252 0 0 1 109-49c12-3 24-3 36-3a211 211 0 0 1 91 16c18 8 32 20 47 31 10 8 16 19 25 29l16 22c12 17 20 35 30 53l1 5c1 11 7 22 8 34l2 24c1 21-1 42-5 62a266 266 0 0 1-45 108l-10 14-3 5c-2 3 0 4 3 5l-1-1h1c-1-3 2-3 4-5 12-9 17-24 25-37 14-21 19-35 26-59 6-22 12-42 13-65 0-18 1-35-3-52s-6-30-12-46c-9-21-10-26-24-44l-22-30-12-15-18-17c-6-5-14-14-21-17-17-8-26-15-45-19-14-3-32-8-46-8-8-1-22-3-30-2l-29 3a263 263 0 0 0-123 59l-32 33c-19 19-30 51-37 76a277 277 0 0 0 0 141c5 21 10 31 16 45 7 14 15 26 23 39 11 17 16 23 27 36 4 4 9 8 12 14-18 3-35 7-51 12l2 6 32-7z"/>
    <path d="M484 414a254 254 0 0 0 17-118c-4-17-7-34-13-50l-10-26c-9-14-18-29-28-42-8-10-16-20-26-28l-16-14c-12-9-26-14-40-18l-28-8c-11-3-21-4-32-3-16 0-32 4-48 7-17 4-34 10-50 18-11 5-20 11-30 18-13 8-25 18-36 30l-10 11-6 8c-9 14-15 29-19 45-5 17-6 33-7 50a235 235 0 0 0 1 55 262 262 0 0 0 40 123l8 11c11 14 22 27 36 38l11 11 7-2 28-5 25-5 54-4c16-2 32-1 48-1 18 0 41-4 59-4h10c3-1 0-4 2-5v-1c9-10 16-22 23-35l11-20c8-12 14-24 19-36zm-37 53l-12 19-11 15c-2 2-3 2-5 2-13-2-26 2-40 2h-31l-41 4-48 5c-18 2-31 3-47 8l-10 4c-2 1-4 0-6-2-9-11-20-16-28-27-11-14-15-17-25-35-4-7-10-17-13-25-6-17-11-31-14-49l-5-29-1-10-1-9c-2-15-3-28-1-43l7-50c2-8 9-28 14-36 7-13 16-21 26-31 8-9 13-15 23-21l30-18c12-7 27-13 40-16l43-10c10-3 27-3 37-2l25 6a160 160 0 0 1 72 40c10 10 17 18 25 30l19 27c13 20 16 42 22 69 4 15 4 24 5 39 0 13-1 24-4 36l-5 16c-3 20-12 35-19 54-5 14-14 24-21 37z"/>
    <path d="M142 657l-4-3c-8-3-12-9-16-16-1-4-1-4-4-2l-13 5c-21 5-42 8-63 8l-11-1c4 4 9 8 14 10 19 7 38 14 58 18l14 2c3 0 6 0 9 2l2 2-2 3-15 8-32 14-1 1h5l42-2c14 0 28-2 42-6l21-6-2-3c-16-10-30-22-44-34z" class="st4"/>
    <path d="M221 639l-9-7c-16 1-29 2-45 6-7 1-20-2-27 0-8 3-8-1-9-4l-7-28-14-50c-2-5-1-6 4-8l23-5 22-7-3-6-12 3-32 8-9 2 2 13 6 32 9 35c1 3 1 4-3 5l-16 2c-23 7-46 9-69 11l-19-1 10 11c8 10 19 17 31 21l23 8 17 4 3 1v1l-48 21 15 8 4 1c8 2 15 2 23 1l37-2a161 161 0 0 0 71-20c3-2 3-3 1-7l-2-3-2-22-2-19 13-3 14-2zm-57 61c-14 4-28 6-42 6l-42 3h-4l-1-1 33-15 15-8 2-2-3-3-8-2-14-2c-20-3-39-11-58-18-5-2-10-6-15-10l11 1c22 1 43-3 63-8l13-5c4-1 4-1 5 2 3 7 8 13 16 16l4 3 43 35 2 2c-7 2-13 5-20 6z"/>
    <path d="M492 607v-15c-6 4-7 3-11 9-1 2-5 4-7 4-8 0-14 2-22 1h-43l-50 3h-5v-9c-4 2-6 5-8 7l-4 4c-4 1-6 0-8-7-4 8-10 8-17 8-16 2-33 5-50 6-19 2-39 4-58 9h-5c-1 0-11 3-17 3-1 0-3 2-6 1-3 0-5-2-7-5l-2 5c-1 3-6 4-8 4l-25 4-2 1 5 12 17-3 34-5 31-5 18-3c11-4 22-4 33-5 12-2 26-1 38-5h3l59-5 46-3 26-1 48 2 1-12h-4zM464 501v1c4 4 9 6 15 6l25 2-1-6c-15-1-25-4-39-3z"/>
    <path d="M482 649c4-8 8-5 11-13l11-19 4-5c2-3 2-4 2-7l-1-8v-22l3-17c2-18 5-23 5-44l-1-5c-1-3-2-4-4-4-8-2-15-1-22-2l-20-2s-1 3 8 3c2 0 2 4 5 4l20 2h8l-1 12-8 43c-2 9-2 28-2 37l-1 4h-8c-15-3-29 1-43 0h-12l-1-11c-5 2-5 3-6 7-1 3-9 3-21 4l5 11h21l13 1c3 0 4 1 5 5l4 17 5 17c3 9 7 9 8 10l12-15 1-3z"/>
  </g>
  <g>
    <g id="CORES_MENINA_1_">
      <path fill="#4d87c9" d="M472 352l12 2 10 5-16 45-21 47-18-12 8-55z"/>
      <path d="M117 444l29 29 32 32 10-19-18-39-40-16zM291 330v19l16-1 14-7-4-8-2-7 35-9h5l11 4-2 14-21 28-78 10-33-18 3-14 24-9z" class="st16"/>
      <path fill="#f9ed38" stroke="#ce7fac" stroke-miterlimit="10" d="M141 290v12l3 5 9-2 9-11 1-25-7-20-12-17-5-21-1-10 3-12 3-7 5-7 4-4 3-2 2-9 4-12 11-13 11-15 11-6h11l8 1 5-4 8-8 11-9 11-5 12-4 8-3h16l7 2 4 2 6 6 2 6 10 2 9 2 14 6 8 10 3 11-2 7-2 10v3l1 5 3 10 6 17 2 3 11 16 5 5 17 16 18 24 7 20v18l-5 14-7 8-8 7-16 1-12-5-34 12-14 5-28 6-44 8-31 5-6 7-11 10-13 7-14 1-13-3-5-8-7-3-6-6-12-6-11-16 3-10 3-8 7-9 6-7z"/>
      <path fill="#cf7fad" stroke="#ce7fac" stroke-miterlimit="10" d="M193 220l-8-4-6-6-9-9-9-16-4-18 2-15 11-14 9-13 13-8 14-3 8 1-12 14-13 19-8 17-1 13v10l3 11 4 11 4 5 2 4 2 1z"/>
      <path id="ROSTO_1_" fill="#fff" stroke="#ce7fac" stroke-miterlimit="10" d="M355 205l4-2 7-3-3-6-4-8-8-2-7-2-3-2 1-3v-7l-1-7-5-10-7-7-12-5-3-8-3-6-7-7-3 16-10 17-9 7 2-8 1-8v-7l-1-5-1-6-3-3-3 18-8 20-9 11-13 11h-3l-5 6-7 5-5 2-2 4 2 19 9 13 6 11 2 4-1 5-2 8-1 4 2 4 6 4 7 2 6-4 2-1 4 2 7 6 8 9 5 8 1 1-1 4-3 9 5 6-1 13 5 2-3 11 5 8 11-1 12-4 1-8-4-7v-8l-2-16 1-11-3-3 8-7 7-2 4-2 10-7 9-7 11-3 6-7 3-5 3-7v-7z"/>
      <path d="M251 202l10-2 16 2 7 11-2 13-3 5-9 1-12-2-7-6-3-8zM303 173l6-11 17 2 7 9v9l-3 6-5 4-2 2-11-10z" class="st20"/>
      <path fill="#60a5da" stroke="#ce7fac" stroke-miterlimit="10" d="M130 431l16-14 14-15 11-16 10-17 13-4 14-12 8-11h7l14 3 2 7 6 4 7 6 22 5h20l19-5 19-6 19-9 7-11 4-6-11-17 4-3 7-2h6l40 20 51 19 13 4-13 42-19 46-21-13-17-12-4 2 19 29 5 15-6 24 11 19-5 5-167 10-32 6h-1l6-38-3-7 7-17-2-11h-5l-38 36-26-28z"/>
    </g>
    <path d="M348 497zM254 386l16 16a1223 1223 0 0 0 32 26c6 3 12 7 19 9l7 2 10 4 2 1v-1l-2-1-9-5-18-12-9-6-24-20-19-16-8-8-8-4h-2l3 3 10 12zM352 503zM351 505h1v-2l-1 2zM353 500l-2-1 2 1c-1 1-1 0-2-1v1c-1-2-2-2-3-2v1l-2-1 2-1-2-1-7-4-26-20-2-2-25-23c-5-4-9-10-13-15-9-10-16-21-23-32l-5-9-2-2 4 11c7 15 15 29 25 42l22 26 11 11 19 14 3 2 4 2 3 2 4 2 3 1 4 1c1 0 1 2 2 1h2l3-1 1-1v-2zm-5 2v-1l2 1h-2z" class="st3"/>
    <path d="M358 503c-1 0-2 0-3-2h2-2l-3 1h2l1 2h3v-1-2 2zM280 187c2-2 4 0 6-1l-2-2c-2-2-5-2-7-1-5 0-10 2-14 4-5 2-9 5-12 8l-4 4c-2 1-3 4-2 6 0 7 2 12 5 18l4 6c2 3 6 5 10 5l9 1c7 0 13-4 18-10l3-4c1-4 2-9 0-13-4-8-7-16-14-21zm-3 42c-4 2-8 2-12 1-8 0-13-5-15-12v-2c1-6 4-11 10-14 5-2 9-1 12 3 4 3 6 8 6 13 1 4 2 8-1 11zM296 166l2 4h-16l1 2 4 1h9c2 0 4 0 6 3l6 6c6 6 11 12 17 16 2 2 3 3 3 6l1 1c2-1 2-3 2-4 1-2 0-3-2-4l-3-3h1c5-4 8-8 9-14l1-6c0-9-3-16-9-22l-6-3c-3-2-6-2-10 0l-3 2c-6 4-10 9-13 15zm20 0l5 1c3 2 6 6 7 10 2 3 1 7-1 11l-4 4c-6-6-13-11-18-18 2-5 6-9 11-8z" class="st3"/>
    <path d="M322 200a129 129 0 0 0-20-22l-3 1 1 11v23c0 3 1 5 3 8l5-1c4-2 6-6 4-11l-1-4 1-2 3 2 3 3c2 1 4 0 5-1s2-3 1-4l-2-3zM259 211c-2 0-3 2-4 4 0 2 1 4 3 5s5 0 5-2l1-2c-1-3-3-5-5-5zM315 173c-1-1-2 0-3 1v4c1 2 3 4 4 3 1 0 3-2 2-5 0-1-1-3-3-3z" class="st3"/>
    <path d="M436 485l-1 2-12 14c-1 2-2 2-4 2-13-2-26 2-40 2h-31l-41 4-48 5c-18 3-31 3-47 9l-10 3c-3 1-4 0-6-2l-2-3-7 1 11 10 7-2 28-5 25-5 54-4c16-2 32-1 48-1 18 0 41-4 58-4 6 1 6 2 11 0 3-1 0-4 2-5v-1c6-6 11-14 15-21l-10 1z"/>
    <path d="M497 357h-4l-10-5-7-1h-1v-3l-5-1-4-2-18-6-25-8-21-9-14-6-3-2h10l2-1 8-7c3-3 6-7 7-11 3-5 5-10 5-16 2-13 0-26-8-37-6-11-15-19-24-28l-15-14c-5-5-7-12-12-17l-1-1c-5-10-9-21-11-32v-6c3-5 4-10 3-15v-6c-1-7-4-13-10-16l-8-4c-5-3-12-4-18-5l-7-1-3-6-2-3c-4-4-9-6-15-7-11-1-22 0-33 4l-11 4c-8 4-15 9-22 15l-9 7c-7-2-12-2-18 0l-9 5-9 9-8 11c-7 8-12 16-12 27l-1 4-2 3c-5 5-9 10-12 16-3 8-4 16-3 24l2 12c2 6 4 12 8 17l4 7c7 10 10 21 10 34-1 6-2 12-5 18-2 4-5 7-9 7-5-5-6-6-5-12l1-4v-2c-2 0-3 2-4 3-7 5-13 11-18 18-5 6-8 14-6 22 1 6 4 12 9 15l8 3c3 2 6 3 7 6 3 3 6 6 10 7h1l2 4c2 2 3 4 6 5l8 2 12 1h1l-2 2-10 14c-4 7-10 13-15 19l-9 9-14 10c-1 0-2 1-2 3l-2 3-8 8c-2 2-2 6 0 8l9 9c5 4 11 8 15 13l3 2 12 13 9 11 9 10 3 1 2-1 3-4 6-13 4-2 7-7 21-22 6-6h1c1 4 2 9 0 13l-3 9c-1 3-2 7 0 10l1 6-2 8-2 18v3l-2 5 7-1 4-14 1-6v-11l-1-6c-3-8-3-6 1-15l3-4c2-2 2-5 1-8l-3-12-12-36-9-28-3-8-1-1-1 1 7 27 4 13c2 4 1 7-2 11-5 4-10 5-16 7l-14 3-3 2 11 3 4 1c7 3 14 2 20-4l2-1-1 2-7 7c-4 4-9 7-14 9l-6 5 14-2 13-5-5 6-18 18-8 8-3-2-7-9c-11-13-23-25-35-36l-10-8 1-1 1-1 13-10c6-5 11-11 16-18l8-11 4-5c3-4 6-8 7-13l3-1 14-7 11-11 5-7c5 4 10 1 15 0l5 3 3 4c1 3 4 6 7 8l11 5 15 5h11l18-3 6-1c10-2 20-5 29-9l16-10 10-13 3-4c1-2 0-5-2-7l-6-8 2-3c2-2 5-2 8-2l2 1 13 6 7 4 28 13 37 13 17 5-8 25-10 24-5 11-7 20-1 3h-2l-24-15-3-3c-6-3-11-8-13-15v-1 1h1l12 15 4 2 11 7h6l4-4c-5-5-10-10-16-13s-11-7-16-12h3l7 2c7 1 13 0 18-5l8-5 4-3c-1-2-2-1-2-1l-10 1c-7 1-14 0-22-1l-9-1c-4-1-8-3-11-6-2-1-3-2-3-4l-6-17a262 262 0 0 0-11-29l-1-1v2l2 11 5 22 8 27c6 15 13 28 21 42l9 16 6 9v6l-5 17c-1 4-1 7 1 10l9 17 6-1-9-16c-2-4-2-8-1-11l2-4 2-8c1-4 2-9-1-12v-2c-1-5-4-9-6-13l-11-20-1-2 2 1 21 14 11 7 1 1 6 4 10 8 3 1 3-4 4-9a432 432 0 0 0 22-54l2-4 2-7 5-15v-4zm-273 87c1 1 2 2 1 3-2 2-3 4-6 5l5-8zm-38 45l-8 13-5-5c3-4 5-8 6-13l7 5zm-11-11l3 4-7 13-1-2-6-6 9-12 2 3zm-13-16l9 10-9 12-10-10 10-12zm-3-3l-10 11-8-7 6-6 4-6 8 8zm-11-11c-1 4-5 8-10 12l-9-8 5-6 4-6c4 2 8 5 10 8zm-12-10c-2 5-6 7-10 11l-3-3-3-2 6-7 3-4h1l6 5zm169-312l1-3 2 2a55 55 0 0 1 7 16c0 2 1 2 2 3l6 2c12 5 17 15 18 28v6c3-2 3-5 3-8 0-8-3-16-9-23l-1-1c2-4 3-9 3-14l-1-6c-2-7-6-13-12-18-3-2-7-4-12-4l3 3c5 1 8 4 11 8l5 11 1 16v2h-1c-4-3-8-4-12-5l-6-13-5-6-1-4v-17-1h3l23 9c6 3 9 7 10 13 1 5 2 10 1 15l-2 12v2l4 16 6 15 1 1-12-3v2l9 4h5c2 0 4 2 5 4 2 2 3 5 3 7-2 3-4 5-7 6l-11 4-4 3c-2 1-3 3-3 6v3l-3 3c-1-3-1-3 1-10-2 2-3 3-4 7v8l-4 2c-1-5 1-9 2-14-3 3-5 9-5 17l-3 1-1-1v-5l1-6c-3 3-3 3-4 14-4-2-8-5-14-3l2 1 7 2 3 2-3 3-6-3c-3-2-7-2-10-1 1 2 3 1 5 2l5 2 4 3h-4l-1 2h-2c-4-5-9-6-15-5l1 1c3 1 6 1 8 3l1 1-3 1-1 8c-1 2-3 1-5 1-2-2-1-4-1-6 1-2 4-1 6-3l-6-1-7 1c-7 3-13 6-17 13l-10 11c-2 2-5 3-7 1l-5-3c-2-2-2-4-2-7l1-2c3-5 3-11 1-17 0-3-2-5-4-8l1-6-3 1v-1l1-6-5 2v-3-7c-1-1-2 1-4 1 0 0 1 0 0 0 2-4 2-6 2-11l-4 1v-6l1-2 2-1c4-2 8-5 11-9l5-3c3 0 5-2 7-3l13-13a89 89 0 0 0 15-36v-6c2 2 2 5 2 8v11c0 4-1 8-3 11-2 5-4 9-8 13v1h3l9-7c4-4 8-8 10-12l8-13 3-12zm42 196l-7 4-17 4-4 1-2-4 11-2 9-2 11-2v-1 1l-1 1zm-27-38l1 1c1 7 1 14-2 20l-2 3v1c-2-1-2-1-1-2 3-4 4-9 4-13v-10zm18 3v6l-3-4-1 4c0 3 0 6-2 8l-1 1v2h-1 1v-2l1-4c0-5 0-9-2-14l-1-2 3-1 6-4 6-6 3 8v7l-2 4-1-7c-2 0-1 2-1 3l-1 3c-1-3-1-6-3-8l-1 6zm0-17l-6 6c-2 3-5 4-8 4l-5 1-13 10-7 5c-2 2-4 2-6 1l-4-4-10-11c-4-5-7-9-13-13l2-4 2-5c5 0 9 3 12 7l6 10c2 3 2 3 6 4l11-9 7-7 4 6c1-3-1-4-1-7h4l2-2 4 5-2-8 6-3 4 6c1-3-1-5-1-7 3-2 3-2 5-6l4 4v-4l2-2 1-2 4 3-1-5c2-1 3-4 3-6 0-3 1-4 3-5l3-2 3-2-10-18 4-2h1v1l17 28-3 10-2 4-4 6-3 3-5 1c-6 2-11 4-16 9zm-44 43l4-1c3 0 6 0 9-2l5-1v9l-2 2c-1 1-2 0-3-1l-1 3c-2-1-1-3-3-3l-3 5-9 1 3-12zm-7-4c0-4 2-7 3-11l4 3c4 2 8 2 12-2l3-3 2-1-1 7c-1 1-2 3-4 0-1 2-1 4-4 4l-1-2-1 1c-1 3-3 4-5 4h-8zm8 19l3-1 10-2h4l1 9-3 2-2-4h-1l-2 5-1 1-3-4-1 3-6 3h-2c0-5 2-8 3-12zm46-95c3-3 3-3 5-3 0 3 3 6 1 10l-2-1c0-1 0-2-2-3l-2-3zm1 12l-1 1h-1l-5-5v-1l5-3c2 3 3 6 2 8zm-2-15c-2-3-3-5-2-9 4-1 5 3 7 4l-5 5zm-1 4c-1 2-3 2-5 3-2-2-3-4-3-7 0-1 1-2 2-1 3 1 5 2 6 5zm-6 19c-3-1-5-4-6-7l6-2v9zm-1-12l-5 3-2-3-1-6h2l5 4 1 2zm-7 16c-3-1-4-3-6-5l2-2 3-2 1 9zm-7-7c-2-2-2-4-2-7 0-1 0-2 2-2 2 1 3 3 4 6l-4 3zm-2 3c2 3 3 6 2 9-4-1-5-4-7-7l4-2h1zm-8 1c-1-3-2-6 1-10 3 2 5 4 6 7l-7 3zm0 1v10l-2-1-5-6 7-3zm-6 1h-3c-2-1-2-2-2-3v-6c2-1 4-1 5 1l3 5c0 2-1 2-3 3zm-2 3l4 6-3 2c-3-2-5-5-6-9 3-1 4-1 5 1zm-141-94c0-4 2-8 3-11l7-11 8-11 5-5c5-5 11-8 18-9l7-1-3 4-8 10c-6 7-11 15-14 24-2 6-4 13-4 19v7l4 17 3 8c2 4 4 9 7 12-4-1-7-3-9-6l-10-11c-10-10-14-22-14-36zm57 161l-1 7c0 6-3 10-6 15-4 5-8 10-14 13-6 4-13 6-20 6l-7-1-4-1-5-6 6-4c11-6 19-15 24-26l4-10 2-8 1-14 1 8c0 12-3 24-9 34l-8 14c2-1 4-1 5-3l5-5 4-6 2 1-1-1h1v1l-6 12h3l5-6 7-14 1-1-1 1v4l-3 8h2c4-4 7-8 8-13l3-21v-6l1 3c1 6 2 12 0 19zm-10-50l-4-8 2 10 2 9 1 10c-2-2-2-4-2-6l-1-4-2-6-1-5-2-5c-1 7 1 14 1 22l-1-5-1-4-1-5c-2 4-1 8-1 12l-1-4-1-10-2-8-1-6-2-8-7-15-1-2h1l5 3 11 15c5 6 8 13 10 20l1 3-3-3zm2 26l-1-1h1v1zm29 24c-3 5-6 9-12 11l-7 2 1-8 1-6c0-3 2-6 4-9v-1h1l-1 1v6l2-2 4-7 2-1-1-1h1v1l-1 2-2 10c1 1 1 0 2-1 4-5 7-11 8-18 1-11-1-22-6-33l-1-1-15-19v2l6 11 1 2v0h-2l-4-5-4-3 1 2 5 11c3 6 5 12 6 19l-7-15-4-8-2-2 1 3 3 14 4 19-1 5-2-14-8-22-3-6c-4-10-9-20-18-28l-10-9c-4-5-8-9-11-15l-1-1a127 127 0 0 0 3 11l2 6c-6-5-11-9-13-16l-4-14v-2h-1v14c1 9 6 17 12 24l11 12a44 44 0 0 1 12 21l3 19c1 7 0 14-1 20l-1 6c0 5-2 9-4 13l-3 4c-7 10-16 18-27 23-4 1-8 1-12-1l2-1c4 0 8-1 12-4l3-2c7-3 12-10 17-16l2-3c3-5 5-11 6-16 3-13 3-26 0-39-2-5-3-10-6-14l-1 2 1 6 1 9-3-6-3-5v2l1 11a396 396 0 0 0-1 0l-4-10v2l1 13c1 6 0 11-1 16-1 9-5 16-10 23l-3 3 3-1c4-1 7-4 10-7l1-2h1l-1-1h1v1h-1c-2 6-6 11-10 17 4-1 4-1 13-9l-1 3-9 11-1 1c-3 5-8 7-13 8l-6 1h-8l-8-4-5-5c-3-6-4-14-1-21 3-8 8-16 15-22l1-1-1 10v2c-1 5 2 8 7 7 7-1 12-5 15-11 4-5 5-11 5-17 1-15-3-28-11-39l-3-5c-5-6-8-14-10-21a50 50 0 0 1 6-40l6-7 1 2c0 6 2 11 5 16 4 7 8 12 14 17l4 4c4 5 9 8 14 11l5 1-2-4c-4-4-6-8-8-13-4-10-6-20-5-31l5-18 12-18 5-6 11-12 10-11 6-5 9-8 14-7c6-3 12-5 19-6 6-1 13 0 19 2 4 1 7 3 9 7 2 6 2 12 2 18l-1 9c-2 13-7 24-15 35l-1 1-1 1v-3c2-8 2-16 0-24l-2-8-4-5v6l-1 12a228 228 0 0 1-15 32l-11 12-4 3 1-3c6-10 10-20 12-31 1-8 0-16-3-23l-1-2-1 1c1 8 0 17-1 26l-1 1-7 22c-3 8-8 15-14 20l-1 1 1-3c4-8 8-16 10-24 3-12 5-23 2-35 0-2 0-3-2-4v2c1 9 1 18-2 27-2 10-5 19-10 28l-7 12-5 6c-2-2-2-5-3-7 3-2 4-6 6-10 1-4 4-9 4-14l1-6v-13l-2-10-1 8a82 82 0 0 1-9 39h-1c-2-2-2-2-2-5-1-9-2-18 0-27l1-4v-1l-1 1-4 14v19l3 9a130 130 0 0 0 24 40l7 11 1 3-2 8c-3 7-1 12 6 16l5 2c4 2 7 1 10-2l3-2a122 122 0 0 1 12 10c2 3 3 6 6 8 2 2 2 5 2 8l-1 1-1-2-5-10-3-3c1 6 4 12 4 19l-4-10-8-10 1 4-1 2v4l3 13-1 13-2 2 1-12-2-12-3-12v27l-1 3v1h-1l1-1v-5c0-7 0-14-2-21l-3-5c1 8 2 15 1 22l-1 1c0-7-2-13-4-20l-1 1c1 11 0 22-3 32l-3 5-1 1v2c-1 2-1 2-3 2l1 1-1-1 2-1v-1h1v-2l1-4c3-9 3-19 1-29-3-11-8-22-15-32l-12-16c-2-4-5-6-8-9l-4-4-2-1v1l4 6c11 12 20 26 27 41 5 10 7 21 6 32l-2 7-3 9zm4 27c1-3 4-5 6-7h3l7 3-6 10c-4-1-7-3-10-6zm27 4l-2 6-4-1-7-2 3-5 2-6 9 2-1 6zm15 6l-12 1 1-6v-6l13 1c0 4 0 6-2 10zm-9-22l-15 2h-7l-2-1h7l5-2 20-5 8-2c0 3-1 4-3 5l-13 3zm25 21h-11l1-4-1-4 11-2v10zm1-18h-1l-1-1 1-1c2 1 4-1 6-1l10-4c2 1 2 2 2 4-6 2-11 3-17 3zm3 17l-1-10 12-2 2 9c-4 2-8 3-13 3zm16-3l-3-10c2-2 4-1 6-2l6-4 5 10c-4 3-9 4-14 6zm24-11l-8 4-5-10c3-1 5-2 6-4l5-3 8 8-6 5zm17-17c-2 3-4 7-7 9l-8-7 5-5 6-7 4 10zm11-33l5-13v-1c-1-7-1-15-3-21l-2-3v16l-3-8v4l-1 8c-2-3-2-7-4-9v13l-2-2-2-6-2-2c1 8 2 16 1 24l-1 4-1 1c1-12-1-23-4-35l6-2 5-1 4-5 4-10c0-1 1-3 3-3l2 7 3 27c-1 8-4 14-8 20v-3zm6 13c-3 1-4 0-6-1 0-2 2-1 2-1 9 0 16-3 22-9 6-5 9-13 10-21 1-10 0-21-5-31l-1-1v3l-2-2-2-5-1-3v7l-2-3-5-10v3c2 4 3 7 3 11l1 1-1-1-2-4-5-8-2-2 4 14c-3-4-5-9-9-13l1 5 2 3 2 5c-2 0-2-2-3-3l-2-4-5-8-6-11-7-11-1-3 10-5 4 5 9 8c8 8 15 15 20 25 3 5 6 11 8 18l1 8 1 10-1 8-5 13-6 7c-2 3-5 4-8 4l-13 2zm79 139c-4-2-9-5-13-10l2-5 1-2 12 6 2 2-4 9zm8-15l-2 4c-4-5-10-5-15-9l6-14 15 8-4 11zm6-17l-16-5 5-14 15 7-4 12zm6-17c-4-4-10-4-15-6l6-16 15 5c-1 6-4 11-6 17zm9-24l-15-3 3-9 15 4-3 8zm6-13l-8-3-9-1 1-4c8 1 13 2 17 5l-1 3z" class="st3"/>
    <path d="M280 515l4-1a88 88 0 0 1-18-37l-11-33-8-22-4-14-9-25-3-5h-2l2 9 4 26 3 13 5 24c4 16 10 30 20 43l11 14 6 8z" class="st3"/>
  </g>
  <g id="MOLD_QUADRINHOS_1_">
    <path d="M971 573l2-43 10-56-26-5-42-6-11-5-2-2 8-9 17-22 31-53 22-80 1-52-6-44-31-65-28-39-38-37-60-26-67-8-71 10-65 30-37 32-35 38-18 43-7 25-6 21-4 34 3 72 19 53 22 44 33 45v6l-45 10-38 7 11 67 9 38 68-10 81-6 68-8h58l71 1 58 5 37 3z" class="st1"/>
    <path d="M628 475l-19-21-24-30-20-37-16-52-7-47 2-16-1-40 12-58 22-47 29-31 45-28 56-19 57-9 26 2 46 18 43 29 29 38 21 33 12 35 10 52-1 47-11 42-21 47-17 29-21 30-16 21-99-1-46 2-48 2z" class="st2"/>
    <path d="M930 368c10-21 17-44 22-67 3-18 5-36 3-54l-10-53c-3-9-5-19-10-28-8-15-16-31-26-45-8-11-15-22-25-31l-16-15c-12-10-26-16-40-22l-30-10c-10-3-21-5-32-5a277 277 0 0 0-104 21c-11 4-22 10-32 16-14 9-27 18-39 29l-11 12-7 7c-10 14-18 30-23 46-5 17-8 34-10 52a246 246 0 0 0-2 58 273 273 0 0 0 42 142c10 15 21 29 34 41l12 12 8-1 29-4c8-1 17-3 26-3l57-2c16-1 33 1 50 2 18 1 42-2 60 0h11c4 0 0-4 2-5l1-1c10-10 18-22 25-35l13-20c9-12 16-24 22-37zm-42 54l-13 19-13 15c-1 1-3 2-5 1-14-2-27 1-41 0l-33-2-43 1-50 3c-18 2-32 1-49 6l-11 3-6-3c-8-11-20-18-28-29-10-15-14-20-23-39-4-7-10-18-12-26-6-18-10-33-12-52l-3-31-1-10v-9c-1-16-2-29 2-45 3-17 5-35 10-51 2-9 11-30 16-37 9-13 19-21 29-31 9-8 14-15 25-20l33-17c13-6 29-12 42-15l46-7c10-3 28-1 39 0l25 8a160 160 0 0 1 72 46c10 11 17 20 24 33l18 29c13 21 15 45 20 73 3 16 2 26 2 41-1 14-2 25-6 37l-7 17c-4 20-14 36-22 54-7 14-16 25-25 38z" class="st3"/>
    <path d="M567 545l-1 8v1l3 5 3 1 1 3-1 2-1 3-4 4-3-2-3-2-1-1-2 1-1 2c-2 2-4 3-7 3l-3-1-2-1h-2l-2-1-4-7a99 99 0 0 1-4-9l-3-2-1-6-1-3-2-2c-2-2-2-4-1-7v-8-12l2-8 3-4 2-1 2-1h1l2-1 2-1 2-1 3-1 2 1h6l5 3 2 2 2 2a29 29 0 0 1 5 10v4l1 2 2 9-1 4v6l-1 6zm-18 3l-1-4 1-2 1-2h2c2-3 1-6 0-7l-1-3a19 19 0 0 0 0-6l-1-1v-1l-1-1-2-1-3 1-1 2-1 2v10l1 6 1 3 1 2 1 2 1 2 1 2 1-4zM588 502l1 11v3l1 2v7a19 19 0 0 0 1 9h1v3l2 2c1 1 1 2 2 1 1 0 2-1 2-3v-7l-2-7v-5l-1-7a53 53 0 0 0-2-16v-3l3-2h6l2-1h4l1 1 1 2 1 7a240 240 0 0 0 4 26v17l-1 4v2l-1 6-2 6-2 1-2 1-1 1-1 1-3 1h-1l-1-1-2-2h-1l-3 1c-4 2-8 1-10-2-3-2-4-5-6-9a112 112 0 0 0-6-16v-4-7l-2-5-1-3-1-9v-5-4c0-3 1-5 4-5l3-1h3l3-1 4 1 3 9zM660 558l-2 2h-2l-1-1h-1l-2-1-1-2v-1l-1-3-2-2v-2l-1-2v-1-2l-1-3-2-1-2 1-1 1-1 2-2 1-3 1-1 2-1 2v7c0 2-1 3-2 3h-1l-3 3c-2 1-4 0-5-1l-1-3-1-6-1-3v-5-3-2-2-2-2-3-6-4l1-2c1-2 2-4 1-5v-3-2l3-18 2-2h6l1-1 2-2 2-1 2-1 3 1 4 2 2 2a77 77 0 0 1 2 5l1 2v8l1 2v2l1 3 1 3v3l2 3 1 6 1 2v4l1 4 1 7v3l1 2 1 7-2 4zm-19-38l-1-5a46 46 0 0 1-1-6c-1-1-1-2-2-1-1-1-2-1-3 1v6l-1 3v10h5l1-1 2-1v-1-2-3zM698 490l2 3 2 6v9l-1 4-1 6-1 5-1 6-1 4-1 2-2 4v2l-1 3-4 3-4 4-2 3-2 1-1 1h-1l-2 1-3 1c-2-1-3-2-3-5l-4-2-2-4v-5l1-3-1-7v-4l-1-4v-4-3-3l-1-3-1-3-1-2-1-4-1-2v-4l-1-2v-2-2l1-2 1-3a8 8 0 0 1 3-2l4 1h5a18 18 0 0 1 11-2h2l1 1h2l2 1 1 1 1 1 2 1 2 1 1 1 1 1zm-19 17l-1 4 1 5 1 5v14l2 1 1-1v-2l1-4 2-3v-3l1-1v-2-2-3l-1-3-1-3-2-1-1-1h-3zM723 535v5c1 2 0 4-1 5l-1 7-2 2c-2 0-3 0-4-2l-2-2h-1l-1-1v-1l-1-2v-2l-1-5v-3-3l-2-7-1-4-1-5v-1l1-2v-3-4l-1-5v-5l-1-6c0-5 0-9 2-10h1l1-1 1-1 2-1h3l3 1h15c4 1 8 3 10 7l2 5 1 4 1 4v8l-1 2v7l-1 3c-1 2-2 4-4 4l-1 1h-1l1 2 1 1 2 2h1l2 1 1 2v2l1 3v7l1 3-2 4-2 1h-2l-1-1h-1-1l-3-7-3-4-3-3v-3l-3-5h-2l-2 1v5zm4-19l2-3 2-2 1-3 1-6-1-3-2-1-3-1-2-1c0-2-1-3-2-2l-1 1v7l1 3v6l1 3v3l3-1zM771 536l2 1 2 1v4l-1 3v2l-1 2-3 2-2 1h-2l-3 1h-2l-2 1h-1-1l-3-1c-1 0-2-2-2-6l-1-4 1-3 1-1 1-1h2v-2-4l1-6-1-4-1-9v-6-7-2-1l-2-1-3-1-1-4v-5-4l1-2v-2l3-2h4l3 1 5 1h3l2-1h4l2 2v5l1 3v6l-2 3h-1-1l-1 1-1 10 1 17-1 12zM816 477c2-1 4 0 5 1 1-1 3 0 5 1l1 6-1 4 1 2v5l-1 7c1 4 1 9-1 14s-3 11-2 19l1 10-2 4-3 1c-2 0-4 0-5-2v-3l-1-3-1-3-4-4c-2-1-3-4-4-9a46 46 0 0 0-3-11v-2l-2-2c-2 0-2 2-2 6v5l-1 4v6l1 5-1 4-2 2-2 4-1 3h-4l-2-2-1-3v-2-2-1-3l-1-2v-3-2-6l-1-9c-2-1-2-3-2-7v-2-2-2l1-6v-6l-1-3 1-3 1-3c2-2 4-3 7-3l5-2h4l3 2 1 4 1 3 1 3c1 1 2 1 2 3l1 2 1 3 1 1 1-3v-6-6l1-5 2-2 3 1zM842 478c5-2 7-1 8 3v5l-1 3v9l-1 5v2l1 1 2 1c2 0 3-1 3-2v-3-4l1-4-1-4v-4l2-6 3-2h5c5 0 7 1 8 3l1 3v3l-1 5-1 4a236 236 0 0 0-2 26c-2 3-2 6-1 8v8c1 2 0 3-2 5l-1 4v5l-3 1-4 1c-3 0-5-1-6-3v-8l1-10v-5l-1-1-2-1c-2 0-3 1-3 2v6a220 220 0 0 1-2 19l-2 1h-2l-4-1-2-2-1-2-2-1v-2-3l1-2v-2l-1-3v-5-6l1-5v-6l-1-5v-3-4l-1-3v-4l1-4v-5-5l2-4 4-1c1 0 3 0 4 2zM878 498v-3-3l3-3a29 29 0 0 0 5-5l3-2c3-2 7-3 12-2l7 3 3 4 1 4 1 1 2 2 1 2 1 4 1 9-1 8a35 35 0 0 1-4 14l-1 3v3l-1 5-2 1-1 2-2 1-2 1-1 1-1 2-1 1-1 1-1 2-1 1c-3 3-5 3-7 0h-3-2l-2-2-2-2-1-1-1-1-2-2v-1-2l-3-13c-1-5-2-10 0-14l2-9 1-7v-3zm19 7l-3 1-1 2-1 2-1 2-1 5 2 5v8c0 5 1 7 2 7l2-2v-2l1-3 2-8v-3-10-3l-2-1zM925 489l6-3h3l4-1 4-1h2l1 1h2l2 1c3 0 5 2 7 5l3 7v19l-2 2-2 1h-2l-2-1-1 1h-1-3l-3-3 1-5 1-2v-1l-2-2-3 1-2 3v3l-1 2v2l1 3 2 2h2l1 1 2 1 2 2 2 1 1 1h1v10l-1 2v3l-1 2-2 6-3 3-2 1v1l-1 1-4 2h-6l-4-1-3-2-2-3-1-1-1-1h-1l-2-1v-2-2-3l2-2c1-2 3-2 4-2h3l1-1 1-1h1l2 3a111 111 0 0 1-1 5c1 1 1 2 3 2 1 0 2-1 2-4l1-2v-2c0-3-1-6-4-8l-3-2-3-2-4-8v-5l-1-1-1-1-1-1v-4l2-3v-3l1-3v-3c0-3 1-5 3-7zM564 481l26-5c2 0 3-2 2-3-5-4-6-9-9-13l-15-20-10-17-6-8-9-19c-3-5-6-9-8-15l-12-30c-5-13-7-27-8-41l-3-41 1-17 4-33a279 279 0 0 1 26-77l17-25 15-17c6-7 12-14 20-19l14-11a263 263 0 0 1 116-44c12-3 25-2 37-2l36 4c20 4 39 11 58 19 18 9 32 22 47 36 10 9 16 20 24 31 6 7 10 16 15 24 12 18 20 38 28 57l2 5c0 12 5 24 6 36l1 25c0 21-4 43-9 64-6 24-14 47-26 69-8 14-16 28-28 40l-11 15-4 5c-2 3 0 4 3 5v-1c0-3 3-4 5-5 13-9 19-24 28-37a273 273 0 0 0 48-126c1-19 3-37 0-55-3-17-4-31-10-48-8-22-9-28-22-48l-21-32-12-16-17-19c-6-5-14-15-21-19-18-9-26-18-46-23-14-4-32-10-47-11-9-1-22-4-31-4l-30 2a275 275 0 0 0-132 54l-35 33c-21 18-35 50-43 76a287 287 0 0 0-9 147c4 22 9 32 14 47 6 15 14 28 22 42 10 19 15 25 26 39 4 5 8 9 11 16-16 1-32 4-47 7l1 7 28-4z"/>
    <path d="M980 470c-25-6-50-12-76-12 4 5 9 7 15 8a1664 1664 0 0 1 59 10l5 1s-1-7-3-7zM948 572v-5c-3-1-7 0-10 1s-4 3-11 2c-1 0-2 0-2-5-5-1-8 0-10 1-2 2-3 3-5 3l-25-2c-15-1-29-3-44-3h-57l-1-10-7 6c-1 1-3 4-5 4-5 2-7 0-9-7-2 5-6 7-10 7-3 0-1-6-1-6s-8 6-15 7l-43 3c-21 0-42 2-62 5h-5l-3-1 1-7c-5 1-9 4-12 7-3 4-7 4-12 4l-2-2v-7c-4 2-7 4-9 7-1 3-2 4-5 4l-24 4-9 1 3 14 24-4 36-3 32-4 19-1c11-3 23-3 34-4 14-1 28 1 41-3h3l62-1a2529 2529 0 0 1 74 0l67 7 10 1 3-11-11-2z"/>
    <path d="M947 628l-1 1 4-8-3 7z" class="st4"/>
    <path d="M947 628l3-7 9-17 11-22c1-2 1-4 4-5 3 0 4-2 4-5 0-4-3-28-2-36 2-20 8-36 8-59l1-3c0-2-2-5-5-5l-22-4c-13-3-21-6-35-6l-4 7 28 4 25 4h8l-2 12-11 53c-2 9 0 19-1 28v4h-11c-16 1-27 0-42-1h-1l-1 10h3c3 0 3 3 3 7 1 6 1 12 3 17l5 24c1 3 3 5 2 8l2 4 9 5 8-16 1-1z"/>
    <path d="M514 569l-3-11 3 15v-4z" class="st4"/>
    <path d="M604 590l-2-14-44 6c-8 1-15 4-22 6-9 2-9 2-12-7l-7-30-13-51c-1-6-1-7 4-8l25-6 31-5 22-4-2-5-11-1-33 6-33 7-10 2 2 14 6 33 6 25a127 127 0 0 1 4 23l2 11s2 5 7 7l9 6c14 13 28 26 44 37l2 2 11 4 4-2c4-2 3-3 1-7l-1-4-2-22-2-21 14-2zM511 558z"/>
  </g>
  <g id="CORES_GIBI_1_">
    <path d="M550 359l6-2 5 14 4 11-5 2v1l36-24-27-23-19 14v7zM612 391l-19-11-15 17-9 10 4 3 5-3 9 15 17-15 10-4-2-12z" class="st12"/>
    <path id="PAGINAS_1_" d="M777 62l22 7 32 8 34 4h32l21-4 20-3 28-12 18-10 6-3-12 22-2 5h6l7-2-10 18 9-1 8-2h2l2 1-9 20h7l10-1-11 23h10l14-1h4l-9 12-5 7 5 1h7l3 1-11 13-2 5-112-19-76-36-50-39z" class="st7"/>
    <path d="M672 373l38 12 31 17 18 10 24 16 21 16 19 17 6 5 6 9 2 1 1-1 9-18 17-34 16-33 28-51 24-41 24-39 26-38 18-25 18-19 3-4 1-2-3-1-9-1-27-5-25-4-62-21-31-13-33-17-34-22-25-21-5 13-8 37-8 29-11 35-7 19-31 79-24 40-14 20z" class="st5"/>
    <path d="M561 308l12-4 4-6 1-12 6-6 8-6 1-9-1-9 6-6 9-9 4-11 2-10 1-12v-16l10-5 10-14 19-11 23-7 18-4 3-5-20-9 5-3h7l3-2 1-4-1-4-6-6v-7l-2-4 3-1 5 1 7-1 5-5 3 2 3 5 4 5 5 6 1 9 3 4 7-4 4-3 1-9 1-3 10 10 8 10-6 26-13 35v5l3 6 11 11 8 7 3 10 5 3 2 4 11 4 4 8h-8l-8 9-6 9 2 9 24 18 13 11-2 2-2 1-7 1-20-2-20-8-16-10-12-16-5-6-2-3-4 4-10 16v9l1 4 1 3-6 3-4 6 1 5 4 3-4 2-4 9-4 9-4 9-5 16-2 5-1 3 3 2v7l-2 7-6 5-1 12 1 9-16 11-2-1-9-11-4-5h-4l-4 8-1 11-8 5-6 8-5-4-3-5 7-11-1-14-7-13-10-11-5 4-3 7-1 9-6 4-9 5h-4v-5l-1-7-6-12v-4l7-3 8-5 10-13-4-5h-4v-4l-4-3h-11l-2 5-4 2-8 2-5 5-5 5h-7l-4-1-3-1 1-3 3-5 1-3 2-6 1-3 6-5 10-3 5-2-3-12-2-6-2-2-1-2 1-1 4-3 4-1z" class="st6"/>
    <path fill="#cf741b" d="M577 181l3 16 6 11 6 5 9 7 14 5 9 6 4 9-1 5-5 5-5 3-5-13-8-7-10-3-10-8-8-10-3-8v-9l1-6z"/>
    <path d="M638 262l3-6v-14l4-2 15-4-2 11-3 7 3 2h10l3 2-2 7 6 10 24 20 1 5 1 2v1l-6 3-4 6 1 5 4 3-5 2-9 2-5 4-1 7 3 7-3 1-11 1-6 5 1 7 4 6 1 4-5 9-3 8-1 6-3 8-3-1-1-2-1-5v-22l-2-4-7-6-3-5 3-5 2-9v-2l-2-3-4-2-3-1-1-1-1-2v-11l-4-4-9-1-5-3 3-4 3-10 7-4 5-11v-3l-1-3-2-6 11-5z" class="st13"/>
    <path d="M651 286l13-5 16-11 12-9 6-6 9-7 9 1 3 7-9 6 1 3 1 3-32 28-8 6-5 12-8-6-6-8zM700 142l-51 55 1 2 3 1 4 2-4 10-4 7 6 6 8-3 5-7 5-11 1-2 4 3 6 5 32-45 4-8-5-7-11-7z" class="st12"/>
    <path d="M781 252l4 3 8 4 18 11 9 7 12 12 3 6-2 2-4 2-4-2-3 4-12-10-2 3 3 5 7 5 1 4-4 6-9-9-5 6-16-15-12-10-11-7-2-9 14-18z" class="st14"/>
  </g>
  <g>
    <path d="M615 259zM574 324l-2 3h-1l-1-2c-1-1 0-2 1-3 3-2 3-4 1-6-4 1-6 4-6 8-1 3 1 5 3 7l4 1c2 1 4 0 5-2 1-3 0-6-2-10l-2 4zM612 338c3 0 4-1 4-6l-1-4c-2 5-2 5-7 5l1-4c2-2 2-3 2-6-4 2-6 5-6 9s2 6 7 6zM615 354c2 3 6 3 9 1v-6l-1-1-3 4h-1l-1-2v-7l-4 5c-1 2 0 4 1 6zM629 208c-2 2-4 4-5 8l4 2 3-1 1-2c-1-3-1-5-3-7zM606 276c1 1 3 0 4-1l1-3c-1-2-1-4-4-5l-3 6 2 3zM593 293l-1-1v1h1zM592 292z"/>
    <path d="M602 442l-6-6-18-29-5 3 7 10c7 12 16 22 25 32l-3-10zM556 357l-6 2 9 25 6-2-5-11-4-14z" class="st3"/>
  </g>
  <path d="M1026 156c2-2 3-3 3-5l-15-2 4-6 4-6c2-2 4-3 5-6l-1-1-12-1-12 1-2-1 8-14 3-5v-2h-19l2-3 8-15v-3l-9 1c-3 1-6 2-10 1l6-12 2-3-1-3-12 3 4-6 11-20v-2l-3 1-8 4-22 12a250 250 0 0 1-123 13l-30-7-33-10c-1 1-2 1-2 3l-1 3-5 12-2 5-4 18-3 12v1l-3 13-1 3c-4-3-5-7-8-10-2-3-5-6-9-8l-1 1c-2 2-3 5-3 7l-1 6-8 4-1-4c-1-4-2-7-5-9-3-5-7-10-9-16l-4-2-4 1-3 3c-2 3-5 4-8 3l-3-1h-3c-2 0-4 1-4 3l1 1c3 3 3 3 2 6s0 6 2 8l6 6c-3 4-3 4-6 5l-15 2-3 2 14 4 13 6-2 3-12-4-12-3c-2 0-4 1-5 3l-4 5-3 5c-8-1-15-2-21 0l-5 9-2 6-2 8c-1 3-2 5-5 7l-9 6c2 6 1 20-2 29h-1c-7-3-13-7-19-12-3-3-6-6-7-10-2-6-4-12-3-19v-3l-1 1-1 1c-4 8-5 16-5 24 0 7 2 14 7 20 4 4 9 8 15 11l4 1c3-1 6 0 9 3l-4 4-9 7c-3 3-4 6-3 10v4c0 3-2 5-4 8l-5 5-4-4-11-10-2-1c4 7 10 12 16 17l-3 4-10-5c-3-1-6-4-11-5l3 3c3 3 8 5 12 7l4 3c0 7 0 7-2 10-6-2-12-7-21-6l9 4 8 5-4 4c-5 3-9 6-14 7-3 0-5 2-7 4s-2 3-1 5c2 1 2 3 2 5l1 9 1 4c-2 2-5 2-7 3l-7 4c-1 1-6 8-6 10l-5 10-3 3c0 2 0 4 2 5h8l5 1c3 0 5-1 7-3v-1l1-1 2-1 5-4c2-1 4-2 6-1l4-2 3-6 2-1h7c2 1 3 2 3 4 0 3 2 5 5 6l1 1c-1 2-2 2-4 2l-8 1 1 2 3 4h-12l1 2 4 3-6 3c-2 0-4 1-4 3v1l1 6 1 1c4 5 5 10 6 16v8c2 1 3 3 5 3 2-3 5-7 9-9l12-5c-1-4-3-8-1-11 1-4 3-6 5-9 4 4 10 14 12 19a410 410 0 0 0-6 3l-8 1c0 2 2 3 3 5-1 2-3 3-5 3h-7c0 3 2 3 3 5l-2 2 2 4 2-1 3-3 15-12h2c1 3 0 6-1 9l-3 5c-1 3-2 6-1 10 0 2 0 4 2 5l7 4 2 1 8-9c3-3 7-5 11-6l-1-10c1-5 1-6 3-8l2 2 10 12 1 2c1 2 3 3 5 3l9-8 11-6-1-1c-2-6-2-11-2-17 0-4 2-6 5-8l3-3c2-1 2-2 1-3l-1-2c0-2-1-4 1-5 10 2 20 6 29 11 11 5 22 12 32 18l12 7 23 13a2162 2162 0 0 0 47 39l15 13 4-5 11-21c5-12 10-23 17-33l1-2 19-37 17-31a2228 2228 0 0 1 37-66l38-57 25-32 1-2 13-15c2-3 3-3 4-7-3 1-5 0-7-2l2-3 7-9zm-8-24h3l-4 6-4 5-3 5h-9l-32-4c-17-4-34-7-50-13l-32-12-14-5-1-1h-1v-1l1 1a389 389 0 0 0 113 22l33-3zm-21-20l6-1h3l-4 6-3 6-3 7h-8a433 433 0 0 1-94-16l-20-6-13-5-4-2h-1 1l10 3 32 6 35 5 27 1c12 0 24-2 36-4zm-129-1h-1v-1h-1c0 1 0 0 0 0h1v1h1zm-9-3h-1v-1h-1 1l1 1zm133-17l5-2v2l-9 17c-25 4-50 2-75-3h10l19-2 39-8 11-4zm-73-10l27-7c15-5 28-12 40-22h1v1l-13 22-2 2-38 8c-13 1-26 2-39 1-4 0-7 0-11-2 12 0 23-1 35-3zM786 68l39 11c8 3 18 4 27 6l42 7h10a202 202 0 0 0 79-15l2-1-6 12c-1 2-2 3-5 3l-15 3-11 1c-8 2-17 2-25 3h-1c-11 0-21 1-32-1l-10-1c-14-2-27-3-40-7l-35-11-13-5-7-4-2-1h3zm67 37v1-1zm-172 32l12-3 3-4 3-4-1-2-8-7-1-3-1-6 5 1c5 2 9 1 13-4l1 1 7 8c2 3 4 6 4 9v7l1 3c1 2 4 3 6 2l3-2 6-5c3-1 4-3 3-5v-4l1-2c3 2 5 6 13 19v2l-9 29-1 1v-6l-2 3c-1 4-2 8-5 12l-1 1h-1v-1l1-1c3-4 3-9 2-14h-1l-1 3-2 4-2 3-3 2c2-5 2-5 1-8l-6 4-3-2 1-1 2-2c4-2 4-6 5-10 0-3-1-7-3-9-4-6-9-10-15-14l-9-1 1 1 4 3c5 3 8 7 11 11l1 1v2l-5-3-6-4-5-3-2 2-3 3-14-7zm49 110c2 4 7 4 9 1l1-3 10-6c4-2 8-2 12-1v1c-4 1-7 4-11 6l-6 4-3 3c-1 7 0 13 3 18l1 2 4-15c0-5 3-8 7-10l8-3h6c2 1 4 3 5 6h-2c-11 2-18 11-17 22 0 3 2 7 4 10h1l20 14 13 13-4 1-11-2-14-3-17-8-15-10c-4-3-8-6-11-11l-12-12c4-3 9-4 12-7 1-3 0-5-3-7-3-3-7-4-12-3l-3 1-5 4-6 5v-10l-1-9c4-3 9-2 13-2l13-1v-3l-5-6-3-3c4 1 7 3 11 2 3-4 3-4 0-8l-8-9-4-5 2-2c4-3 6-8 7-13l1-5 2 3c1 4 4 8 6 11l3 4 10 11 3 4c1 3 4 6 7 7l2 1c3 1 5 3 5 6l-10 4-9 6-2-5-4 5-3 3v4zm48 30l1-4-6 1-3-1v1l10 10 18 16 6 6c0 2-1 2-3 1a233 233 0 0 0-38-30c0-7 2-10 7-15l13 8 10 8c1 0 2 1 1 2h0l-3-2-7-3 1 2 12 13 6 6 8 5 7 6-2 4-1-1-23-21-7-6 1-3c-5 0-5 0-8-3zm29 7l-10-7-18-14-2-1 2-2c6 6 15 10 22 16l19 16 3 3-1 3-15-14zm6-4c-2-1-2-1-2-3-4-1-4-1-7-4l1-3c10 6 25 20 27 25h-3l-2-2-14-13zm-13-9l-2-2-16-9-4-3-6 2c-1-2 0-3 1-4h4c2 0 4 2 6 1h2c5 5 11 7 17 11l2 2c-1 2-3 2-4 2zm-90-4l-7 4h-3l-4-1h-2l2 5c0 2-2 2-4 2h-7v2l2 3-2 1h-9l1 3 3 3-5 6-8-2c-1 3 3 4 4 7l-10-2c0 4 2 6 7 9l-1 2v1l-1 1c-6-3-9-7-11-13l-4-10c8-2 14-4 20-8l16-14 1 1c1 1 1 2 2 1l2-3c3-5 7-10 13-13 2-2 4-4 6-2 3 1 3 4 3 7l-5 2-3 1-1 2c1 2 4 2 5 5zm-21 49l2 2 2 2-9 2-4 2c-4 2-5 5-5 9l2 4 1 3-5 1-7 1c-3 1-5 2-6 4-3 4-3 8-1 12l4 6-3 4-3 9-4 16-1 1-2-8 2-15c0-4-1-7-4-9l-6-5-1-4 1-9 1-3c0-5-1-8-6-11l-5-2v-13c-4-5-11-5-16-7v-3l3-8c1-3 1-3 4-3h5c2-2 2-3 2-5 0-3 0-6 2-8l1-3-2-4-2-4c6-2 9-6 13-11v-3-9-3c5-2 10-2 15-5l-1 4-4 9c-1 4 1 6 5 7h4l8-1v2l-2 6c-2 2-1 5 1 7l1 2c-1 2-4 3-7 5l-7-6c-4-2-7-1-9 1l-5 6-5 6-2 6 2 9c2 9 6 17 12 25l2 2-2-7-5-18c-1-3 0-7 1-10l4-13 2-5c4 0 6 2 9 5l-9 5v11c1 5 2 10 5 14l5 6c4 3 8 3 12 0l6-4c0-1-1-2-2-1l-6-1 5-7 4-5c6 2 11 0 17-2 1 1 3 2 3 4l-3 1-7 5c-2 2-3 5 0 9zm-1 9l-6 15-2-1c-1-2-3-4-3-7 0-2 1-4 3-5l8-2zm-23-135l10-10 11-11 8-12 8-13c8 3 12 8 14 17l-7 3c-1-2-2-5-6-7 2 4 3 7 2 10-2-1-4-4-7-3l3 5c1 2 0 3-1 3-2 0-3-2-6-1l1 2c2 2 2 3 0 5l-3 5c-2 1-3-2-5-1 0 3 3 5 1 8l-6-2v3l1 3 1 4-3 7-4-2-3-3-7 10-1 3-3 4-5 4c-2 0-5 0-7-2l8-18c-2-2-4-1-7-1l13-10zm-43 46c-1 4-4 5-7 2l-1-1 3-8 3 3c2 1 2 2 2 4zm3 3c1 2-1 4-1 6s-2 3-4 4l-2-5 7-5zm-48-53l1 9h-3c-1-3 0-6 2-9zm-3 13l5-2v4c-1 2-2 2-4 2l-1-4zm5 13l-3-5 3-2 3-1 3 5c-3 3-3 3-6 3zm7 8l-5-5 3-2 3-2 4 4-1 4c-1 1-3 2-4 1zm8 6l-4-3 2-3 2-3 4 3c0 3-1 5-4 6zm11 2l-4 2-4-2 3-6c4 1 5 3 5 6zm2 3l1-5 5 2v4c0 1-2 2-4 1h-1l-1-2zm67 147l-2 4v3l-1 1c-6 3-7 9-7 14v15l-13 9-3-2-6-9-4-5c-3-3-7-2-9 2l-2 8-2 9-7 5-6 5c-2 1-3-1-4-2s0-2 1-3l6-10 1-2v-11c-4-10-10-17-16-24-2-2-4-4-7-4-3 3-7 5-9 9l-2 13-7 3-6 4-1-4-5-14c-2-2-3-4-2-7l4-1 5-1c2 0 4-1 5-3 3-6 7-12 13-16v-4l-4-2-5-1-1-1c-1-5-4-7-9-7l-6-1c-3 0-5 2-6 4l-2 3-3 2c-7 1-12 4-16 9l-6 3-6-1c5-4 6-9 6-14 1-4 3-7 7-8l8-2h4l4-1c2-1 2-2 1-4l-3-14-2-4-4-4c2-3 5-3 8-3 3 1 6 1 9-1l7-3c4 0 7-2 9-6v-1c4 0 6 3 9 4 0-3-2-4-4-5l-4-4 1-10 2 1a661 661 0 0 1 4 1l-4-4 3-2 5 6 2 2-1-2-3-7 3-1c3-1 3-3 4-6 1-4 0-8-1-13l-1-6c6-5 12-9 16-16 2 2 2 4 3 7l-1 3-1 4c-1 2 0 3 1 4h4l2-1-2 1c-1 2-3 2-5 2s-3-1-3-4v-5l-1 3c-2 3-1 6 2 8 2 2 5 4 9 2 5-2 9-5 12-9l5-10v-2l-4 4-13 10 1-1 9-9 2-4c1-7-1-12-7-16-1-2-3-2-5-3l-3-2 1-1c2-3 2-5 2-8l-2-17c0-2 0-4 3-4 4-1 8-4 11-7l1-1 4 4c2 1 4 1 5-2l2-5 2-3 2-3c1-1 3-3 5-3h4v6l-7 8-3 4c-2 2-1 4 0 6s3 4 5 4l6 2c-1 4-3 8-6 11l-2 3c-2 3-2 5 0 8l8 5c2 0 3-2 4-3 3-4 7-7 11-9l5-13 3 2-2 9c-1 3 1 4 2 6h6l10-5 4-2v8l2 7c-5 2-10 1-14 4l2 4 1 10-3-4-3-5-4-5-4-4-4-4 4 7 3 8 2 8v8l-2-5c-1-5-4-10-8-14l-2-2v2l6 14 2 8c0 2 0 5-2 7l-3-4 2-4c1-2 0-4-3-4h-12c-1-3 1-5 1-7l3-11c1-2 1-4-1-6-5 5-12 6-18 8-3 1-4 2-4 6l1 6c0 2-1 4-3 5l-8 5-3 2c-2 2-3 4-1 7v2l-10 8c-7 6-13 13-17 21s-6 16-4 25l1-4c1-5 4-9 7-13l8-13c3-6 7-12 12-17l5-4c2 0 2 1 1 2l-3 7-2 3-3 2c-2 1-3 3-3 5-1 4-3 7-6 10-1 1-2 3-1 5 0 2 2 3 4 4h6l5 1c3 1 4 2 4 5v8c0 2 2 4 4 5l4 1c3 1 3 2 3 5l-4 11-1 2c-2 4-1 7 3 9l3 2 4 3-6 4-13 2h-12l-11-5h-2c4 5 10 7 15 10s11 3 17 4c-4 3-9 5-19 5l2 1c4 2 9 3 14 3l3-1c4 0 8-2 11-5l3-2 1 3 1 14 1 11 2 2 1-2c1-6 2-12 5-17l3-12c1-5 3-9 8-10l1-1c0-3-2-5-4-7l-3-4-2-6c0-2 2-5 4-5 5-1 9 0 14 2l-9 26 4 1v2zm346-207l-2 3c-9 7-17 15-23 24l-18 24-14 22-13 19-20 35-17 29-17 29-10 18-19 38-16 33-12 27-2 3-2-2-11-14-18-17-17-14-32-20-37-20a140 140 0 0 0-47-15l1-2 6-15c1-4 1-4 4-6v-1c-1-3 0-5 1-8l7-16h7l1-2-7-7c0-3 2-6 3-8l2-2 4-1c1-3-2-4-2-7l12-28 2 2 5 8 8 13 6 5 25 13c3 2 7 2 10 3 5 1 9 2 14 1 5 0 10-1 14-4l5 3 4-5c2 0 3 2 4 3l5 5 6-8c1-3 0-5-2-6l-7-6c-1-1 0-2 1-2l9 8 3-4c2 0 2 3 3 3 2 0 4-1 5-3l3-1h2c1-3 0-4-1-5l-11-13c-8-9-18-15-28-20l-10-5c-2 0-2 0-3-3l1-1c1-3 0-5-2-7l-6-4-4-1-3-1c-2-4-5-5-8-6v-2l-5-10-4-3-2-2c-1-3-2-5-4-6l-7-5-2-2c4-9 6-18 9-28l5-21 6-27 8-31 6-25 2 1a295 295 0 0 0 43 32l26 15c17 10 35 18 53 25l50 18c12 3 24 6 37 7a853 853 0 0 1 37 3zm-8-4l-3-1a475 475 0 0 1-29-4l-29-7-10-3-33-12a330 330 0 0 1-68-30 2970 2970 0 0 1-54-34l-2-2 2 2h3l13 8 7 4 7 4 7 4 7 4 8 4c13 7 27 12 41 18l17 7 22 8 20 6 20 4a274 274 0 0 0 65 6l-11 14z"/>
</svg>
