<svg xmlns="http://www.w3.org/2000/svg" viewBox="0 0 2401 566"><defs><style>.cls-1{fill:#53217d;}</style></defs><title>skylineAtivo 1</title><g id="Camada_2" data-name="Camada 2"><g id="Camada_1-2" data-name="Camada 1"><path class="cls-1" d="M2390.11,377l-10.61-7-10.61,7H2358v18h-12V179h-14V146H2190V399h-12V383h-30v12h-11V383h-23V268h-11V253h-10V233h-19v-8h-33v8h-24v12h-28v8h-12V399h-37v-4h-6v-9h-46v9h-27V356h-7.7V169h-9.5v-8h-12.5V137h-6v-5h-11V119h-44v13h-11v5h-6v24h-12.5v8h-9.5V391H1685v8h-59v-8h-8V380h-32v11h-8.75V267h-6.5v-2l-5-5h-76l-5,5v2h-6.5v37H1450v45h-25.73l-9-9h-15.08l-9,9h-27.48V245h-40.5V231h-20V217h-6v28h-40.5V369h-5.25V348h-11V337h-81v11h-11V462H1095V414h-90V400H978V385H963V226l-63-16H827v16h-9V442H787V406H771V226h-8.37V93h-15.5V40h-15.5V31H713.84a53,53,0,0,0-96.43,0H599.63v9h-15.5V93h-15.5V436H559V409a31.1,31.1,0,0,0-28-30.85V368H441v10.15A31.1,31.1,0,0,0,413,409v27H363v17H325V394H313.38V169h-14.5V126h-10.5V109h-13V93h-126v16h-13v17h-10.5v43h-14.5v56h-17v42H0V566H2401V377Z"/></g></g></svg>