<svg xmlns="http://www.w3.org/2000/svg" viewBox="0 0 2401 818"><defs><style>.cls-1{fill:#7a38c6;}</style></defs><title>skylineAtivo 3</title><g id="Camada_2" data-name="Camada 2"><g id="Camada_1-2" data-name="Camada 1"><path class="cls-1" d="M2365,429V297h3v-4h-3v-3h3v-4h-3l-38-31.75V251h-26V212h-4V202h-24.52V191h-11V180h2v-5h-5V163h-4V149h-4.93l-2.07-41-2.07,41h-4.93v14h-4v12h-5v5h2v11h-11v11H2212v10h-4V321h-17.3V204h-6.5V175h-6.5l-21.5-54.58V99a2,2,0,0,0-2-2h-1V85h-3V97h-1a2,2,0,0,0-2,2v21.42L2125.7,175h-6.5v29h-6.5v79H2101V236h-4v-9h-7.5V214h-7V185h-29v29h-7v13H2039v9h-4V415h-81V137l-46.5-19L1861,137V341h-22V195h-83V185h-29v10h-15v76h-6V371h-6v10h-38v9h-12v9h-28V245h-97V235a19,19,0,0,1-19-19h-27a19,19,0,0,1-19,19v10H1310v19h-39.67V115h4.5V95h4V85h-8.5V81h-84v4h-8.5V95h4v20h4.5v75H1162V460h-23V311h-24V272h-35v39h-18.89V292h-6.5V234h-15.47l-11.53-30.06V191h-3.67l-1.83-11.5-1.83,11.5h-3.67v12.94L1005.07,234H989.61v58h-6.5v93H969V375H947V70h-5.5V53h-6V12H931V6h-5.5V0h-19V6H901v6h-4.5V53h-6V70H885v69H866V325H849V216h-9V204H825v12H787v43H628V115l-90.84,23v28H521v19H475V289H360V253H318v18H282v9h-5v9H253.08L204,213.84V196H161.17V81h-10V71a13,13,0,0,0-11.5-12.91V53h-33v5.09A13,13,0,0,0,95.17,71V81h-10v78H59.6L0,195V818H2401V429Z"/></g></g></svg>