<?xml version="1.0" encoding="utf-8"?>
<!-- Generator: Adobe Illustrator 22.0.1, SVG Export Plug-In . SVG Version: 6.00 Build 0)  -->
<svg version="1.1" id="Camada_1" xmlns="http://www.w3.org/2000/svg" xmlns:xlink="http://www.w3.org/1999/xlink" x="0px" y="0px"
	 viewBox="0 0 291 512" style="enable-background:new 0 0 291 512;" xml:space="preserve">
<path d="M179.7,512h-82c-13.7,0-24.8-11.1-24.8-24.8V302.2H25c-13.7,0-24.8-11.1-24.8-24.8v-79.2c0-13.7,11.1-24.8,24.8-24.8h47.8
	v-39.7c0-39.3,12.4-72.8,35.7-96.8C132.1,12.7,164.9,0,203.5,0L266,0.1c13.7,0,24.8,11.2,24.8,24.8v73.6c0,13.7-11.1,24.8-24.8,24.8
	l-42.1,0c-12.8,0-16.1,2.6-16.8,3.4c-1.2,1.3-2.5,5-2.5,15.2v31.4h58.3c4.4,0,8.6,1.1,12.3,3.1c7.9,4.4,12.8,12.7,12.8,21.7l0,79.2
	c0,13.7-11.1,24.8-24.8,24.8h-58.5v184.9C204.5,500.9,193.4,512,179.7,512z M102.9,482h71.6V288.8c0-9.1,7.4-16.6,16.6-16.6h66.7
	l0-68.9h-66.8c-9.1,0-16.6-7.4-16.6-16.6V142c0-11.7,1.2-25.1,10-35.1c10.7-12.1,27.6-13.5,39.3-13.5l36.9,0V30.1L203.5,30
	c-62,0-100.6,39.7-100.6,103.6v53.1c0,9.1-7.4,16.6-16.6,16.6H30.2v68.9h56.1c9.1,0,16.6,7.4,16.6,16.6V482z M265.9,30.1L265.9,30.1
	L265.9,30.1z"/>
</svg>
