<?xml version="1.0" encoding="utf-8"?>
<!-- Generator: Adobe Illustrator 22.0.1, SVG Export Plug-In . SVG Version: 6.00 Build 0)  -->
<svg version="1.1" id="Camada_1" xmlns="http://www.w3.org/2000/svg" xmlns:xlink="http://www.w3.org/1999/xlink" x="0px" y="0px"
	 viewBox="0 0 360 512" style="enable-background:new 0 0 360 512;" xml:space="preserve">
<path d="M180,511l-10.8-11.6c-1.6-1.7-38.6-41.5-77.9-97.9C37.9,324.9,7.7,257.7,1.5,201.8c-1-8.1-1.5-15.3-1.5-22.2
	C0,80.6,80.7,0,180,0c99.2,0,180,80.6,180,179.6c0,6.7-0.5,13.9-1.5,21.9c-6,55.9-36.2,123.1-89.6,199.8
	c-39.4,56.5-76.5,96.4-78.1,98.1L180,511z M180,29.6c-82.9,0-150.4,67.3-150.4,150.1c0,5.7,0.4,11.8,1.3,18.6l0,0.2
	C42.2,301,145.9,427.8,180,467.1c34.2-39.3,138.1-166.3,149.1-268.8l0-0.2c0.9-7,1.3-12.8,1.3-18.4C330.4,96.9,262.9,29.6,180,29.6z
	 M180,300.4c-66.8,0-121.1-54.2-121.1-120.8S113.2,58.8,180,58.8c66.7,0,121,54.2,121,120.8S246.7,300.4,180,300.4z M180,88.4
	c-50.4,0-91.4,40.9-91.4,91.3s41,91.3,91.4,91.3c50.4,0,91.4-40.9,91.4-91.3S230.4,88.4,180,88.4z"/>
</svg>
