<?xml version="1.0" encoding="utf-8"?>
<!-- Generator: Adobe Illustrator 22.0.1, SVG Export Plug-In . SVG Version: 6.00 Build 0)  -->
<svg version="1.1" xmlns="http://www.w3.org/2000/svg" xmlns:xlink="http://www.w3.org/1999/xlink" x="0px" y="0px"
	 viewBox="0 0 1283 580" style="enable-background:new 0 0 1283 580;" xml:space="preserve">
<style type="text/css">
	.st0{fill:#F9F28A;}
	.st1{fill:#F8D873;}
	.st2{fill:#261F19;}
	.st3{fill:#F46693;}
	.st4{fill:#BFD26A;}
	.st5{fill:#FEFEFE;}
</style>
<g id="Camada_2">
</g>
<g id="Camada_1">
	<g>
		<g>
			<path class="st0" d="M86.6,92.4c0-2.3,0-4.6,0-6.9c-0.1,0-0.2,0-0.4,0.1L86,82.2c0.2,0,0.4,0.1,0.6,0.2c-0.1-3.3-0.1-6.6-0.2-9.9
				c-0.5,0.1-0.8,0.2-1,0.4l-0.6-8.8L69,38.4H47l2.2,15.2L63,75.4l2.8,30.2L79,138.2l10.3,5.8c0.1,0.2,0.2,0.2,0.4,0.2l10.4,5.8
				c0.1,2.1,1.2,2,2.1,1.2l3.8,2.1c0.7,0.4,1.4,0.6,2.1,0.7l16.2,5.1l-13-55.1L86.6,92.4z"/>
			<path class="st0" d="M617.2,319c0.4,0.6,1,1.1,1.6,1.2l4.7,3.4c0,0.1,0,0.3,0.1,0.4c0-0.1,0-0.2,0-0.3l5.4,3.8l0.9,0.8
				c1,1.3,2.1,2.2,3.1,2.8l28.7,25.7l29.9,39.9c0,0,0,0.1,0,0.1c0,0,0,0,0,0l0.2,0.3l2-11.5c0.8-0.1,1.5-0.9,1.8-3
				c0.1-1-0.4-1.6-1-2.1l1.7-9.8c3.7-6.3,7-13.5,2.6-15.3c0.1,0,0.1,0.1,0,0.1l0-0.1l-4.3-9.7l5.5-34.6l0.3-1.2
				c2.2-3.1,3.5-7,2.7-9.9l5.7-20.8l-3.1-10.7c0.4-2.7-0.8-6.4-2.8-9.7l-1.3-4.3l-12.4-15.6l-19.6,5.5l-10.1,15.2l-7.2,26.9
				l-5.4-6.2c-1.2-2-2.6-3.6-4.1-4.7l-5.1-5.8c-0.7-7.5-14.1-22.5-21.5-22.5c0,0,0,0,0,0c0.1-0.1,0-0.3-0.4-0.4l-4.5,0.2
				c-0.7-0.4-1.8-0.9-3.6-1.4c-0.4,0.5-0.8,1-1.1,1.5l-11.8,0.4l-6.4,22.2l8,34.6L617.2,319z M625.9,256.1c0.2,0.3,0.3,0.7,0.1,1.3
				l-1.7-1.8C624.9,255.4,625.5,255.5,625.9,256.1z M620.7,250.4c0.2,0.4,0.1,0.9,0,1.4l-0.9-1C620,250.7,620.3,250.5,620.7,250.4z"
				/>
			<path class="st0" d="M980.2,391.2c0.2-1.1,0.5-2.2,0.7-3.3c-0.6,0.1-17.4,19.3-17.3,18.2c0,0.2,0,0.3,0,0.5l-3.9,3.4
				c-1.6,0.3-3,1.4-4.2,2.7l-10.6,6.8l-7.4-0.8l-0.9-11c0.4-1,1-2,1.8-3c-0.1,0-0.2-0.1-0.3-0.1l7.8-12.1l-1.7-7.1
				c0.3-3.6-0.1-7.1-2.2-9.2l-0.7-2.8l-5.6-4.5c-0.3-3.2-2.4-6.4-6.4-5.2l-3.4-2.8l-21.3,2.2c-4.7-0.5-8.5,0.4-9.4,3.5l-6.1,3
				c-0.6-0.2-1-0.4-1.4-0.4c0.1,0.3,0.2,0.6,0.3,0.9l-3.7,1.8c-2.8,0.2-6.7,2.1-8.5,3.9l-5.4,2.3c-1.3-0.4-1.8,0-2,0.8l-5.4,2.3
				l1.6-24.6c0-0.6-0.4-0.8-1.2-0.9l-16.1-12.2l2-3.1c0.2,0.1,0.4,0.2,0.6,0.3c0-0.4,0-0.9,0-1.3l21.7-32.5l-14.1,10.2
				c-1.2,0.1-2.7,1.4-3.9,2.8l-6.4,4.6l-6.1,11.1c-4.5,2.3-6.7,8.4-7.5,14.1l-5.3,10.8c-2.3,1.4-3.4,4.4-4.1,8.3l-1.7,3.4l-9.7,13.1
				c-2.2-0.8-4.3,0.4-6.2,3.4c-0.4,0,0.6,1.3,1.6,2.9l-0.7,0.9l-2.5,1.3c-0.6-0.6-1-1.4-1.4-2.3c-4.3,1.2-5.1,3.4-4.9,5.8l-3,1.6
				l-8.4,23.7l-2.4,21.6l-10.1-4.7l-23,5.2l-21.4,24.8c-6.8,1.8-14,10.1-13.1,16.8l-13.8,18l-9.3-21c0.1,0,0.2,0,0.3,0.1
				c-0.3-0.3-0.5-0.7-0.8-1l-1.7-3.9c-1.7-5-2.7-11.4-4.9-13c0,1.4-0.2,2.9-0.4,4.5l-3.2-5.2c6.2-6.9-3.3-7.3-6.7-11.5
				c-2.5-3,3-4.2,0.4-7.2c-1.3-1.5-2.3,1.4-3.8,2.6l-2.2-3.5c-0.7-4.2-2.6-10.4-5.7-9.1l-1-1.6l-9-3.9c-0.4-0.8-1.1-1-1.9-0.8
				l-10.8-4.6l-10.3,5.6c-3.3-0.4-4.9,1.1-5.3,2.9l-12.9,13.2l-0.1-5.9c3.4-8.5,1.9-30.9,0.9-34.9c-1.1-4.2-0.1-6.3-1.3-9.1l-0.1-8
				l-12-25.4h-15.2c0.4-3,1-5.7,1.5-5.7c0.5-4.4-5.3-7.4-5.6-12.5c-0.7-0.1-1.3,0.1-2,0.3l-2.2-8.7c0.4-0.4,0.3-0.4-0.1-0.1l-1.8-3
				c0-0.3-0.1-0.7-0.2-1.3c-0.3-0.2-0.6-0.3-0.8-0.4l-2.8-4.6c1-0.8,1.3-1.7-1.2-1.9l-11.8-19.1l-15.7-22.1c0.2-0.8,0.6-1.6,1.2-2.3
				c-1.2-3-2.4-6.1-3.6-9.1c-1.3,1.6-2,3.2-2.3,4.7l-5.7-8l10.5,28.8l11.4,25.5l-3.9,14.4l-2.3,0.6l-20.9-18.1l-12.1-5.6l-15.5,0.3
				c-1.8,0.5-3.2,1.7-4.2,3.3l-5.2,4l-5.5,21.5l5.5,16.7l-8.4-2.8c-2.7-1.5-4.7-2.3-4.8-1.6l-1.7-3.1c0.1-0.5-4.2-8.9-4.7-8.9
				c0,0,0,0-0.1,0l-8.5-15.8l-10.8-6l1.5-13.4c0.3-0.2,0.6-0.3,0.7-0.4c0-0.7-0.2-1.3-0.5-1.7l0.3-2.6l1.1-16.5l-9.1-23l-16.4-23.4
				l-12.9-10.6l-41-27.1l24.5,36.6c-0.6,2.2,0.4,2.9,1.9,2.8l1.1,1.7l-6,22c-0.4,0.2-0.6,0.6-0.5,1c0,0.1,0.1,0.3,0.1,0.4l-2.2,7.9
				l-4,8c-0.2-0.2-0.4-0.4-0.7-0.6c-1.5,1-2.7,4.5-3.3,8.6l-6.6,13.1l-21.1,2.8l-8.3,13.8l5.7,26.2l6.4,5.2c0.1,0.5,0.1,1,0.1,1.5
				c0.8,1,1.9,1.3,3.1,1.1l15.6,12.6l8.8,56.3L578,579.9h110.7h9H758l12.4-15.7l221.3-82.3l-2.1-106.7L980.2,391.2z"/>
			<path class="st0" d="M695.1,483.6c-0.1-0.1-0.3-0.2-0.4-0.3C694.6,483.5,694.7,483.6,695.1,483.6z"/>
			<path class="st0" d="M1230.8,256.8c0.8,2.9,2,3.8,3.5,2.5c4.7-9.4,25.3-2.8,28.5-9.8C1258.6,249.1,1231.5,250.5,1230.8,256.8z"/>
			<path class="st0" d="M691.8,396.9C691.7,397,691.7,397,691.8,396.9C691.8,397.2,691.9,397.2,691.8,396.9z"/>
			<path class="st0" d="M691.7,397c0-0.1-0.1-0.2-0.2-0.3C691.6,397.2,691.6,397.3,691.7,397z"/>
			<path class="st0" d="M1226.2,136.4l9.8-14.6l12.3-36.4l-8.5-19.4c0-0.1,0.1-0.3,0.1-0.4c-0.3-0.8-0.7-1.3-1-1.5l-1.7-3.9
				c0-0.5-0.2-0.9-0.5-1.3l-13.4-33.2l-0.7,32.1l-10.4,7.8l-1.1,15l6.6,12.2l-25.5,4.2l-14.7,31.2l-1.2,11.2
				c-0.3-0.3-0.4,0.3-0.1,1.1l-0.8,7.8c-1.5-0.1-2.5,9.4-1.7,15.7l-0.3,2.6l3.6,10.5c-0.3-0.4-0.6-0.8-0.9-1.2
				c0,2.8,6.4,23,9.4,25.9l0.9,2.7l4.5-15.5l21.3-31.8l1.8-2.6c2.4-1.3,4.4-3.4,3.5-5.3l7-10.5c-0.3,1.9-0.4,4.1-0.5,4.3
				c1.9-1.6,2.7-3.6,2.5-5.9C1226.4,136.9,1226.3,136.6,1226.2,136.4z"/>
			<path class="st0" d="M998.1,255.2c-0.9-1.1-2.9-0.1-5.2,1.9l-16.9,6.1l-24.1-1.4l-23.6,7.9l-15.6,14.4l-4.9,11.6
				c-0.4-0.2-0.8-0.3-1.3-0.1c-2.4,1.1-4.8,9.4-5.8,16.9l-0.2,0.5l0,1c-0.3,3.6-0.3,6.8,0.3,8.7l0.7,19.9l13.1-20
				c1.5-0.8,2.7-2.7,3.7-5.6l42.6-0.3l18.1-14.9l18.8-41.1l9.1-20.1l-4.9-4.3C997.4,241.9,996,248.2,998.1,255.2z"/>
			<path class="st0" d="M1169.3,289.4c0.4,1.5,3.9,1.3,4.9,1.5c10.7-11.2,26.7-11.4,41-13.8C1209.9,275,1166.4,279.3,1169.3,289.4z"
				/>
		</g>
		<path class="st1" d="M377.1,366.9c-5.3-2.8-9.8-6.6-13.7-11.1c3.8-1.3,6.4-0.1,7.9,3.7c1.3,0.2,8.5-7.4,5.2-9.2
			c-3-1.6-4.6,6.1-8.5,5.4c0.1-7,7.8-5,2-11c-5.7-5.9-10.5,1.3-13.6-4.8c0.2,6.1,6.9,10,6.5,15.5c-13-7.5-19.3-26.7-13-40.4
			c8.6-18.8,20.6-5.7,31.3-11.8c-0.4,0.2,5.2-16.3,5.7-17c1.1,0.8-4.2,27.6,5.9,22.5c-2.1-3.5-3-18.2,3.1-13.6
			c4.5,3.4-5.7,5.6-2.1,9.4c1.8,2,10.5-6.3,9-8.2c-5.2-6.3-13.8,1.1-15.5-1.1c1.1,1.4,3-20.5,3.1-21.1c3.7-14.3,12.2-20.7,6.7-36.5
			c-2.3-6.5-25.8-28.2-24.7-33.2c2.5-11,22.2,5,27.6,8.5c26.8,17.6,55.3,49.1,57.5,82.8c0.4,6.5-4.9,18.7-3.5,23.3
			c1.4,4.8,6.7,3.4,9.6,7.3c5.1,7,15.5,28.7,24.3,30.4c-17.7-33.2,19.9-60.5,44.2-31.4c-3.8-1.8-11.3-7.1-16.1-7.2
			c0.2,2.8,34.9,19.9,33,21.2c15.6-10.4-30.6-79.9-19.4-84.5c7.7-3.2,11.6,29.5,14,31.6c-0.1-1.5,0.3-2.9,1.3-4
			c13.6,20.1,40.2,47.2,42.2,72.4c-3.5-2.1-5.1-5.2-4.8-9.3c-5.4-0.4-10.9,11.1-13.2,9.9c-4.5-2.3,3.2-6.1,1.3-8.8
			c-2.1-3.1-8.5,9.1-8.8,9.8c2.1-3.7,12,8.4,12.1,8.3c3.7-1.9,1.6-8.3,7.5-4.1c6,4.2-3.6,4.4-3.8,7.2c-0.1,1.5,12.4,6.3,1.1,8.8
			c-0.3-0.2,17.5,8.4,14.9,8.3c2.2,0.1,1.8-5.6,5.7-5.8c4.3-0.2,2.5,5.3,5.2,5.8c6.2,1.1,1.6-12.7-0.8-14.1
			c-7.4,10.5-4.2-0.8-10.6-0.6c-2.6,0.1-2.7,11.5-7,2.4c-0.8-1.8,0.3-14.3,1.9-14.6c1.6,7.4,6.8,0.3,10.5,2.1
			c8,3.8,12.5,14.2,15.5,21.9c6.8,18.1,3.2,38,3.2,56.8c47.2-49,72.9,33.1,86.3,62c14.7-21.7,44.4-75,80.3-62.9
			c-5.7-34.4,23.4-44.2,36.9-67.6c7.7-13.3,9.8-27.4,20.1-40.1c2.5-3.1,32.2-33.2,35.5-27.6c2.3,3.9-17.8,25.2-20,31
			c-7.4,19.2,4.4,11.1,8.2,23.3c-10-0.1-10.9,9.1-19.2,9.1c0-2.7,4.3-6.7,3.8-8.8c-0.7-2.7-11.4,10.5-2.5,11.6
			c7.7,0.9,17.3-2,17.8-11.9c6.5,2-3.2,16.8,0.9,18.9c2.9,1.5,24.2-10.8,28.6-12.1c11.5-3.2,27.1-6.4,38.2-1.1
			c10.4,5,15.8,14.9,15.6,26.3c-0.1,4.9-10.9,24.8-6.9,27.8c8.8,6.4,35.9-30.9,41.3-35c-0.6,10.6-18.3,18.3-18.8,24.7
			c-0.4,4.7,12.6,10.2,11.7,5.4c1.2,2.7,1.4,5.6,0.5,8.7c-6-1.4-11.4-11.3-16.2-10.3c-7.1,1.5-10.5,16.4-8.1,14.5
			c3.9-3,10.7-2.3,8.1-0.9c-2.2,1.2-10.8,2.9-10.7,2.9c-1.2,0.8-10.4,2.1-11.8,8.2c-0.7,3.3,6.7,16.5,9.5,12.6
			c6.3-8.7-15.6-4.8-1.9-10.2c-0.8,0.3,5.7,5.7,7.3,5.6c5-0.3,5.7-7.2,12.7-5.8c3.2,0.6,14.5,13.8,14.5,14.3
			c-0.1,2.5-20.8-0.2-19.2,13.1c-12.6,2.4,10.3-18.8,7-19.8c-2.2,1.1-3.9,2.7-5.2,4.8c-1.8-1.6-3.7-3.1-5.5-4.6
			c-1.3-0.5-4.8,9.8-8.5,8.9c-5.4-1.3-7.2-8.4-11.7-9.1c-0.2,0-13.8,6.8-16,7c-6.2,0.8-5-1.8-8.8-2.1c-1.4-0.1-10.4,10.6-14.6,10.9
			c-0.2-2.8-7.6-11.7-7.7-11.2c0.7-6.5,7.3-13.7,13.3-5.9c0.1-2.4,5.6-5.3,5.1-6.9c-0.6-2.1-6.3-0.8-7.1-6.1c-1.3-8,2-1.3,8-2.7
			c-1-1.9-15.3-11.2-15.2-13.1c0-4.6,9-7,8.5-10.3c-1.5-9.4-5.1-3.8-8.9-4.1c-3.7-0.3-7.9,3.3-12.9,2.3c-12.8-2.7-11.3-16-1.8-13.8
			c0.2,1.4-7.1-10-5.7-9.2c-7.2-4.2-2.3,5.2-4.1,6.2c-1.4,0.8-4.8-2.9-7.2-1.9c1.6,11.7-18.2,7.8-16.2,14.4c0.6,2.1,5.5,0,3.8,3.3
			c-2.6,4.9-16.7-5.3-14.4-11.5c1.4-3.7,7.9,3.6,7.2,4c4.6-3.1,11.3-9.3,15.5-17.3c-0.7,0.4-9.6,9.3-9.7,9.3
			c7.3,1-14.6-28.9-13.9-26c1.8-0.8,5.9,3.8,7.1,0.4c1.3-3.7,4.4-19.6,5.5-20.7c1.5,0.2,2.8,0.7,4.1,1.4c0.2-2.5-0.6-4.5-2.5-6
			c-13.5-2.2-14.8,18.4-14.1,24.9c-4,1.8-11.7,4.3-10.6,12.5c1.2,9.2,7.3,1.9,14.4,6.5c9.4,6.2,0.6,5.2-4.9,1.3
			c-0.9-0.7-10.7,13.2-12.7,13.6c-4.1,0.9-6-1.8-5.3-1.8c1.3-1.5,1.5-3.4,0.7-5.5c-3-2.3-5.8-1.6-8.2,2.3c-0.8,0,4.3,5.7,2.6,6.8
			c-2.7-0.1-4.5-1.4-5.5-4.1c-9.3,2.5-2.5,10-3.3,13.4c-4.8-2.4-10.5,6.1-7.6,7.8c1.9,1.1,6.5-7.2,10.6-6.1
			c4.4,1.2,13.1,10.3,15.4,13.9c10.2,15.8,3.9,2.4-1.8,6.2c-9.1,6.2-13.1,13.1-6.9-0.6c-0.6,0.3-12.8,8.7-9.2,9.8
			c-14.2-4.1-3.5-3.4-2.9-9.1c0.3-3.3-4.7-1.6-2.5-7.4c0.1-0.3,12.8-5.9,8.7-8.9c-11.9-8.5-16.5,30.9-16.9,31.6
			c-0.2,0.3-18.3,5.7-17,10.1c1.4,4.4,12.4-7.8,14.7-7.9c0.8,2.8-2.1,12.2-3.7,12.9c0,0-21.5-2.2-19.8,0.5c-1.8-2.7,5.3-7.4,2.2-8.4
			c-7.7-2.5-6.2,0.3-13.6,1.8c5.3,2.3,14.4,17.6,18.6,17.8c6.3,0.4,1.1-5.6,9,0.9c3.3,2.8,8.5,4.2,7.3,8.8
			c-5.2,19.5-12.9-6.7-6.1-1.7c-7.1-5.3-8.8-5.4-17.2-4.9c-0.9,0.1-18.7-2.2-16.4,6.4c0.2,0.7,13.1,2.7,10.2,8.5
			c0.3-0.7-26.9,2.6-20.9,13.5c4.4-4.3,7-3.4,7.9,2.7c0.8-0.3,9.1-12.1,7.9-1.2c-0.3,2.6-17.6,20.7-19.5,21.2
			c-8.3,2.2-8.6-5.9-10.6-7.8c1.1,1,1.9-5.8-1.8-8.8c-2.8-2.2-7.1,7.8-10-0.7c-2.3,3.8,2.6,4.5,1.4,7.8c-4.1,10.8-16.3,0.7-13.8-3.2
			c1-1.6,4.9-0.2,6.1,0.5c-3-1.7-5.3-12.1-4.4-14.4c-2.4,2-27.6,13.3-27.4,13.5c-7-6.6,17.5-16,15.1-20.4c0.1,0.1-13.1-3.1-11.1,0.4
			c-7.8-13.4,10.7-2.1,12-7.9c-0.1,0.3-9.5-7.3-8.9-7.2c-1.8,2.1-4,3.8-6.4,5.2c-1.1-1.5-1.9-3.2-2.4-5c-2.3,5.3-10.3,5.7-9-0.5
			c2.7-13.1,19-4.8,22.6-8.2c7.8-7.3-0.9-7.8-4.1-12.6c-2-3,1.4-5-0.8-7.5c-1.8-2.1-3.2,4.7-5.9,2.7c1.1,0.8-2.4-24.7-10.4-6
			c9.4,4,5.8,4.6-0.4,8.2c0,0,12.4,6.4,5.1,9c-2.9,1-5.5-4.7-7.8-5.3c1.1,2.7,2.1,5.4,3.2,8.1c0.7-1.6-29.3-9-31.3-13.8
			c-6.1-14.1,15.2,4.1,15.7,3.9c-8.3,3.8,10.1-24.2,10.6-21.2c-0.8-5.7-8,2.2-8.4,2.2c-1.9-0.5,0.4-6.9-3.3-4.5
			c-6.3,3.9,2.9,5.7,2.1,10.8c-4.4,0-4.8-6-8.1-5.9c2.5-0.1-17.8,9.2-16.8,6.4c-3.5,9.5,11.7,1.9-6.3,17.2
			c3.2,0.4,22,14.5,22.3,18.1c0.9,9.5-8.2-1.6-9.5-1.1c-3.8,1.4,20.7,20.6,21.6,21.3c0.5,0.4,3.8-4.1,6.1-1.8c2.6,2.6-1,4.2-0.9,4.5
			c-0.9-1.7-0.5,11.8,0.9,11.1c-2.8,1.4-7.1-7.4-10.3-0.8c-5,10.4,10.9,9.5,11.3,16.4c0.7,12.2-19.7-17.3-19.5,0.5
			c0,1.3,14.4,16.4,15.3,17.2c10.7,9.3,12.8,4.2,20.5,10.1c2.3,1.8,7,4,8.5,6.4c1.7,2.8-9.8,5-2,9c5.7,2.9,22.8-11.2,19.4-13.4
			c-3.5-2.3-7.4,10-12.4,7.1c1.9,1.1-4.3-28.6-5.1-26.9c2.1-4.4,12,7.4,15.1,8c-0.7-4.5-5.8-3.5-6.3-6.4c-1.4-9,13.5,6.7,14.2,5.7
			c1.5-2-7.5-6.3-4.4-7.5c16.5-6.6,0.3,1.4,9.2,2c1.7-4.1,20.9-7.3,20.4,3.6c-0.8,18.2-16.3-4.7-18.6,0.2c-0.8,1.8,5.4,3.4,4.1,4.6
			c0,0-7.5,10.5-7.5,10.4c-2.2,7.2-4.9,5.5-3.4,12.4c0.3,1.4-3,12.3,6.6,8.4c6.1-2.5-3-9.7,0.8-12.4c0.7-0.5,7.6,5.5,7.8,5
			c-1.7,6-2.5,4.3-2.6,10.6c-6.4,0-12.7,0-19.1,0c-2.1-1.5,7.2-8.8-1.1-8.1c-9.1,0.8-9.6-0.1-7.9,8.1c-27.1,0-8,1.5-8.3-5.5
			c-0.1-3-23-19-25.8-21.9c-2.2-2.3-7.2-13.3-10.9-13.3c-1.4,0-13.4,10-11.5,12.5c3.1,4,6.4-5.1,9.2-3.8c3.6,1.8,3.6,10.4,3.7,11
			c0.2,1-5.9,3.4-6.4,5c-1.6,5,3.7,1.4,3.7,6.4c0,3-4,4.6-4,9.5c-13.3,0-3.9-6-4.1-9.5c-0.3-6.1-4.5-8.3,5.7-15.1
			c-10.1,0.2-8.2,9.3-15.7,11.5c-1.7-0.8,2.8-13-2.4-17.5c-0.3,1.3-0.9,2.4-1.6,3.4c-1.6-5-3.2-10.1-4.7-15.1
			c2.2,0.5,11.7-4.2,9.3-7.2c-1.5-1.8-10.7,4.5-10.4,4.5c-12.8-6.5,24.6-17.5,20.2-12.6c0.5-0.5,5.3-17.9,6.1-17.3
			c-2.8-2.4-11,8.6-14.5-1.7c-2.3-6.6,9.9-7.9,9.1-12.3c-0.1-0.4-11.8-9.2-12.8-9.1c-7.3,0.9-6.9,11.3-7.2,11.6
			c1.8-1.5-0.9,11.2-6,2.4c-3.7-6.6,3.7-6.3,1.6-10.6c-2-4.1-16.9-6-5.7-13.1c-1.6-1.2-6.9-4.1-4.3-7c2.2-2.5,12.2,4.2,12.3,6.5
			c0.2,2.8-8.7,4.1-3.3,7.3c3.1,1.8,10.6,3.4,10.7-2.8c0.1-7.5-6.3,0.9-0.3-8.2c0.6-0.9-6.5-6.3-6.1-6.2c-7.8,3.8-5.8-5.2-12.9-2.7
			c0.3-1.2,5.9-30.5,9.9-14.9c-5.8,0-3.6,6.5-0.3,5.5c3.9-1.1,4.4-22.7,4.4-25.5c0-7.9,2.9-21.6-0.9-28.2c-3.4-5.9-8.2,5.9-10.3-6
			c-1.5,6.4-10.2,6-11.2,11.9c-0.8,4.9,9,5,8.6,8.9c-0.3,3.1-5.5,6.6-8.5,8.9c0.9,5.5-1.4,7.3-6.9,5.3c0.8-2.6,0.1-4.2-2.4-4.9
			c-7.2,0.6,0.9,4.9,2.4,4.9c0.1,3.9-5.5,5.5-3.3,8.9c0.8,1.2,13.6-14.3,12.9-5.8c-0.5,6-18.5,20.5-23.6,21.1c0,0.2,4.1-8.8,1.4-7.5
			c-11,5.6,3.3,7.5-6,11.4c-3.3,1.4-13.9-5-15.8,1.1c-1.9-5-3.8-10-5.8-15c1.6,0.4,3.2,0.4,4.8,0.1c-6.7-12.6-11.3-4.6-14.3-18.4
			c-0.8-3.4-5.8,6.4-9.2-0.5c1.1-0.2,6-4.9,2.7-4.8c-2.3,0.1-2.9,2.4-3.3,4.1c-5.7-3.5-14.3-8.8-14.8-15.7c5.1-0.1,7.9,11,10,0
			c1.7,1,23,16.8,24.8,7.8c0.3-1.7-4.2-3-4.7-4c-1.7-3.4,5.3-2.1,3.4-5.1c-0.7-1.1-11.3-0.3-13.5-3.9c-1.9-3,8.4-7.2,1-10.1
			c-6.5-2.5-5-1.4-9.9,4.1c-0.5,0.6,2.8,4.5,1.2,7c-2.1,3.4-3.1,2.4-5.1,4c-2.9,2.4,2.6-8.6,3.1-6.4c-1.7-6.6-11.7,6.7-12.9,6.5
			c-6.2-1,10.2-10.4,6.3-13.3c-2.9-2.3-14.9,12-16.1,14.5c-2,0,1.6-19.2-5.6-14.7c-3.5,2.2,5.8,13.7-3.5,10.1
			c0.6-6-8.7-15.3-8.9-4.9c-4.5-2.2-5.7-6.8,1.2-7c-0.1-14.7-13.7-2.7-15.3-2.7c0.4-2.3,0.1-4.5-0.9-6.5c-8.2-1.5,0.6,8.9,0.5,9.3
			c-9.7-3.8-12.4-6.2-11.8-17.5c-1.4,12.7-15.1-5.2-16.9-5c4.8,4.2,3.8,11.4-3.1,10.3c0.3-1.6,2.1-6-0.9-6.3c-2.6-0.3-2,4-2,5.3
			c-8.4,2.7,1.5-20.7-6.1-24.5c-3.5,2.5,2.2,6.7-0.9,8.3c-4.5,2.3-26.6-11.5-26.6-11.5c-2,3.4,9.7,6.7,9.5,9.5
			c-11.3,0.1-9.2,4.3-20.1,5.3c-0.6,0.1-2.5-5.8-4.7-5.4c1.4-0.2-15.8,2.2-7.3,5.7c0,0,8.1-8.7,7.1,2.2
			C381.5,366.7,379.4,367.2,377.1,366.9z M616.4,449.3c3.8-1,4.7-2.5,2.7-4.3C614.7,448.7,615.7,452.6,616.4,449.3z M453.5,329.6
			c-1.4-7.9-0.7,9.6,3.4,3.9C457.5,331.1,456.3,329.8,453.5,329.6z M551.9,384.8c-2.1,0.4-3.9,1.3-5.5,2.8c-1.3,6.8,14.2-9.2,7-7.5
			C551.4,380.6,552,383.4,551.9,384.8z M403.2,271.4c0.4,2.4,5.1,4.7,4.7,1.7c-0.1-0.9-11.6-8.6-11.1-4.5
			C397,270.6,401.9,271,403.2,271.4z M566.1,369.8c-13.7-2.8-5.3-19.9-15.3-23.5c-2.5-0.9-13.7,9.1-12.6,11.5
			c-2.8-6.1,25.5,9.5,10.6,7.9c-2.8-0.3-1-5.1-3.7-6c2.6,0.8-14,1-11.8,0.3c-2.1,0.6,13.2,17.4,13.3,17.4c7.6,1.1,7.9-9,14.6-8.6
			c-0.7,2.9,0.4,4.8,3.2,5.7c-1.7,0,6.6-7.3,6.6-7.2C571.3,364.3,566.3,368.4,566.1,369.8z M630.4,528.5c-2.7-10.1,4,13.8,8.2,7.1
			C639.8,533.7,631.6,528.6,630.4,528.5z M572.1,405c2.7-0.6,6.3,6.9,9.2,3c0.8-1.1-6.4-8.6-6.5-8.6c-12.1,0.7,1.1,16.3,1.3,12.2
			C574.5,409.6,573.2,407.4,572.1,405z M576.1,426.1c1.7,3.8,2.4,0.8,3.7-0.7C578.3,425.7,577.2,425.9,576.1,426.1
			c1.8-3.1-3.9-14-7.7-11.6C563.6,417.5,574.1,425.1,576.1,426.1z M427.3,266.4c0,3.8,5.1,4.3,4.9,2.5c-0.9-6.7-16.4-8.5-13.7,0.4
			c-0.1-0.5,6.5,5.6,6.8,5.5C430.6,272.5,418.7,267.6,427.3,266.4z M694.7,483.4c0.1,0.1,0.3,0.1,0.4,0.2c-8.2-5-2.4-14.4-7.9-18.2
			C687.3,471.9,682.9,481.1,694.7,483.4z M586.2,385.9c0.8-2.6,0-4.6-2.4-5.9C577.3,380.5,582.9,385.8,586.2,385.9
			c-8.1,5.4-9.4,13.9-1.2,19.3c-0.3-4,1.4-6.8,5-8.3c-9.3-7.2,0.5-4.2-0.1-9.5C589,385.9,587.8,385.4,586.2,385.9z M457.5,359.8
			c4.7,4,6,14.4,6.3,14.6c4.7,3.2,6.3-17.7-5.3-17.7c-3.9,0-6.1,15.2,2.8,12C461.9,368.4,457.5,360.9,457.5,359.8z M413.3,266.3
			c6.6,0.4,3.2-17.6-4-19C397.9,245.2,413.2,268,413.3,266.3c-0.1,0-8.1,1.2-4.8,3.4C411.5,270.8,413.1,269.6,413.3,266.3z
			 M496.7,329.6c2.1,0.2,8,8.1,9.8,3.9c1.1-2.6-8.7-4.6-4.4-7.6c1.4-1,7.2-1,6.8,0.6c-0.5,2.2,11.7-9.1,1.6-10.8
			c-8.4-1.4-2.9,11-9.9,0C495.1,317.5,492.7,325.9,496.7,329.6c-0.8,0.1-6.8,0.5-5.6,3.1C495.4,342.1,496.7,329.5,496.7,329.6z
			 M734.9,469.3c-8.6,2.5-27.8,16-12.2,23.6c-3.9-1.9,15.2-4.4,13.8-3.1C751.3,476.6,734.3,483.7,734.9,469.3
			c-0.9,0,18.1-4.1,13-0.2c4.7-3.5,7-5.8,4.6-10.6C748,449.5,735.9,462.7,734.9,469.3z M938.2,404.8c-9.4-2.7,0.2-3.8,1.1-7.2
			c0.8-2.9,12.7-22.1-1.9-23c-4.6-0.3-3.4,8.9-7,9.7c-6,1.3-5.7-4.4-8.6-4.1c-2.5,0.3-15.9,10.5-4.1-2.6c-19.5-10.6,15-5.4,10.3,0.3
			c5.5-6.7-31-22.1-33.1-10.6c-0.5,2.6,7.4,2.9,4.3,6.6c-1.2,1.5-9.4-4.4-11.7-4.6c2.6,7-0.5,7.3,3.8,15.5c2.9-6.1,8.8-5.3,12.4-4.6
			c7.5,1.4,3.4,0.1,4,5.9c0.2,1.7-7.2,3.3-7.4,6.3c-0.1,3.4,5.8,4.3,7.1,6.5c3.3,5.8,13.3,18.9,20.1,19.9c1.7,0.2,1.7-6.4,8.2-4.9
			C935.2,410.5,936,407.5,938.2,404.8z M444,338.1c-4.9-8.1-25.6-15.6-25.4,0.8c0.2,17.1,23.6,0.5,16.3,1c-1.8,2-3.8,3.9-5.7,5.7
			c-10.7-0.9,10.1-9.2,8-8.7c0.6-0.2,15.1,8.8,15,0.4C452.1,330.9,443.9,338.1,444,338.1z M543,336.1c-1.2-0.1-10.6-10.1-10.7-3.6
			c0,1.2,9.1,6,2.2,7c1.2-0.2-12.2-11.3-11.2-7.6c2.2,1.5,4,3.4,5.4,5.6c-0.3,2.1-23.9,17.1-20.3,20.6c6.3,6,12.7-12,13.6-12.2
			c4.3-0.9,11.3,9.4,12.3,7.5c1-1.8-6.7-4.4-2.3-8.5C534.4,342.7,539.8,338.2,543,336.1z M920.8,419c1.2,7.5-10.8,9-9.8,13.8
			c0.6,2.7,9.1,9,12.4,9C941,441.8,924.9,422.5,920.8,419z M489.1,377.8c20.6-3.4-10.5-23.5-11.2-20.8c-0.6,2.3,11.6,5.1,7,9.9
			c-6.4,6.7-9.2-18.2-9.6-0.5c0,0.4,6.3,3.5,7,4.5c1.6,2.7-5.6,5.1-4.2,7.2C479,379.5,485.5,375.4,489.1,377.8z M547.1,416
			c-0.3,9,8.5-4.8,8.3-4.8c2.2-0.7,9.6,4.5,11.2,1.4c0.8-1.6-13.1-13.6-13.9-13.1C544.5,404.6,552,409.3,547.1,416z M492.4,335.8
			c-7,1.6,1.1,29.6,10,20.2C508.6,349.4,490.3,341.6,492.4,335.8z M442.3,287.2c-0.9-0.6-8.5-5.5-3.4-6.7c-2.3,0.5,10.8,6.9,8.3,1.8
			c-1.7-3.3-6.4-7.2-9.2-4.6c-5.1,4.7-4.2,18.1,1.6,22.1c-4.5-3.1,12.1-3.4,9.8-2.6c7.1-2.5-14.5-7.1-11.5-2.8
			C435.7,291.2,440.9,289,442.3,287.2z M415.3,334.6c0.9,0,11.7-12.6,11.5-12.8c-2-2.8-5.9,3.9-7.3,4c-2,0.2-6.5-12.3-9.7-9.4
			C408.4,317.7,411.1,334.9,415.3,334.6z M511.6,387.6c-0.6-5.5-16.6-16.8-17.7-6.6C493.4,386.3,509.2,392,511.6,387.6z
			 M467.4,343.5c-0.4-21.7-25.5,10.3-6.9,7C458.2,351,467.4,340.8,467.4,343.5z M549,305.1c0.9,8.3,12.6,16.2,11.6,23.3
			c6.1-7.9,9.3-4,1-15C556.7,318.4,551.4,308.1,549,305.1z M581.7,437.7c0-1.2-11.8-14.3-13.9-11.6c-2.3,2.9,5.6,3.1,3,6.9
			c-2.3,3.4-6.6-5.7-9.1-2.1C557.3,437.3,580.8,438.6,581.7,437.7z M495.5,359.9c0.1,1.4,6.1,20.8,10.4,13.6c2.4-4.1-7.1-3.6-3.6-8
			c2.5-3.1,6.2,6.2,9.1,2.4C515.5,362.6,494.9,358.9,495.5,359.9z M432.2,278.3c1.1,2.8-20.7-4.6-18-6.5
			c-3.8,2.7,16.2,18.3,16.4,18.1C430.5,290,431.1,280.6,432.2,278.3z M381.1,309.7c-5.9-4.6-6.2,3.5-9.5,5.4
			c0.4-0.2-16.6-6.4-14.2,2.8c1,3.6,8.9-0.4,9.7-0.5C372,316.6,376.5,321.8,381.1,309.7z M619.6,545.4c9.3-3.6,20,4.3,7.8-11.5
			C626,538.7,619.4,539.8,619.6,545.4z M424.6,290.5c-5.7,5.2-5.8,4.7-4.1,9.3c-2.4-6.3,18,2.4,16.2,4.2
			C439.4,301.3,427.8,292.5,424.6,290.5z M366.6,330.7c-8.2-0.2,8.2,15.7,10.8,13.6c-0.4,0.3-2.7-14.8-1-13.9
			c-2.7-1.5-3.1,5.1-5.5,5.1C367.4,335.5,371.2,330.5,366.6,330.7z M417.5,301.8c-1.9-6.1-4.6-7.7-8.1-4.7c0.2,2.6,1.5,4.4,4,5.3
			c-0.4-4.2-6.4,23.1,3.4,11.4C414,317.3,417.4,301.9,417.5,301.8z M452.1,358.1C454.7,334.2,422.5,377.1,452.1,358.1z M422.6,240.6
			c2.7,2.8,4,6.1,3.9,9.8c-4.2,3.7-4.1-5.6-6.7-4.5c-4.6,2,5.8,11.2,6.5,7.8C426.8,250.6,438.9,241.1,422.6,240.6z M728.1,495.1
			c-5.2,2.2-9.9,1.5-14.3-2c0.4,2.9-6.5,7.7-4.5,9.6C708.8,502.2,728,495.5,728.1,495.1z M387.8,328.4c7.8,0.7,14.5,0.2,20.2-5.1
			C404,327,390.9,317.9,387.8,328.4z M411.1,335.4c-1,0.6-2.6,21.2,5,19.1C420.1,353.4,413.7,337.2,411.1,335.4z M440.9,314.6
			c-9.7-1.4,6.9-7.5-0.8-8.9c-7.6-1.4-4.2,18.2,1.2,14.3C447.6,315.5,443.5,315,440.9,314.6z M367.1,321.6
			c-11.8,0.1,14.2,13.3,10.8,1.2C377.2,320.5,366.2,321.2,367.1,321.6z M549.4,426.1c-8.8,0.5,11.7,13.3,10.3,12.8
			C559.9,439,553.7,426.7,549.4,426.1z M390.2,335.8c0.3,0-1.8,13.7-0.9,14.3C392.3,352,399.7,336.3,390.2,335.8z M448.2,324.3
			C443.7,314.8,429.1,341.2,448.2,324.3z M555.5,342.7c2-3.9,11.8-6.6,12.3-9.8C568.6,326.9,554.6,335.9,555.5,342.7z M566.7,402.2
			c-0.1-5.3-10.7-7.5-10.5-4.4C556.4,401.2,568.2,405.8,566.7,402.2z M564.2,340.2c-0.1,0-8.1,7-7.9,7.7
			C557,350.8,572,345.1,564.2,340.2z M559.3,414.1c-7.3-0.3,2.2,11.3,5.5,10.8C569.8,424.2,561.8,414.2,559.3,414.1z M664.7,434.4
			c-3.7-1.5-17.6,5.2-11.4,8.1C656.5,444,662.4,436.4,664.7,434.4z M924.7,366.4c0.4,0.5,8,8.1,7.8,8.2
			C938.3,374.4,936.3,356.8,924.7,366.4z M406.1,301.7c-8.1-1.1-7.4,9.8-5.8,8.1C400.6,309.4,411.5,302.6,406.1,301.7z M538.7,376.8
			c-0.6,0.2-10.5-0.1-10.4-0.2C527.6,377.6,535.6,393.8,538.7,376.8z M499.9,335.6c-5.9,0.4,2,10.6,7,8.7
			C511.3,342.7,500,335.7,499.9,335.6z M513.1,344.3c2.5-2.2,4.9-4.5,7.3-6.8c-0.2,0.1-13-0.3-11.6-1.4
			C507.4,337.2,512.3,344.5,513.1,344.3z M471.6,344.9c-9.3,5.3,4.2,9.9,4.7,8.9C476.4,353.6,472.6,344.9,471.6,344.9z M390.5,217.7
			c0.4,2,12.2,18.8,12.6,10.6C403.1,228.9,391.6,217.5,390.5,217.7z M385.7,339.7c-2.2,0.6-9.7,7.9-5.7,10.4
			C381.7,351.2,390.8,342.3,385.7,339.7z M400.7,321.1c0.8-1,7.4-7.6,7.1-8.1C404.4,305.8,394.4,321,400.7,321.1z M636,431.7
			C620.4,425.5,629,450.4,636,431.7z M547.6,382.5c0.1-6.5-9.7,1.2-9.4,5.3C541.5,390.7,544.7,389,547.6,382.5z M411.4,240
			c9.3-5.9,3.6-9.9,2.4-7.8C413.2,233.3,407.7,240.7,411.4,240z M571.1,375.9c-0.5,0.7-1.7,13.3-2.7,13
			C576.8,391.1,572.7,378.5,571.1,375.9z M514.5,364.7c0.3-0.1,7.3-7.5,7-8C518.7,351.2,507.1,364.5,514.5,364.7z M517.6,381.9
			c-1.2-1.8-6.6-7.4-9.1-5.6C506.9,377.5,514.1,390.5,517.6,381.9z M385,310.7c-1.8,0.1-7.7,7.7-5.1,9.3
			C381.6,321.1,392.6,312.4,385,310.7z M408.3,292.6c-0.3-1.5-9.3-8.5-10.5-5.4C396.9,289.4,407.5,296.8,408.3,292.6z M489.9,388.9
			c5.3-0.6-2.9-8.9-4-8.8C481.3,380.9,487,389.1,489.9,388.9z M468.6,379.5c4.5-1.3,7.1-4.1,7.9-8.4
			C474.5,363.4,467.7,383.2,468.6,379.5z M401.2,338.8c0.9-0.7,8.7-6.2,5.5-8.5C407.1,330.6,391.8,337.9,401.2,338.8z M697.7,544.8
			c-0.8,3.1-2.9,4.6-6,4.7c4.9,5.2,8.7-2.5,13.8,0.6C702.6,548.6,699,548.9,697.7,544.8z M544.9,290.9c0,4.6,7.8,12.4,8,7.7
			C553.1,295.3,546.8,295,544.9,290.9z M859.5,319.5c-1.1-6.6-9.3,3.7-7.3,4.9C855,325.9,859.2,321.7,859.5,319.5z M885.9,372.2
			c-4-1.3-14.3,5-10,6.4C875.4,378.5,884.3,372.5,885.9,372.2z M906.5,417.8c5.5-1.7,7.3-4.2,5.6-7.3
			C898.5,410.8,908.3,416.9,906.5,417.8z M441.2,347.1C425.1,347.9,438.6,362.3,441.2,347.1z M548.1,396.9c2.5,2.8,9.8-2.6,7.5-6
			C551.6,390.3,549.1,392.3,548.1,396.9z M394.5,351.1c0.6-0.6-7.3,4.9-5.8,7C391.5,362.2,399.8,351.5,394.5,351.1z M386.4,321.1
			c0.2,0-9.2,5.8-6.4,7.2C383.7,330.1,387.7,324.4,386.4,321.1z M563.3,383.1c4,5.8,4.8-5,4.1-4.8
			C564.2,378.3,562.9,379.9,563.3,383.1z M908.7,446.6c0-6.1-10.2,2.3-7.4,5C902.4,452.7,908.7,447.5,908.7,446.6z M454.4,309.4
			c-0.4-6.6-11.1-1.6-7.6,2.2C447.4,312.2,453.7,310,454.4,309.4z M401.8,237.7C393.8,251.8,418.4,237.6,401.8,237.7z M874.8,396.5
			c2.2,0.7,12.9-3.5,7.4-6C879.4,392,876.9,394,874.8,396.5z M466.3,351.8c-9.2,1.2,7,10.4,5,5.6
			C469.6,355.6,467.9,353.8,466.3,351.8z M770.1,446.2c-0.3-3.5-5.8-3.6-5.5-0.5C765.7,454.9,769.9,447.3,770.1,446.2z M546.7,341.9
			c-0.6-8.8-9.2,2.6-3.8,2.7C544.2,343.7,545.4,342.8,546.7,341.9z M523.1,352.4c1.6,4.2,4.3,6.1,8.1,5.9
			C534.6,355.7,523.2,352.4,523.1,352.4z M556.5,424c0-1.8-0.8-3.1-2.6-3.8C547.3,420.2,557.7,429.5,556.5,424z M407.9,342.9
			C399.7,330,408.8,352.8,407.9,342.9z M578.3,337c2.3-2.1-10.8,7.8-4.6,6.5C576.5,342.4,578.1,340.2,578.3,337z M898.5,387.4
			c-1-0.3-9.7,1.4-7.1,4.6C892.7,393.6,898.3,388,898.5,387.4z M914.2,417.3c-0.7,5.3,9.5-2.2,2.5-3
			C915,414.6,914.2,415.6,914.2,417.3z M446,299.6c-2.8,1.6-3,3.4-0.8,5.5C447.8,305.4,448.3,300.2,446,299.6z M544.3,390.1
			c-3,1.6-3.1,3.2-0.4,4.7C546.5,393.5,546.6,391.9,544.3,390.1z M588.4,414.2c-2.8,1.7-2.9,3.3-0.2,4.8
			C590.9,419,590.7,414.5,588.4,414.2z M411.1,285.6c-2.4,1.7-2.3,3.2,0.1,4.6C413.9,288.6,413.8,287.1,411.1,285.6z M758.1,469.2
			c2.6-1.5,2.4-3-0.4-4.7C755.3,465.9,755.5,467.5,758.1,469.2z M569.9,329.2c0-0.1,7.4-3.6,0.2-3.6
			C566.6,327.2,566.6,328.3,569.9,329.2z M405.1,284.4c1.5,0.4,2.5-0.2,2.9-1.7c-1.2-1.3-2.6-1.7-4.2-1
			C400.3,283.2,404.7,284.4,405.1,284.4z M576.1,392.3c-0.2-5.9-3.4,0.6-3.6,1.1C573.8,395.7,575,395.3,576.1,392.3z M436.3,363
			c-0.2-0.6-3.1-5.7-3.7-1.2C433.7,365.1,434.9,365.5,436.3,363z M557.4,377.1c2,2.3,3.5,2.3,4.5-0.1
			C560.2,374.3,558.7,374.3,557.4,377.1z M562.2,386.1c-2.1-0.6-4-0.3-5.8,0.8C555,388.6,560.6,388.5,562.2,386.1z M811.4,416.5
			c-3.1-0.8-5-0.1-7.2,2.1C807.2,419.3,809.2,419.2,811.4,416.5z M601.9,387c-1.9-1.6-3.4-1.4-4.3,0.6
			C598.1,389.5,602.2,389.2,601.9,387z M898.6,446c-1.4-2.1-2.6-1.8-3.7,1C895.3,451.8,898.3,446.5,898.6,446z M448.2,288.1
			c1.8,0.8,3.4,0.6,4.9-0.6C452.5,284.5,450.8,284.7,448.2,288.1z M517.7,325.6c-2,3.9,2.1,5.5,2.5,4.5
			C520.2,328.2,519.3,326.7,517.7,325.6z M568.2,443.2c-1.7-1.8-3.9-2.7-6.3-2.6C557,442.1,570.6,443.3,568.2,443.2z M438,254.9
			c-0.1,0.4,1.5,8.7,2.7,4.9C440.7,257.7,439.8,256.1,438,254.9z M590.2,406.5c-4-1.3-5.4-0.6-4.3,2.1
			C587.3,407.9,588.8,407.2,590.2,406.5z M561,310.3c-0.9-2.8-2.4-3.4-5.9-3.2C557.6,308.5,558.4,310,561,310.3z M515.5,330.9
			c-1.1,0.9-2.2,1.8-3.3,2.8C513.7,335.4,514.8,334.5,515.5,330.9z M540.1,350.7c1-2,1.2-3.4-0.4-4.7
			C538.8,347.6,538.5,349,540.1,350.7z M579.7,387.2c-0.8-1.7-1.9-1.7-3.4,0C577,389.1,578.1,389.1,579.7,387.2z M888.3,387.9
			C888,383.6,884,390,888.3,387.9z M576.2,332.6C571.7,330.1,577.5,338.1,576.2,332.6z M553.3,301.9
			C552.7,306,555.8,305.3,553.3,301.9z M887.7,396.2C885.6,398.8,889.3,398.8,887.7,396.2z M700,566.7
			C697.6,563.5,697.5,568,700,566.7z M941.1,420.3C938.8,422.5,942.4,423.2,941.1,420.3z M707.8,545
			C706,546.4,709.1,546.6,707.8,545z M932.5,442.5C931.7,440.5,930.5,443.2,932.5,442.5z M773.3,442.7
			C771.7,441.7,771.6,443.5,773.3,442.7z M938.6,402C938.1,401,937.9,402.9,938.6,402z M491.4,328.3
			C492.4,328.6,491.7,327.4,491.4,328.3z M922.2,364.5C921.8,365.5,923.2,364.6,922.2,364.5z"/>
		<path class="st2" d="M457.5,384.6c16.5,12.5,41.1,18.5,59.1,29c20,11.6,24.1,27.1,38.3,42.8c22.9,25.2,44.1,43.1,58.3,76.3
			c1.8,4.3,19.3,49.1,20.2,47.2c-17.6,0-15.3-12.4-19.4-28.1c-3.8-14.6-9.4-28.6-17-41.7c-15-25.9-41.4-49.6-72.1-53.6
			c-44.3-5.7-23.2,39.1-7.2,58.6c8.3,10.2,15.3,22.2,23.6,31.9c8.8,10.3,23.9,18.2,26.8,32.8c-13.2,0-32.1-36.4-41.5-48.3
			c-15.8-20.2-38.7-42.4-64.8-47.7c-27.5-5.6-43.7,13.9-38.7,41c1.6,9,36.9,61.8,41.5,55.1c-0.6,0-42.9-3.2-32.6-13.6
			c-0.1-0.1,15,12.2,16.4,10.1c1.5-2.2-17-17.4-18.1-18.8c-9.6-12.1-14.3-25.9-15.2-41.4c-8.3,4.6-8.6,26.7-7.1,34.5
			c1.8,9.2,16.6,22,15.4,29.2c-6.7,0-13.1-18.4-18.6-14.7c-7.4,4.9,4,12.1,3.5,14.7c-18,0-11-5.4-9.9-17.8
			c0.8-8.8,2.9-13.4,0.9-22.6c-1.9-8.8-8.1-21.4-15.2-27.7c6.8,1.4,11.5,7.7,19.3,7.6c-2.2-1.2-25.9-13.5-21.9-17.3
			c1.3-1.2,19.2,12.8,23.1,13.1c-4.5-6.5-15.3-19.1-21-25.3c-10.6-11.5-21.4-11.2-36.4-15c-0.8,3.8,13.9,15.1,16.2,18.3
			c6.3,8.8,10.5,19,13.6,29.3c4,13.2,13.7,57.6-3.9,57.6c-6-21.8,3.4-47.1-5.4-70.1c-8.9-23.2-30.2-38.8-55.5-38.1
			c-20.1,0.6-34.4,14.8-25.5,34.9c11.1,24.9,28.3,42.9,27.1,73.3c-9.8,0-8.8-23.6-11.4-32.5c-3.5-12.2-7.9-23.7-16.1-33.6
			c-14.6-17.7-41.1-31.2-64.4-27.4c-21.9,3.5-36.1,21.4-34.2,43.5c0.6,6.3,23,53.8,27.6,50.1c-11,0-22.8-17.2-29.2-27.8
			c-10.1-16.5-7.1-31.8-0.1-49.3c-23.3,13-29.3,46-12.3,66.6c-10.6,3.5-7.9-20.4-17.3-19.2c-8.1,1-12.9,26.4-3,28.8
			c-5.2,13.5-10.7-12.2-10.3-10.5c-1.9-8.7,2.6-13.9,6-21.1c2-4.2,7.1-3.4,9-7.9c2-4.6-3.3-24-3.6-23.4c1-1.7,6.9,1.1,8.9-0.9
			c-8.7-5.2-19.8-7.3-24.6-17.4c2.3-0.9,27.1,18.1,29.1,10.6c0.5-2.1-31-15-25.8-20.5c-0.3,0.3,26,13.1,27.9,13.6
			c-6.9-5.1-24.4-10.9-24.1-21.7c4.3,3.9,22.4,20.6,28,15.9c-18.7-13.8-32.3-25.9-43.2-47.4c-6.2-12.2-11.6-25.2-14.7-38.6
			c-1.7-7.3-2.9-14.4-2.5-21.9c0.3-4.9,5.4-16.9,3.1-21.1c-33.8,23-21.5,70.1-8.3,100.1c-13.1,2.7-9.9-29.7-17.9-30.7
			c-15.1-1.8-2.5,43.5-1.7,43.1c-4.8,2.4-10-22.3-10.3-24.8c-1.4-15.3,6.1-17.9,10.2-30.2c1.4-4.3,4.2-32,2.9-36
			c-3-9.1-12.1-6.7-16.5-15.6c7.3,1.4,10.9,8,19.2,5.3c-7.4-4.1-17.3-4.9-20.9-14.6c8.2,4.4,16.1,9.6,26.1,7.8
			c-7.9-3.7-17-5.3-21.9-13.8c8.6,4.3,17.1,8.5,27,8.5c-7.2-3.6-15.7-5.2-20.4-12.8c7.3,2.2,13.4,7.7,22.7,7.7
			c-18.3-8.9-35.9-16-48.1-33c-5.7-7.9-13.3-38.4-18.8-39.8c-12.2-3.1-14.1,42.3-13.1,47.3c1.7,8.3,5.2,17.5,11.9,23.1
			c4.6,3.8,17.2,4,19.4,9.2c-9.3,1.6-28.8-14.1-30.8-7c-3.1,11,18.4,17.3,20.7,25.3c-15.6,4.2-23.9-22.1-25.8-30.4
			c-3.3-14.6-1.8-23.2-14.5-31.4c0.8-3.1,8.7-2.1,8.3-4.9c-0.4-2.6-6.3,1.1-7.2-1.1c-1.6-3.9,9.7-9.8,9.4-11.2
			c-2.8-1.5-5.8-2.2-9-1.9c4.2-1.9,8.2-4.1,12-6.8c-4.3,0.6-8.7,0.8-13.1,0.6c0.4-4.9,16.9-1.3,16.1-6c-0.3-2.1-11.3-1.2-13-1.9
			c6.6-5,15,0.8,21.4-4.6c-11-6.3-23.6-2.1-35.3-2.7c0-17.5,36.5,1.1,44.9-2.7C46,279,51.3,265,55.9,261c7.3-6.3,21.6-6.4,27.5-12.2
			c11.8-11.7-11-19.1-23.5-21.2c-21.2-3.6-42.6,4.9-62.6,10.5c0-11.1,63.3-21.7,76.4-24.8c14.8-3.5,34-5.7,48.9-1.5
			c11.6,3.3,17.8,12.6,28.1,17.5c11,5.2,22.4,4.3,33,12.1c12.1,8.9,19.2,16.3,33.4,21.5c14.1,5.2,27.6,7,36.9,20.2
			c9,12.7,3.5,25.5,10.6,38.3c6.4,11.4,11.1,17.5,15.3,30.8c3.3,10.7,8.9,33.1,21,37.2c11.4,3.9,19.9-8.6,30.2-14.4
			c12.1-6.8,23.3-9.7,36.7-10.7c8-0.6,6.7,2.2,15.3,0.8c9.1-1.4,16.8-9.8,27-7.8c12.3,2.5,8.9,10.7,17,16.9
			C433.7,379.3,450.6,381.9,457.5,384.6z M124.4,218.6c-24.9-4.3-44.3-2.9-68.7,4c14.9-1.2,42-6.6,56.1-1c21.3,8.6,1.8,18-9.7,12.4
			c2.6-1.1,5.1-2.2,7.6-3.5c-7.2-3.9-27.5-4.4-35.9-4.4c7,9.4,20.9,23.5,33.1,20.5c1.1-0.3,33.7-22,33.3-18.1
			C140.9,223,127.2,218.7,124.4,218.6z M471.6,414.1c-4.1,1.3-6.3-5.5-10.8-2.4c0.8,0.7,40.8,31.3,34.5,36.2
			c1.5-1.2-37.6-33.1-41.6-35.5c-8.2-4.9-61-30.7-23.1-23.3c24.2,4.7,48.1,19.8,68.1,33.4c4.7,3.2,40.2,30.8,44.8,27.2
			c12.6-9.7-77.1-56.7-84.9-60c-17.7-7.5-35.8-12.8-55-14.3c-19.8-1.5-31.9-0.7-11.2,9.9c16.9,8.7,33.2,14.5,47.6,27.7
			c15.7,14.4,22.5,32.4,33.1,50.3c17.6,29.6,21.9-15.6,48.3-17C514.2,439.3,473.7,406,471.6,414.1z M161.2,349.8
			c-18.3-4.8-34.3,17.1-37.9,31.5c-4.8,19.2,0.1,39.8,7.3,57.7c7,17.4,17.1,33.6,33.4,43.9c23,14.5,30.1,3.6,51.7-2.8
			c12.3-3.6,34.1,5.4,39.9-3.9c11-17.7-18.9-45.1-25.4-57C213.6,389.4,204.1,348.2,161.2,349.8z M369.8,415.3
			c1.7,0.7,22.4,6.6,20.7,10c0.1-0.2-61.7-18.3-28.8,7.9c3.8,3.1,57.8,24,47.4,35.6c5.5-6.2-56.6-32.8-61.2-35.6
			c-23.5-14.4-6-28,15.8-27.4c24,0.6,40.9,15.9,57.7,31c16.5,14.8,43.6,21.4,22.8,40.8c0.7,0.7,24.6,1.3,24.9,0.7
			c3.4-5.4-3.8-21.1-5.7-25.8c-7.6-18.9-21.5-34.2-38-45.9c-19-13.4-100.1-40.2-104.4,0.1c-0.2,1.6,9.3,18.6,9.7,19.9
			c2.5,8-0.2,22.3,3.4,29.1c7,13.1,28.5,13.6,40.8,21.6c8,5.2,23.5,33.7,33.5,32.9c6.4-0.5,8.8-11.1,12-14.3
			c7.3-7.5,13.7-11.9,22.5-17.6c-3,0-5.4-1.1-7.2-3.3c17.7-4.9-11.3-28.3-19.1-36.3C406.5,427.9,385.4,413.7,369.8,415.3z
			 M281.5,472.3c5.2,0.7,27.8-5.1,32.3-7.7c9.3-5.2,12.4-7.9,13.6-19.8c2-18.9-8.6-33.4-20.8-45.9c-15.2-15.7-21.8-27.3-30.3-47.6
			c-6.2-14.9-13.1-29.6-29.9-34.7c-14.3-4.3-27.2,1-34.4,14c-13.2,23.9,0.7,40.9,10.7,61c8,16.2,15.4,28.3,25.1,43.4
			C258.3,451,257.5,472,281.5,472.3z M87,254.6c-14.3-3.8-31.5,10-36.3,22.3c-6.5,16.6,2.2,34.1,12.3,47.3
			c9.5,12.5,22.3,21.7,37.1,26.7c20.4,7,29.7-0.1,48.6-5.9c10.4-3.2,23.2,0.5,28.9-8.5c7.3-11.6-6.5-30.4-14.9-37.4
			c-11.4-9.6-26.9-12.2-38.3-21.9C112.2,267,105.8,251.9,87,254.6z M144.6,234.2c-47.5-4-28.8,36.2-1.9,51
			c15.6,8.5,27.7,12.2,38.2,27.4c8.5,12.5,8.7,20.4,26.4,10.4c6-3.4,8.5-9.5,15.5-12.3c7.5-3,19.3,1.6,25.8-2.6
			c17.7-11.4-2.5-29.4-13.6-35.3c-13.3-7.1-27.9-7.7-40.4-16.8C176.2,242.5,169.4,234.2,144.6,234.2z M372.1,376.9
			c-1.5-18.8-65.5,12.2-61.2,18.9c4.6,7,20.1-7.9,26.4-10.3C341.6,383.9,372.7,381.3,372.1,376.9z M380.2,371.6
			c7.1-0.2,37.3,2.3,36.4-3.5C414.7,356.4,385.2,369.4,380.2,371.6z M278.1,484.5c0.1,0-17.2-8.3-17.9-7
			C257.7,482.5,278.4,484.4,278.1,484.5z M261,471.2c3.9,5.5,15.1,9.1,20.3,6.6C273.6,477.5,267.4,474.1,261,471.2z M258.5,482.4
			c4.4,5,10.3,7,16.8,7.4C269.3,488.4,264,485.2,258.5,482.4z M204.9,336.3c-4.3,5.7-3.9,10.6-2,15.5
			C203.2,347.1,202.4,342.2,204.9,336.3z M458.5,405.8c3.4,1.7,6.7,3.4,10.1,5.1C465.8,407.9,462.5,406.2,458.5,405.8z M335.4,467.6
			c-0.6-0.4-8.7-2.3-7-1.2C330.9,468.8,333.3,469.2,335.4,467.6z M199,341.4c-0.6,3.5-2.9,6,0,8.4C199,347.3,199,344.9,199,341.4z
			 M378.7,373.3C378.2,372.4,376.9,374.2,378.7,373.3z"/>
		<path class="st3" d="M173,495.6c-10.8-0.3-19.8-8.9-27.2-15.7c-0.2,10.4,17.5,16.8,24.1,21.7c-3.5-1-27.2-14.3-27.9-13.6
			c-5.2,5.4,26.4,18.3,25.8,20.5c-1.9,7.5-26.8-11.5-29.1-10.6c4.8,10.1,15.9,12.2,24.6,17.4c-2,2.1-7.9-0.8-8.9,0.9
			c1.4-2.3,4.3,14.2,4.3,13c0.8,15.5-0.1,7.3-3.3,14.6c-2.8,6.4-10.7,6.9-12.5,16.9c-1.2,6.5,1.6,13.1,3.1,19.3
			c-13.3,0-34.6,4-47.2,0c-1.6-4.1-4.4-7.3-8.2-9.5c-4.1-1.2-8.2-1.4-12.3-0.5c1.7-0.5,15.7-3.3,15.6-3.1c1.5-3.8-7.2-3.3-6.9-7.2
			c0.3-3.2,8.2-0.9,7.8-5.5c-0.3-3.9-5.2-2.7-5.9-7.8c-0.9-6.2-0.7-12.3-1.6-18c0.5,3.2-3.7-15.6-1.9-13.1c-2.1-2.9-11-4.3-10.9-5.6
			c0.9-6.4,10.8-4.7,11.2-7.5c0.3-2.6-53.8-33.2-54.9-31.1c-3.1,6.4,27.5,18.5,23.7,24.9c-3.3,5.6-35.6-26.1-37.1-26.1
			c-13.5,0.6,1.7,13,1.7,12.5c0.2,5.6-22.2-12-17-12c-1.1,2.2-2.6,3.9-4.7,5.2c0-40,0-80,0-120c0-18,0-36,0-54
			c0-14.7-2.8-14.7,9.2-18.7c7-2.3,20.1-0.1,26.1,3.3c-6.4,5.4-14.8-0.4-21.4,4.6c1.7,0.7,12.6-0.2,13,1.9c0.8,4.7-15.8,1.2-16.1,6
			c4.4,0.2,8.7,0,13.1-0.6c-3.8,2.6-7.8,4.9-12,6.8c3.3-0.3,6.3,0.4,9,1.9c0.4,2-11,7.2-9.4,11.2c0.9,2.3,6.8-1.5,7.2,1.1
			c0.4,2.8-7.5,1.8-8.3,4.9c12.5,8.1,11.3,16.6,14.5,31.4c1.9,8.6,9.6,34.7,25.8,30.4c-2-6.6-24.8-16.6-20.7-25.3
			c3-6.3,21.7,8.6,30.8,7c-2.2-5.2-14.8-5.4-19.4-9.2c-6.7-5.6-10.2-14.8-11.9-23.1C25.4,328,28.3,285,39.9,288
			c4.4,1.1,14.3,33.6,18.8,39.8c12.3,17,29.8,24.1,48.1,33c-9.3,0-15.4-5.4-22.7-7.7c4.7,7.6,13.1,9.2,20.4,12.8
			c-9.9-0.1-18.4-4.2-27-8.5c4.8,8.5,13.9,10.1,21.9,13.8c-10,1.9-17.8-3.4-26.1-7.8c3.6,9.8,13.4,10.5,20.9,14.6
			c-8.4,2.7-11.9-3.8-19.2-5.3c3.6,7.2,13.9,5.8,16.9,12.7c1.4,3.1-2.6,36.6-3.3,38.9c-3.3,9.8-10,13.4-10.5,25.3
			c-0.1,3.1,5.1,32.4,10.6,29.7c-0.8,0.4-13.4-45,1.7-43.1c8,1,4.8,33.4,17.9,30.7C95,437,82.7,389.8,116.5,366.8
			c3.5,6.5-3.6,28.3-2,37.5c2.6,15.2,9.2,30.6,16.1,44.2C141.7,470.1,157.6,479.7,173,495.6z M24.7,425.1c0.7,0,0.4-18.4,0.4-17.8
			C24.4,407.3,24.7,425.6,24.7,425.1z M58.2,462.3c0.1-3-0.9-4.8-4.2-4.6C54.1,460.7,57.7,460.1,58.2,462.3z M57.4,421.2
			c-0.9,0-0.5,12.8-0.5,12.8C57.8,434,57.4,421.2,57.4,421.2z M74.8,372.2C73.9,370.6,73.6,372.7,74.8,372.2z"/>
		<path class="st3" d="M1189.1,579.9c-9.7,0-19.4,0-29.1,0c-0.3-10.7,15.1-16.5,13.4-28.9c-1.8-13.4-5.3-10.2-4.9-25
			c0.3-11.9-0.6-21.7-5.6-32.7c-3-6.7-7.1-9.7-7.6-17.6c-0.3-5.9,6.3-14.3,2.5-19.7c-2.2,6.7-3.7,14.3-8.3,20
			c1.1-10.1,4.8-19.8,4.7-30c-4.3,8-5.2,17.3-10.6,24.8c5.1-10.9,4.3-23.1,5.7-34.8c-3.4,1.8-6.9,32.3-11.5,30.6
			c5.5,2-1.8-49-1.7-50.5c1.3-10.7,10.6-20.1,13.9-30.8c1.3-4.2,2-28,4.4-29.7c11.1-7.9,32.2,17.4,34.8,27.8
			c2,8.2-15.6,60-17.9,58.2c3.2,2.5,7.7-12.2,13.8-8.2c5.3,3.4-7.9,18.5-9.8,21.2c10-3.7,14.5-15,16.1-24.8c0.4-2.5-3.3-8.8-3-12.4
			c0.4-6.6,5.1-13.8,5.8-21c1.2-13,1-19.3,4.8-30.9c-0.6,1.8,1.5-18.6,4.5-14.1c-1.5-2.3-7.4,3.9-9.4,3.8
			c2.7-5.7,10.3-6.9,11.5-13.7c-7,0.6-19.7,20.1-26.9,13.6c16-3.9,22.8-24.5,35.2-34.2c4.8-3.8,36.1-21.3,40.9-19.7
			c32.1,10.8-36.5,60.5-37,59.6c3.2,6.4,15-12.7,17.7-3.5c1.5,5-11.7,14.7-9.7,17c4,4.7,27.6-30,30.2-32.7
			c3.7-3.9,25.3-19.7,18.6-20.1c3-3,4.3-3.6,9.1-4c0,30.8,5.5,67.6,0,97.8c-1.1,5.9-20.2,29.5-22.4,27c2.5,2.8,14.7-7.7,16.9-1.4
			c1.6,4.3-21.6,17.3-21.4,17.6c-3.2-4.2,4.7-4.3,2.9-7.4c-2.1-3.4-19.8,34.3-21.3,35.8c-3.7,3.4-9.9,2.3-14.3,7.2
			c-2.6,2.8,2.4,6,0.9,8.2c-1.9,2.8-17.5,13.6-17.3,14.4c0.9,3.8,3.8-1,2.8,4.3c-0.5,2.5-7.3,1.3-5.9,5.3c0.5,1.6,8.1,0.2,7.5,1.9
			c2-6.4-2.8,12.2-2.3,3.8c0.1-2.1-6.3,25.7-4.7,24.6c-2.9-12-22.3,5.6-20.3,8.1c1.1,1.3,17.1-2.6,19.5-2.7
			c-2,4.6-23.3,6.3-0.7,13.8C1204.6,584.8,1191.5,571.2,1189.1,579.9z M1184.3,536.4c0.9,0,0.5-12.8,0.5-12.8
			C1183.9,523.6,1184.3,536.4,1184.3,536.4z"/>
		<path class="st2" d="M1283.5,317.6c-0.1,0-10.5,1.7-9.6,4.5c1.8-1.9,5.1,0,2.3,2.1c-6.9,5.4-11.9,8.8-18.3,15.4
			c-3,3.1-28.8,38.9-32.3,34.8c-1.9-2.2,11.1-12.3,9.7-17c-2.8-9.5-14.3,10.2-17.7,3.5c-0.4-0.8,69.9-46.4,37-59.6
			c-4.7-1.9-36.3,16-40.9,19.7c-12.1,9.4-19.7,30.4-35.2,34.2c7.2,6.4,19.8-13,26.9-13.6c-1.2,6.8-8.8,8-11.5,13.7
			c2,0.1,7.8-6.1,9.4-3.8c-2.2-3.3-4.4,15-3.8,13.4c-4.5,12.6-4.3,16.9-5.4,31.6c-0.6,7.4-5.1,14.2-5.8,21c-0.4,4,2.5,8.3,2.1,10.8
			c-1.6,10.1-2.8,21.9-15.1,26.4c2.2-3.2,15-17.9,9.8-21.2c-5.8-3.7-10.9,10.6-13.8,8.2c2.2,1.8,19.9-50,17.9-58.2
			c-2.6-10.4-23.7-35.7-34.8-27.8c-2.4,1.7-3.1,25.5-4.4,29.7c-3.2,10.6-12.5,20.1-13.9,30.8c-0.2,1.5,7.1,52.5,1.7,50.5
			c4.9,1.8,7.3-28.4,11.5-30.6c-1.4,11.7-0.6,23.8-5.7,34.8c5.4-7.5,6.3-16.8,10.6-24.8c0,10.2-3.6,19.9-4.7,30
			c4.6-5.6,6.1-13.3,8.3-20c3.9,5.7-2.8,13.6-2.5,19.7c0.3,6.3,2.8,8.5,5.1,14.2c6.6,16.5,5.3,23.4,7,40.6
			c1.5,14.6,12.5,49.4-15.5,49.4c-0.6-0.7,24.6-29.6,11.8-32.3c-4.6-1-7.2,15.6-15.3,15.2c13.7-19.2,23.3-45.2,10.4-67.3
			c-4.9-8.3-47.4-42.6-55.8-25.1c1.1-2.3,18.5,32.6,18.5,37.8c0.1,22.3-10.2,47-15.4,68.5c5.5-8,6.6-17.9,11.8-26
			c-2.7,16-1.2,29.2-18.3,29.2c1.4-26.3,20.1-50.4,17-76.8c-2.8-23.7-23.5-39.4-46.7-33.2c-23.2,6.2-44.3,28.3-57,47.7
			c-6.9,10.5-12.1,22-15.4,34.1c-3.2,11.8,1.3,28.2-12.4,28.2c-0.1-28.4,19.8-46.4,27.7-71.2c5.9-18.4-8.6-41.3-29.1-41.6
			c-22.1-0.2-41.9,23.1-53,39.6c-8.1,12.1-14.7,25.2-18.7,39.2c-3.2,11-1.2,33.9-12.3,33.9c0-23.2,8.4-45.2,18.9-65.6
			c-11,4.3-19.5,10-29.6,13.4c5.2,2.7,8.1-3,13.1-2.2c-2.6,3.2-6,5.5-9.9,6.7c0.4,0,5.9,4,5.9,4c-4.2,14.3-11.9,28.2-9.6,43.6
			c0.1,0-12.5-6.4-11.7-4.8c0.4,0.9,12.8-21.5,12.9-21.9c1.8-10.6-1.8-26.5-12.9-30.9c4,18.8-29.6,57.5-43.6,57.5
			c-0.1-0.1,63.8-51.8,26-68.4c-17.3-7.6-39.1,11.8-50,23.6c-8,8.7-23.9,44.8-31.3,44.8c-5.9-27.7,52.9-51.6,45.2-79.2
			c-6.4-22.8-32.6,0.7-44.2,7.8c-0.9-0.3-1.2,0.1-1.1,1c0.8-1.2-0.2-0.2-3,3c-11.2,6.3-20.2,20.3-26,31.9
			c-4.1,8.1-4.2,18.2-7.9,25.9c-0.1,3.2-0.1,6.4-0.2,9.6c-4.6,2.5-8.1,2.4-10.3-0.3c0.4-4.6,3.6,3.7,4-7.7c0.3-6.5,3.9-15.3,6.4-21
			c6.1-13.7,16.9-26.6,26.6-37.9c12.2-14.3,24.2-23.7,43.5-27.4c5.6-1.1,9.1,1,14-0.8c3.7-1.4,11.1-8.5,15.9-11
			c26.9-14.1,54.6-10.8,81.5-8.8c8.3,0.6,15.4-2.7,23.9-2.8c10.4-0.1,17.4,6.1,27.3,1.6c11.6-5.2,6.6-7.2,4.2-19.1
			c-5.8-28.7,0-61,15.7-85.7c12.5-19.9,29.6-24.9,47.8-36.9c12.8-8.4,17.3-25.8,31.4-38c16.5-14.2,36.2-24.7,56.6-32
			c9.7-3.5,23.8-3.3,32.6-7.5c4.2-2,3.1-6.8,7.9-9.4c16.7-8.8,113.7-17.7,113.7,7.3c-4.4-2-9-3.6-13.7-4.8
			c8.5,9.8-20.6,4.8-24.4,5.2c-7.4,0.8-45.6,16.6-45.9,10.1c-0.1-3.7,39.3-9.1,38.5-13.4c-1.2-5.9-27.3-0.6-30.8,0.7
			c-17.6,6.5-3.6,3.3-11.5,9.6c-7.8,6.2-9.4-6.8-7.9-9.8c4.2-8.5,50.7-6.9,58.2-6.9c-4.2-9.1-75.7-1.8-75.8,9.4
			c0,1.6,17,8.8,20,11.2c13.8,11,6.1,12.6,22.8,2.6c10.9-6.6,70.6-22.5,70.6-6.1c-10.2-1-85.8-1.3-72.8,19.7
			c2.2,3.6,30.3,6.4,36.1,9.7c3.6,2,5.8,8.9,9.5,10.2c9.2,3.5,18.2-1,27.3-3.5c0,10.8-19.9,10.8-18.8,15.3c1.3,5.5,15.7-3,18.8-2.2
			c0,4.6-11.2,8.1-10.8,9.7c2.5-0.9,8.3-3,10.8-2.7c0,6.3-5.3,2-7.1,7.9c2.4-0.4,4.8-1,7.1-1.9
			C1283.5,314.2,1283.5,315.9,1283.5,317.6z M932.8,493.4c4.3,2.1,4-6.7,2.9-9.1c-1-2.2-21.8-2.4-22.4-2.4
			c-12.2-0.1-46.7,3.3-51.1,18.5C852,535.9,941.3,510.4,932.8,493.4z M981,413.8c1.1,17.9-0.5,39.6,15.4,50.8
			c10.6,7.4,27.8,8.9,39.3,3.1c19.3-9.7,13.7-24.1,13.8-41.7c0.1-17.3,5.8-34.7,14-49.8c6.4-11.8,21.9-25.4,13.4-40
			c-8.1-13.8-29.8-9.9-41.8-5.5C1000.9,343.2,982.1,378.6,981,413.8z M1053.5,426.3c-4.3,44.6,33,37.6,62.5,32.5
			c14.5-2.5,16,1.8,17.3-20.3c1.2-20.1-2.2-26.6,5.6-46.1c5.3-13.2,14.7-30.3,6.1-43.6c-10.3-16-30.2-11.4-44.3-4
			C1073,359.3,1051.9,394.8,1053.5,426.3z M1212.9,274.3c-28.1,0.7-70,12.2-84,39.7c-10.1,19.7,17.2,33.6,34.7,34.9
			c27.9,1.9,46.5-32.6,70.4-44.8c12.8-6.5,21.8-5.6,13.1-19.6C1241.6,275.5,1222.1,273.5,1212.9,274.3z M1163.7,249.4
			c-29.3,4-58.3,13.8-82.4,31.7c-23.4,17.4-36.5,41.2,1.2,48.1c29.8,5.4,43.8-24.2,64.7-38.7c9.1-6.3,35.6-12.1,41.3-20.7
			C1198.7,254.2,1174.5,249,1163.7,249.4z M846.5,500.3c16.3,2,37.3-18.2,54.7-21.2c1.6-0.3,23.5,0.6,23.3-6.4
			c-0.2-9.2-17.4-8-23.2-8.3c-17.4-1-41.2,3.5-56.9,10.9c-6,2.9-16.3,4.8-16.6,13.2C827.5,497.1,838.1,502.2,846.5,500.3z
			 M961.1,468.6c-3.9-1.7-32.2-7.2-32.7,2.5c-0.5,10,19.7,4,23.7,4.1c-3.4-1.6-14.9,0.4-16.1-3.9
			C933.8,463.3,958.8,468.8,961.1,468.6z M1017,479.2c0.5,1.2,5.3,15.9,7.1,15.4C1032.1,492.4,1019.3,480.3,1017,479.2z
			 M825.1,514.9c5.1-3.6,5.9-9,2.7-12.9C826.9,506,826.1,509.9,825.1,514.9z M1048.7,468.9c0.3-0.1,11.3-8.2,6.7-10.2
			C1051.7,460.8,1049.5,464.2,1048.7,468.9z M1025.7,481.3c0.9,2.8,2.5,5,4.8,6.8C1031.9,488.7,1029.1,482.3,1025.7,481.3z
			 M1017,486.9c0.2,3.8,1.8,7.3,2.8,10.7C1020.9,493.7,1018.3,490.5,1017,486.9z M1025.1,480.4
			C1024.3,479.1,1024.8,481.7,1025.1,480.4z"/>
		<path class="st4" d="M215.4,579.9c-4.7,3.7-27.1-43.8-27.6-50.1c-1.8-20.5,9.9-36.9,29.6-42.3c58.8-16.1,83.8,48.5,91.5,92.4
			c-2.9,0-25.1,1.8-27.1,0c-1.8-1.7-5.5-27.7-6.8-31.1c-5.3-13.4-16-30-29.9-35.8c-45.9-19.2,4.3,52.1,7,63.1
			c-1-5.8-21.4-46.6-12-50.1c2.9-1.1,12.8,18.2,12.4,17.6c0.1-6.5-4.1-11.1-5.3-16.9c7.9,8.3,10.6,19.5,16.9,28.7
			c-0.8-7.5-7.5-13.5-5.5-21.7c8.1,14.2,17.8,28.9,17.2,46.1c-12.6,0-29.5,2.9-37.9-4.1c-2.1-1.8-5.8-16.8-10.6-13.4
			C215.7,570.5,253.3,579.9,215.4,579.9z M241.7,493.4c-12.3,1.7,32.7,25.2,32.3,25.5C280.7,512.9,244.5,493.8,241.7,493.4z
			 M285.6,533.1c0.1-2.1-4.6-11-8.4-8C273.2,528.3,285.2,539.7,285.6,533.1z"/>
		<path class="st4" d="M464.6,579.9c-3.8,5.5-38.3-42.9-40.2-50.1c-6.7-25.1,3.9-50.3,33.1-46.9c23.3,2.7,45,21.4,60.2,38
			c13,14.2,38.3,40.6,43.3,59c-6,0-12.1,0-18.1,0c9.9-11.1-84.6-87.8-100.9-74.8c-17.9,14.4,40.6,61.8,54.9,66.7
			c-2.4-6.4-44.8-37.7-33.5-45c6.5-4.2,29.8,20.8,33.2,17.3c1.4-1.4-2.7-4.9-2.7-6.4c3.6,2.2,7.3,4.1,11.1,5.7
			c-3.9-3.5-22.8-13.5-23.2-19c20.6,11.2,47.1,31.1,53.1,55.4c-15,0-39,3.7-50.5-2.8c-2.6-1.5-17.3-21.1-21.4-15.5
			c-3.8,5.3,19,13.4,14.6,18.3C473.3,579.9,468.9,579.9,464.6,579.9z M478.4,504.4c-1.7-0.5-3.1-0.1-4.3,1.1
			c-0.3,0.9,31.6,22.5,33.1,21.4C513.3,521.7,481.4,504.9,478.4,504.4z"/>
		<path class="st4" d="M568.1,579.9c-2.8-14.4-17-20.6-25.5-30.6c-7.9-9.5-13.9-20.9-22.1-30.6c-14-16.7-43.2-64.9-0.1-62.8
			c27.4,1.3,54.3,21.9,69.6,43.4c13.8,19.4,32.1,56.3,31.3,80.7c-19.8,0-13.7,2.9-22.5-11.4c-6.7-10.9-8.7-26.8-14.2-38.7
			c-9.2-19.6-21.1-37.2-40-48.7c-26.6-16.2-28,1.1-13.8,22.6c14.1,21.3,29.2,38.1,40.8,61.4c8.9-8.4-45.4-66.9-28-71.5
			c16.6-4.5,26,47.6,37.4,51.8c-2.9-7.1-5.8-14.2-8.7-21.3c7.9,9.5,12.1,21.2,16.9,32.4c0.8-2.2,0.8-4.4-0.1-6.6
			c4.7,9.6,6.4,20,10.1,30.1C588.8,579.9,578.5,579.9,568.1,579.9z M588.5,517.4c-0.7-2.5-23.3-44.6-29.9-37.3
			c-2.7,3,14.8,20.5,15.8,21.9C575.8,503.9,590.6,524.8,588.5,517.4z M598.2,533.2c-0.3-1-5.4-10.8-8.5-7.9
			C585.6,529.2,597.4,542.4,598.2,533.2z"/>
		<path class="st4" d="M993.1,579.9c2-39.7,50.3-137.1,103.9-107.3c27.8,15.5,19.4,47.5,10.8,71.6c-2.4,6.8-5,13.1-6.4,20.3
			c-0.6,3-4.5,27-12.8,15.4c-3.8-5.3,6.8-26,2.8-27.8c-6.1-2.8-8.4,18.6-7.7,16.9c-5.2,12.8,0.2,11-18.2,11
			c3.6-22.2,18.2-41.8,21.2-63.3c2.9-20.5-11.2-32.1-29.9-21c-15.3,9.1-25.6,30.9-30.9,47.2c-2.7,8.3-2.2,19.8-5.8,27.5
			c2.5,9.3-0.7,12.5-9.5,9.6C1004.7,579.9,998.9,579.9,993.1,579.9z M1023.4,526.4c1-0.2,20-28.3,18.5-30.2
			C1036.5,489.7,1016.1,526.5,1023.4,526.4z M1091.7,542.6c-0.4,1.4-0.1,2.5,0.9,3.4c3.1,0.7,5.7-7.2,4.5-9.2
			C1094.1,531.9,1091.7,542.1,1091.7,542.6z"/>
		<path class="st4" d="M313.8,579.9c0.9-21.5-7.9-46.4-19.8-64.4c-8.7-13.2-18-28.9,1-40.6c39.6-24.4,73.8,27.1,77.7,58.9
			c1.5,12.6,8.9,45.4-6.6,46.1c-13.3,0.7-6.5-22.7-7.8-33.4c-1.1-9.4-2.9-18.6-7.2-27.1c-5.3-10.4-23.2-34.1-32.8-16.1
			c-7.7,14.3,12.7,57.9,20.7,69.1c4.8-5.6-21.2-56.1-7.1-56.5c7.1-0.2,9.4,28.4,13.1,27.5c3.3-0.7-4-21.2-4.4-22.7
			c6,8.9,18.9,40.1,14.7,51.9c2.1,8.5-1.6,10.9-11.3,7.2c-9.7,3.6-13.8,0.8-12.3-8.4c-1.7-2.7-3.6-21.1-10-19.1
			c-1.8,0.6,6,24.4,6.2,27.5C323.2,579.9,318.5,579.9,313.8,579.9z M350.9,499.7c-1.7-2.8-28.5-29-27.5-19.1
			C323.8,483.6,351.1,505.4,350.9,499.7z"/>
		<path class="st2" d="M1201.1,579.9c0.4-1.5,1.1-2.9,2.1-4.1c-22.6-7.5-1.3-9.1,0.7-13.8c-2.4,0.1-18.4,4-19.5,2.7
			c-2.3-3,17.6-19.5,20.3-8.1c5.1-3.5-2.6-7.9-1.2-12c-0.4,1.2,6.1-14.6,6-12.6c-0.3,4.2,2.9-5.9,2.3-3.8c0.4-1.2-7.1-0.6-7.5-1.9
			c-1.4-3.9,5.3-2.8,5.9-5.3c1.5-5.5-1.8-0.5-2.8-4.3c-0.4-1.6,15-10.9,17.3-14.4c1.8-2.7-4-4.6-0.9-8.2c4.5-5.4,10.7-3.5,14.3-7.2
			c1.4-1.4,19.2-39.4,21.3-35.8c1.8,3-6.1,3.2-2.9,7.4c-0.2-0.3,22.9-13.3,21.4-17.6c-2.3-6.3-14.5,4.3-16.9,1.4
			c1.1,1.2,21-20.9,22.4-21.2c0,3,2.5,36.6-7,28.3c0.3,2.8,1.4,5.3,3.3,7.4c-0.4-3,0.8-4.8,3.7-5.6c0,5.7,2.2,22,0,27.1
			c-3,7.1-11,9.6-13.9,18c-2.6,7.4,3.2,15.5-6.9,19.9c-2.8,1.2-12.9-1.1-12.2-4.8c-0.2,1.1,12.6-12.9,12-12.1
			c4.3-5.6,7.8-13.4,11.5-19.5c-11.9,2.5-39.6,25.1-32.2,37.7c7.7,13.2,31.6,2.2,35.8-8c1.8-1.7,3.7-3,5.9-4.2
			c0,7.4-3.6,74.4-12.1,74.4c0.2-5.4,1.3-10.6,3.3-15.6c-2.4-0.7-3.4,15.6-12.3,15.6c-8.6-8,26.4-35.2,3.6-50.4
			c-6.3-4.2-24.3-5.2-30.6-0.4c-8,6-6,14.7-6,23.6c43.3-30.4,19.1,27.2,10.9,27.2c-1.3-8.4,8.1-20.5,11.6-27.5
			c-12.1,2-15.2,13.3-19.4,22.9c-0.3-3-0.5-5.1-0.7-8.1c-1.4,4.2-1.5,8.4-0.5,12.6C1221.2,579.9,1211.2,579.9,1201.1,579.9z
			 M1217,524.5c0.4-0.2,4.4-7.7,2.3-8.6C1214.5,513.8,1216.9,524.1,1217,524.5z M1272.5,460.9c-1.3,0.7-6.7-5.2-7.9-2.7
			C1263,461.5,1272,460.8,1272.5,460.9z M1233.9,566.1C1234.7,563.1,1230.5,568.2,1233.9,566.1z M1280.5,435.7
			C1279.9,433.6,1277.8,436.3,1280.5,435.7z"/>
		<path class="st2" d="M-2.7,475.3c2.1-1.3,3.6-3,4.7-5.2c-5.1,0,17.2,17.7,17,12c0,0.5-15.2-11.9-1.7-12.5
			c1.3-0.1,34.1,31.2,37.1,26.1c3.3-5.6-26.4-19.3-23.7-24.9c1.2-2.5,55.1,28.9,54.9,31.1c-0.4,3.7-11.1-0.2-11.2,7.5
			c0,2.7,8.1,1.4,10.9,5.6c0.1,0.2,1.9,12.7,1.9,13.1c1.1,5.8,0.7,11.5,1.6,18c0.5,4.3,4.6,4,4.9,6.6c0.7,6.3-6.5,2.9-6.8,6.7
			c-0.3,4,8.4,3.4,6.9,7.2c0.4-1.1-14,2.6-15.6,3.1c7.8,2.6,17.6-2.4,20.6,10c-7.8,0-16.7,0.9-24.5,0c-4.9,0-9.8,0-14.7,0
			c-1.1-2.5-2.1-4.9-3.2-7.4c-5.9-4.5-10.5-10.5-16.7-14.9c-4.5-3.2-18.5-7.7-21.1-11.2c-16.5-22.7,40.9-6.7,43.7,11.9
			c-1.8-1.6-29.5-13.6-30.5-11.7c3.7,0.3,29.5,24.8,30.6,24.1c15.6-10.9,0.5-33-8.9-40c-15.3-11.4-39.4-16.6-56.1-5.1
			c0-9.6,10-7.5,17.1-11.9c-16.2-6.5-17.1-1.1-17.1-20.7C-2.7,485.6-2.7,482.2-2.7,475.3z M81.7,546.7
			C80.8,543.1,79.1,547.9,81.7,546.7c-1.4,2.6-1.4,5,0.3,7.2C84.3,555.5,87.7,547.9,81.7,546.7z M62.2,516.4
			c-2.2-8.4-20.4-12.3-22.8-2.2c-1,4,25.6,21.1,29.5,25.4C67.9,530.6,67.6,522.8,62.2,516.4z M1.9,503.2
			c17.9,1.8,25.2,12.7,39.6-1.2C31.5,501.1,10.8,497.9,1.9,503.2z M45.3,549.8c-3.8-4.1-8.4-6.2-13.9-6.4
			C36.1,545.5,40.7,547.7,45.3,549.8z M72.6,499.8c-0.2-0.3-0.3-0.6-0.4-0.8c-0.3,0.6-0.3,1.1,0,1.7
			C72.3,500.4,72.5,500.1,72.6,499.8z"/>
		<path class="st3" d="M1111.7,579.9c0.3-10.1,4.6-19.3,6.2-29.2c-5.2,8.1-6.4,18-11.8,26c5-20.9,15.8-46.7,15.4-68.5
			c-0.1-7.7-18.1-38.7-18.5-37.8c8.4-17.4,51,16.8,55.8,25.1c12.9,22.1,3.3,48-10.4,67.3c8.1,0.3,10.5-16.2,15.3-15.2
			c9.5,2-7.8,30.4-11.8,32.3c-14.8,7-25.6-3.6-26.3-11.9c-2,3.4-4.1,6.7-6.3,10c0.9-4.5,1.5-9.1,1.7-13.8
			C1118.9,566.7,1115.1,579.9,1111.7,579.9z"/>
		<path class="st4" d="M906.7,579.9c0.4-32.9,52.3-153.4,98.5-102.4c20.7,22.8-1.7,43-10.8,65.4c-2,5.1-12.6,38.2-13.4,37
			c-3.9-5.3,7.2-26.9,3.7-28.7c-4.7-2.5-5.7,8-6.5,9.8c-4.2,9.6,4.7,18.9-9.2,18.9c-0.3-13,37-105.8-5.2-83.7
			c-15.6,8.2-25.8,30.3-31.1,46.1c-2.9,8.6-2.5,20.2-6.3,28C920.8,582,923.9,579.9,906.7,579.9z M959.5,487.3
			c-11.4-4.7-31.4,28.4-26.9,30.6C932.2,517.7,957.2,489.5,959.5,487.3z"/>
		<path class="st4" d="M784.1,579.9c2.7-26,42-76.1,71.5-69.9c37.3,7.9-3.7,60.5-22,67.4c-0.7-3.4,11.2-13.3,8-15.8
			c-2.8-2.2-9.8,11.2-10.4,11.7c-0.6,2.2-1.3,4.4-1.9,6.6c-8,0-16.1,0-24.1,0c1.7-10.6,8-19.3,14.7-27.3c-1.6,6-7.1,10.1-8.2,16.4
			c5-8.2,11.9-15,18.3-22.1c-0.8,2.4-1.5,4.9-2.1,7.4c1.9-1.5,14-15.5,17.9-10.9c2.1,2.5-5.4,6.3-4.2,10.3
			c21-16.5,16.3-44-11.5-19.3c-8.9,7.9-14.9,17.7-20.9,27.8C800.4,576.8,801.4,579.9,784.1,579.9z M843.1,516.4
			c-7.9-1.4-30.2,22.8-27.8,23.9C816.7,541,840.2,518.5,843.1,516.4z M820.7,563.6c3.3-1.7,5.9-5.6,6-9
			C823.5,557.3,821.9,559.6,820.7,563.6z"/>
		<path class="st4" d="M789.5,502c25.4-23,42.4-3.6,24,22.5c-4.8,6.9-35.1,55.4-37.5,55.4c0.2-2.6,8.4-17,6.2-18.5
			c-2.9-2-9.4,11.6-7.5,10c-0.6,2.8-1.1,5.7-1.7,8.5c-7,0-14.1,0-21.1,0c5.5-8.4,7.5-38.4,20.2-42.1c-1.5,2.7-4.3,8.8-3.7,11.8
			c3.6-5.9,5.9-11.9,11.7-16.8c0.4,2.3-0.2,4.2-1.7,5.5c2.9,2.5,15.2-22.2,21-17.2c1.8,1.5-28.9,37.6-29.3,46.7
			c3.5-0.1,15.5-23.3,18.8-27.1c5.9-6.8,30.7-29,17.4-36.9c-10.7-6.3-34.5,27.1-38.4,32.9c-7.4,11.1-15.6,43.1-27,43.1
			c-0.9-16.8,13.1-64.2,34.1-67.4c0.7,2.6-12.8,14.6-8.7,16.8C768,530.2,796.5,503.6,789.5,502z"/>
		<path class="st4" d="M-2.7,525.6c16.7-11.5,40.9-6.2,56.1,5.1c9.7,7.2,24.1,29.3,8.9,40c1.9-1.3-30.3-22-29.8-24
			c9.4,3.7,21.7,4.5,29.8,11.6C60.6,547,21.1,524,13.6,536.9c-4.8,8.3,44.1,27.8,46,42.9c-20,0-22.4-4.3-40.3-14.8
			C-4,551.5-2.7,554-2.7,525.6z M38.3,532.3c-4.4-7.6-26.6-6-26.3-5.6C12.9,528.1,35.7,532.4,38.3,532.3z"/>
		<path class="st2" d="M1019.3,579.9c1.2-23.7,16.7-93.5,51.9-89.5c20.9,2.4,16.1,24.5,11,38.3c-2.9,8.1-7.5,15.4-10.3,23.5
			c-4,11.8-0.5,27.6-14.4,27.6c-0.7-1.5,11.1-31.6,13-36.5c2.5-6.4,16.9-29.1,7.3-33.2c-9.1-3.9-28.6,21.7-32.1,28.2
			c-4.3,8-5.9,31.7-11.9,36.7c-2-9.5,3.6-18.2,2.3-27.7c-3.3,5.9-5.3,32.5-9.7,32.5c1-7.8,0.8-15.8,3.2-23.3
			C1025.3,562.7,1025.4,579.9,1019.3,579.9z M1036.8,547c1.7-1.1,1.7-2.2,1.2-3.6C1037.3,544.3,1036.3,545,1036.8,547z"/>
		<path class="st3" d="M401.2,513.5c-2.3-0.8-18.6-12.7-19.7-11.6c-4,3.9,21.2,16.9,21.9,17.3c-7.8,0.1-12.6-6.1-19.3-7.6
			c6.9,6.1,11.3,17.3,13.9,24.9c5.6,16.4-3.7,27.2-0.8,43.3c-5.4,0-10.7,0-16.1,0c1.3-21.2,1.6-41.6-5.4-62
			c-3.2-9.4-29.2-40.1-28.5-43.1c12.7,3.2,24.7,2.8,34.4,12.2C383.3,488.6,401.1,513.8,401.2,513.5L401.2,513.5z"/>
		<path class="st3" d="M153.1,579.9c0.6-1.6-11.9-24.3,1.5-29.2c12.5-4.5,7.1,22.8,19.2,18.8c-17-20.7-11-53.7,12.3-66.6
			c-5.9,14.8-10.3,30.6-2.7,45.6c5.2,10.2,22.7,19.3,23,31.5C188.5,579.9,171.7,579.9,153.1,579.9z"/>
		<path class="st4" d="M1029.3,579.9c0.4-13.3,2.8-25.5,6.7-32.5c1.3,9.5-4.3,18.2-2.3,27.7c6.2-5.1,8.7-32.2,13.9-40.4
			c4.7-7.3,27.8-33.2,33.4-19.8c4.2,9.9-13.8,40-17.2,49.6C1056.4,584.9,1053.1,579.9,1029.3,579.9z"/>
		<path class="st2" d="M925.8,579.9c0.6-20.1,17.2-93.5,48.5-88.4c28.7,4.7-6.5,88.4-8.3,88.4c-1.5-13.9,3.2-29,7.3-42.1
			c3.2-10,13-21.9,0.9-24c-22.7-4-30.3,44.6-33.9,57.9c-2.2-7.9,0-15.4,1.3-23.4c-3.1,5.9-7,31.6-9.8,31.6
			c-0.1-6.9,0.3-13.7,1.2-20.6C930.5,565.4,933.1,579.9,925.8,579.9z M935,555.6c-0.4-0.9-0.7,0.8-0.7,1.3
			C934.6,556.4,934.8,556,935,555.6z"/>
		<path class="st2" d="M589.1,549.8c0.9,2.2,1,4.3,0.1,6.6c-4.8-11.2-9-22.9-16.9-32.4c2.9,7.1,5.8,14.2,8.7,21.3
			c-11.4-4.2-20.8-56.2-37.4-51.8c-17.6,4.7,37.1,63,28,71.5c-10.3-20.7-21.5-36.5-35.6-54.5c-9.8-12.6-28.3-46.2,1.9-33.5
			c17.9,7.5,31.5,24.8,40.8,41c7.3,12.9,26.9,47.4,23.5,61.8c-6.9,0-11-26.5-14.5-33.8C588.5,547.2,588.9,548.4,589.1,549.8z"/>
		<path class="st4" d="M934.9,579.9c-1-11,1.3-21.4,6.8-31.6c-1.3,8-3.5,15.5-1.3,23.4c2.7-9.7,18.3-74.5,40.1-57.3
			c3.5,2.8-9.9,33-11.2,38.6c-0.9,3.9-0.8,24.9-3.1,26.9C962.1,583.3,939.5,579.9,934.9,579.9z"/>
		<path class="st2" d="M534.9,579.9c-3-12.2-41.5-64.1-57.4-56.7c8.2,6.8,18.9,12.4,27.5,20.3c-3.8-1.7-7.5-3.6-11.1-5.7
			c0,1.5,4.1,5,2.7,6.4c-3.6,3.8-26.6-21.5-33.2-17.3c-11.2,7.2,30.7,37.8,33.5,45c-14.1-4.9-72.6-52.5-54.9-66.7
			c16.6-13.3,110.6,64,100.9,74.8C540.3,579.9,537.6,579.9,534.9,579.9z M473.6,525.6c-1.5-1.7,6.3,3.8,7.3,4.4
			C479.7,527.4,476.4,525.9,473.6,525.6z M487.8,534.6c1.5-2.5-4.6-4.2-6.4-3.9C483.6,532,485.7,533.3,487.8,534.6z M491.1,535.2
			C487.9,534.4,494.6,538.2,491.1,535.2z"/>
		<path class="st4" d="M-2.7,238.2c19.9-5.6,41.4-14.1,62.6-10.5c10.6,1.8,33.6,8.9,25.1,20.6c-2.9,4-20.6,6.6-25.7,10.1
			c-7,4.8-10.3,16.4-15.7,19.9c-7,4.6-35.2-0.4-46.3,0.1c0-34.6,43.1,0.7,60-23.9c20.3-29.7-47.8-17.5-60-12.3
			C-2.7,240.9-2.7,239.5-2.7,238.2z M24.4,269.3c-1.4,0.1-15-1-14.4,3.1c0.2,1.6,23.8,1,24-0.6C31.9,268.7,28.7,267.8,24.4,269.3z
			 M72.4,237.8c-0.9-1.4-13.4-11.4-14.6-6.3C57.4,233.2,70.9,241.5,72.4,237.8z"/>
		<path class="st4" d="M1283.5,286.4c-22.2,6-19.5,3.8-36.7-6.8c-6-3.7-36.3-6.5-38.3-10.9c-7.6-16.5,75.1-29.3,75.1-15.5
			c-16.8-1.9-33.4,0.1-49.2,6c4.4-8.8,25.6-3.4,28.5-9.8c-5-0.5-37.8,4.3-29.4,10.3c-2.5,1.9-15.2,4.1-7.2,9.1
			c7.5,4.7,6.2-6.6,13.2-6.5l-0.1-0.1c4.8,5.7,20.5-1.3,26.8-1.9c4.3-0.4,20.9-3,17.4,4.9c-0.4,0.9-21.8,6.4-23.7,7.2
			c8-0.6,15.6-3.5,23.7-4.2c0,12.7-27.2,9.9-26.9,14.6c0.3,5,24.5-3.6,26.9-3.6C1283.5,281.7,1283.5,284.1,1283.5,286.4z"/>
		<path class="st2" d="M275.7,579.9c0.6-17.1-9.1-32-17.2-46.1c-2,8.2,4.6,14.2,5.5,21.7c-6.3-9.3-9-20.5-16.9-28.7
			c1.3,5.8,5.4,10.4,5.3,16.9c0.3,0.6-9.5-18.7-12.4-17.6c-9.4,3.5,11.1,44.3,12,50.1c-3-12.5-47.7-62.4-17.6-67.1
			c29.6-4.6,45.5,52.4,47.3,70.8C279.7,579.9,277.7,579.9,275.7,579.9z"/>
		<path class="st4" d="M1245.4,579.9c-0.5-17.4,22.9-54.5-15.9-27.2c0-9.3,3.5-9.2,9.9-15.6c-4.1-0.9-7.4,0.3-9.8,3.7
			c-4.8-19.4,35.3-16.4,42.2-6.9c8.3,11.4-13.1,42.5-9.3,46c-16.9,0,3.7-21.1-1.8-21.7C1250,557,1259.9,579.9,1245.4,579.9z"/>
		<path class="st3" d="M842.4,579.9c-2.5-21.1,40.7-28.7,34.6-57.5c11,4.3,14.7,20.5,12.9,30.9c-0.5,3.1-13,21.7-12.9,21.9
			c-0.4-0.7,6.2,3,7.6,4.8c-7.5,0-15.1-0.1-22.6,0c-10.7,0.2-0.5-3.4-5.2-3.7c-3.6-0.2-0.5,3.7-4.4,3.7c0.6-0.7-3.6,0.6-3-6.8
			C846.4,575,845.5,579.9,842.4,579.9z M850.1,572.8c2.5-2.7,7.2-3.3,8.6-8.4C854.4,566.5,851,568.3,850.1,572.8z"/>
		<path class="st2" d="M355,579.9c0.4-19.1-3.4-42.6-14.5-59.1c0.4,1.5,7.7,21.9,4.4,22.7c-4.4,1-5.5-27.8-13.1-27.5
			c-14.1,0.5,11.9,50.9,7.1,56.5c-8.6-12.1-36.9-78.7-8.2-75.1c30.1,3.7,27.9,64,28.3,82.6C357.7,579.9,356.4,579.9,355,579.9z
			 M351.4,530c-1.8,4,1.1,6.7,2.5,9.9C353.1,536.6,352.2,533.3,351.4,530z M339.6,519.5C339.5,519.9,339.5,520,339.6,519.5z"/>
		<path class="st2" d="M-2.7,242.2c12.6-5.4,68.6-18.4,63.2,7.1c-2.1,10.1-17.7,14.9-26,15.1c-7,0.2-13.2-3-20.3-2.6
			c-4.9,0.3-12.5,4.5-16.8,3.4c0-15.4,54.4-2,51.1-17.6c-3-13.7-47.8,11.2-49.7,6.9c-1.1-2.5,10.5-6.7,11.8-7.6
			c-4.4,1.4-8.7,2.8-13.1,4.3c0-6.4,17.2-9.2,22.9-10.7c-7.9,0.7-15.4,3.5-22.9,5.7C-2.7,244.9-2.7,243.6-2.7,242.2z"/>
		<path class="st4" d="M1283.5,245.2c-12.3,0.2-24.1-1.7-36.4,0c-14.9,2.1-24.2,9.5-37.1,14.4c-14.2,5.3-8,3.6-19.8-5.9
			c-2.2-1.8-20-10.1-20-11.2c0.1-7.3,32.9-13.1,39.3-11.9c-3.1,3.8-9.7,0.6-12.2,5.1c8.1-1.2,16.2-2.3,24.3-3.5
			c-4.1-1.9-7.6,0-10.7-1.7c5.5-0.4,32.2-3.7,35,2.5c-10.3,0-51.8-2.4-58.2,6.9c-2.6,3.7,0.5,15.7,7.9,9.8c8-6.4-6.1-3.1,11.5-9.6
			c3.6-1.3,29.6-6.7,30.8-0.7c0.9,4.3-38.6,9.7-38.5,13.4c0.2,6.1,40.5-9.6,45.9-10.1c4.3-0.4,32.7,4.4,24.4-5.2
			C1274.3,237.7,1283.5,240.4,1283.5,245.2z"/>
		<path class="st3" d="M423.4,579.9c1-6.1-13.9-21.3-15.4-29.2c-1.6-8.6-1.5-29.7,7.1-34.5c0.9,15.4,5.5,29.2,15.2,41.4
			c1.9,2.4,19.5,16.7,18.1,18.8c-3,4.4-15.2-12-18.8-12.2c-0.8-0.1,12,15.2,11.9,15.8c-4.4,0-16.4-14.6-18.8-12.7
			c1.6,1.6,8.1,10.5,8.7,12.7C428.7,579.9,426.1,579.9,423.4,579.9z"/>
		<path class="st2" d="M779,537.6c0.3-1.2,0.5-2.5,1.1-4.9c-5.8,4.9-8.1,10.9-11.7,16.8c-0.6-3.2,2.4-10,4.3-12.9
			c-7.7-2.7-18.4,43.2-23.8,43.2c0.8-13.9,41.1-91.3,59.4-75.8c10.3,8.7-14.8,31.3-19.5,36.6c-2.6,3-16.5,27-18.8,27.1
			c0.4-9.1,31.1-45.2,29.3-46.7C795.5,517.7,781.1,536.1,779,537.6z M780.5,533.2c1.3-1.2,3-1.5,1.9-3.7
			C781.3,530.1,780.1,530.6,780.5,533.2z M784.4,527.8C782.5,528.8,785.1,528.6,784.4,527.8z"/>
		<path class="st4" d="M1277.7,509.7c-4.6,11.2-33.2,21.3-38.1,5.7c-3.9-12.5,25.1-33.5,34.5-35.5c-3.5,5.7-7.5,14.1-11.5,19.5
			c-1.7,2.3-12,12-12,12.1c-2.1,10.6,16.9-0.7,18.3-3.2c6.9-11.9,1.9-19,14.7-30c0,8.4-7.3,23-10.7,32
			C1274.5,510.1,1276.1,509.9,1277.7,509.7z"/>
		<path class="st2" d="M799.2,579.9c11.9-17.8,19.4-40.9,39.3-52.1c26.2-14.6,16.2,15.6,3,25.9c-1.2-4,6.3-7.8,4.2-10.3
			c-3.9-4.6-15.3,8.9-17.9,10.9c0.5-2.5,1.2-5,2.1-7.4c-6.4,7.1-13.3,13.9-18.3,22.1c1.1-6.3,6.6-10.4,8.2-16.4
			C813.5,560.2,807.7,579.9,799.2,579.9z"/>
		<path class="st3" d="M888.6,579.9c-2.3-15.3,5.5-29.3,9.6-43.6c0-0.1-5.5-4.1-5.9-4c4-1.3,7.3-3.5,9.9-6.7c-5-0.8-8,5-13.1,2.2
			c10-3.4,18.6-9.1,29.6-13.4c-6.1,11.7-11.6,23.9-15,36.7C899.7,566.1,906.4,579.9,888.6,579.9z"/>
		<path class="st4" d="M-2.7,251.3c3.9-1.3,7.8-2.5,13.1-4.3c-1.2,0.9-12.9,5.1-11.8,7.6c1.7,3.9,43-18.2,48.5-8.5
			c6.3,11.2-43.8,13.8-49.8,15.1C-2.7,258-2.7,254.6-2.7,251.3z"/>
		<path class="st2" d="M1234.3,259.3c12.3-4.6,49.2-15.6,49.2,2c-10.2-1.8-38.2,8.1-44.2,1c1.3-0.4,2.3-1.3,2.8-2.6
			c-4.8,2.4-8.7,9.6-13.9,9.6C1214.6,269.4,1234.4,259.2,1234.3,259.3z"/>
		<path class="st3" d="M10.4,579.9c-16.5,0-13.1-5.2-13.1-20.1c9.1,2,30.4,10.6,35.2,20.1c-2.5,0-18.1-11.5-19.4-7.7
			c-1,3.2,8.4,4.3,9.3,7.7c-7.3,0-10.3-7.8-19.2-6.6C5.7,575.4,8.1,577.6,10.4,579.9z"/>
		<path class="st4" d="M1231.3,579.9c0.9-3.9-2.8-7.8,0.5-12.6c0.3,3,0.5,5.1,0.7,8.1c4.2-9.7,7.3-21,19.4-22.9
			C1245.9,564.5,1243.9,579.9,1231.3,579.9z"/>
		<path class="st3" d="M1274.5,579.9c-1.5-13.6,3.7-26.9,9-39.2c0,5.4,3.6,40.9-4,39.2c-0.2-4.3,0.2-8.5,1.4-12.7
			C1277.3,570.1,1277.8,579.9,1274.5,579.9z"/>
		<path class="st2" d="M32.5,579.9c-6.5-13-35.2-12.6-35.2-26.1c5.1-1.4,44.9,23.1,44.2,26.1C38.5,579.9,35.5,579.9,32.5,579.9z"/>
		<path class="st5" d="M477.6,579.9c4.7-5.2-18.3-13.1-14.6-18.3c4.9-6.8,20.5,16.9,22.6,18.3C483,579.9,480.3,579.9,477.6,579.9z"
			/>
		<path class="st3" d="M408.3,579.9c0.6-3.3-8.4-6.6-4.6-13.9c3.9-7.6,14.7,12.1,15.7,13.9C415.7,579.9,412,579.9,408.3,579.9z"/>
		<path class="st5" d="M1083.6,579.9c0.1-2-0.6-31.6,7.8-27.8c1,0.4-3,25.2-2.8,27.8C1086.9,579.9,1085.2,579.9,1083.6,579.9z"/>
		<path class="st5" d="M327.9,579.9c-0.3-3.1-8-27-6.2-27.5c6.6-2.1,11.2,24.4,11.3,27.5C331.3,579.9,329.6,579.9,327.9,579.9z"/>
		<path class="st5" d="M976.1,579.9c0.7-2.5,1.4-32.6,8.7-28.7c0.7,0.3-4,26.1-3.7,28.7C979.4,579.9,977.7,579.9,976.1,579.9z"/>
		<path class="st2" d="M1113.7,579.9c1.4-5.7,3.8-10.9,7.2-15.7c-0.2,4.6-0.7,9.2-1.7,13.8c2.2-3.3,4.3-6.6,6.3-10
			c0.6,6.7,4.1,3.7,4.2,11.9C1124.4,579.9,1119.1,579.9,1113.7,579.9z M1126.1,576.2C1127.7,574.7,1125.3,577.5,1126.1,576.2z"/>
		<path class="st5" d="M1277.7,509.7c-1.6,0.2-3.2,0.4-4.8,0.6c1.8-4.8,3.2-24.3,10.7-24.9C1283.5,494.2,1279.3,501,1277.7,509.7z"
			/>
		<path class="st5" d="M1252.4,579.9c0.1-3.5,2.8-25.9,8.2-21.7c4.4,3.5-7,17.1-4.2,21.7C1255.1,579.9,1253.7,579.9,1252.4,579.9z"
			/>
		<path class="st5" d="M232.4,579.9c2.7-4.6-9.4-14.6-5.3-17.5c4.8-3.4,11.8,15.4,12.3,17.5C237.1,579.9,234.8,579.9,232.4,579.9z"
			/>
		<path class="st4" d="M-2.7,509.5c5.8,1.1,11.5,2.5,17.1,4.1c-5.8,2-11.5,4.3-17.1,6.9C-2.7,516.9-2.7,513.2-2.7,509.5z"/>
		<path class="st5" d="M1283.5,279.4c-2.4,0-26.6,8.6-26.9,3.6c-0.1-1.1,24.4-7.4,26.9-7.6C1283.5,276.7,1283.5,278.1,1283.5,279.4z
			"/>
		<path class="st3" d="M1283.5,299.5c-3.1-0.8-17.4,7.8-18.8,2.2c-1-3.9,16.6-7.2,18.8-7.3C1283.5,296.1,1283.5,297.8,1283.5,299.5z
			"/>
		<path class="st5" d="M829.3,579.9c0.2-2.4,8.2-21.4,12.3-18.3c3.6,2.8-11.9,16.1-8.2,18.3C832,579.9,830.7,579.9,829.3,579.9z"/>
		<path class="st5" d="M773.1,579.9c0.2-1.7,4.4-21.9,9.2-18.5C784.9,563.2,775.4,579.9,773.1,579.9z"/>
		<path class="st2" d="M1283.5,268.3c-8,0.7-15.6,3.6-23.7,4.2C1264.1,270.6,1283.5,260.4,1283.5,268.3z"/>
		<path class="st4" d="M1023.3,579.9c1.2-8.3,1.2-16,6.3-23.3C1027.7,562.1,1029.1,579.9,1023.3,579.9z"/>
		<path class="st1" d="M668.6,579.9c-3.3,0-6.7,0-10,0C661.8,573.1,668.6,568,668.6,579.9z"/>
		<path class="st2" d="M423.7,567.6c4.2,2.2,12.5,7.7,14.8,12.3C430.2,579.9,425.9,575,423.7,567.6z"/>
		<path class="st1" d="M655.5,579.9c-2,0-4,0-6,0c0-1.8-2.6-11.1-2.4-11.4C650.6,564.1,655.1,579.2,655.5,579.9z"/>
		<path class="st2" d="M10.4,579.9c-2.3-2.3-4.7-4.5-7.1-6.6c4.3-0.6,13.3,1.7,15.1,6.6C15.7,579.9,13,579.9,10.4,579.9z"/>
		<path class="st2" d="M22.4,579.9c-0.9-3.4-10.4-4.5-9.3-7.7c0.8-2.5,16.5,3.1,15.3,7.7C26.4,579.9,24.4,579.9,22.4,579.9z"/>
		<path class="st4" d="M1277.6,509.7c1.6-6.2,2.7-12.6,5.9-18.2C1283.5,495,1285.8,510.7,1277.6,509.7z"/>
		<path class="st1" d="M730.8,578.8c-0.4,0.4-0.3,0.8,0.1,1.1c-4,0-8,0-12.1,0c0.4-0.9,2.3-6.6,3.6-6.5
			C716.9,573.1,730.7,578.7,730.8,578.8z"/>
		<path class="st4" d="M929.8,579.9c0.6-6.9,0.5-13.9,3.2-20.6C933.2,561.6,933,579.9,929.8,579.9z"/>
		<path class="st4" d="M-2.7,246.2c7.5-2.2,14.9-5.1,22.9-5.7C16.2,241.6-2.7,249.5-2.7,246.2z"/>
		<path class="st3" d="M1268.5,579.9c0.4-1.2,4-16.3,6.3-15.6C1273.6,568.7,1273.2,579.9,1268.5,579.9z"/>
		<path class="st3" d="M1283.5,451.2c-2.9,0.7-4.1,2.6-3.7,5.6c-1.9-2.1-3-4.6-3.3-7.4C1281.1,453.3,1283.5,444.1,1283.5,451.2z"/>
		<path class="st2" d="M1276.5,579.9c-0.4-5.7,0.8-9.7,4.4-12.7C1279.4,571.8,1281.8,579.9,1276.5,579.9z"/>
		<path class="st3" d="M1283.5,306.5c-3.3-0.5-5.7,2.6-9,2l0.1,0.1C1275.5,305.1,1283.5,300.6,1283.5,306.5z"/>
		<path class="st2" d="M1189.1,579.9c1.1-3.9,10.4-5.1,10,0C1195.8,579.9,1192.4,579.9,1189.1,579.9z"/>
		<path class="st2" d="M184.2,579.9c2.5-3.1,9.9-3.1,12.1,0C192.3,579.9,188.2,579.9,184.2,579.9z"/>
		<path class="st4" d="M649.5,577.8c0.7,5-3,5.7-11,2C637.8,574.8,641.4,574.2,649.5,577.8z"/>
		<path class="st3" d="M-2.7,478.4c2.9,3,4.6,6,0,9C-2.7,484.4-2.7,481.4-2.7,478.4z"/>
		<path class="st2" d="M844.4,579.9c0.5-3.2,2.1-5.4,5-6.8C850.9,578.9,849.2,581.2,844.4,579.9z"/>
		<path class="st3" d="M1283.5,312.6c-2.3,0.8-4.7,1.5-7.1,1.9C1277.4,311.3,1283.5,307.1,1283.5,312.6z"/>
		<path class="st4" d="M668.6,579.9c0-3.5,8-3.5,8,0C673.9,579.9,671.2,579.9,668.6,579.9z"/>
		<path class="st2" d="M854.5,579.9c-0.3-2,0.4-3.2,2.3-3.7C859.4,576.3,857.1,579.9,854.5,579.9z"/>
		<path class="st4" d="M655.5,579.9c-1.9-2.2-0.5-2.8,4-2C659.2,580.1,657.8,580.8,655.5,579.9z"/>
		<path class="st2" d="M850.4,579.9c-1.1-2.2,1.9-3.5,2.5-1.7C853,579.9,852.2,580.5,850.4,579.9z"/>
		<path class="st4" d="M719.8,577.9c-0.2,1.9-1.2,2.6-3,2C716.1,577.5,717.1,576.8,719.8,577.9z"/>
		<path class="st1" d="M651.3,281.3c-0.1-17.2,16.9-47.9,38.1-42.4c24.9,6.5,21.6,46.3,16.8,63.3c-2.2,7.8-15.4,28.6-14.8,35.5
			c0.6,6.8,7.7,7.5,10.2,13.7c2.7,6.6-3,51.2-9.8,52.2c1.5-0.2-34.9-48.9-39.7-53.1c-18-15.6-41.9-25.9-55.5-46.1
			c-11.3-16.7-20.6-48.9,3.5-59.8C628,231.9,635,269,651.3,281.3z M615.4,315.5c0.4-1.8-0.3-3-2.2-3.6c-1.8,0.9,4.8,8.8,6.5,8.1
			C624.3,318,615.5,315.5,615.4,315.5z M660.5,275.4c2,0.4,3.6-0.4,4.8-2.3c0.5-5.7-10.8,6.5-6.2,5.8
			C660.6,278.1,661,277,660.5,275.4z M616.3,266.4c-0.1,4.6,5.1,3.6,4.8,2.5c0.3,1.3-8.6-7.5-6.6-7.4
			C610.1,261.2,613.7,266.1,616.3,266.4z M612.2,305.4c-2.1,0.5-4.3,1.1-6.4,1.6c17.6,8.2-0.4-13.7,0.9-9.3
			C609,305.8,612.4,290.7,612.2,305.4z M629.4,327.6c-0.1-0.1-0.3-0.1-0.4-0.2c5.5,3,6.5,8.8,11.9-0.4
			C636.3,330,632.9,327.3,629.4,327.6z M642.4,286.4c2.4,2.5,5.4,4,8.8,4.6c-5.5-21.9-17.7-21.4-29.9-8.7
			C620.5,281.6,643.3,269.2,642.4,286.4c-2.6-1-12.5,4.5-11.7,7C632.7,299.1,642.3,286.7,642.4,286.4z M686.5,246.1
			c0.5-0.4-4.3,8.2-4.6,7.5c1.7,5.5,10.3-7.6,11.4-8.4c-8-10.8-19.2,3.9-15.6,4.9c3.3,0.9,2.2-5.3,5.7-2c7.5,7,15.1,13.6,22.3,21.1
			c1.9-6.2-5.5-16.7-11.8-17.3c-12.4-1.1-5.2,14.4-0.2,13.9c1.6-1.8,3.4-3.5,5.2-5.2c1.3-0.4,1.6,3,1.8,3.7
			C699,258.5,689.9,250,686.5,246.1z M616.3,247.2c-0.2-0.1-0.3-0.2-0.5-0.4c6.5,8-10.8-1.9-8.1-1.2c-1.7,2.1-2.7,4.6-3,7.3
			c5.5-0.2,10.7,0.1,15.8-2.6c1.1,3.1-5.8,8.7-3.3,9.7c3,1.1,6.2-6.6,8.6-3.9c1.3,1.5-3.6,7.8-3.3,9.6c10.6-2.4,4-7.5,15.2,4.9
			C638.2,264.3,624.3,247.2,616.3,247.2z M686.6,275.4c0,0.2,1.9-5.9,1.5-6.3c-1.1-1.2-7.1,3-7.1,4.1c0.3,4.4,11.7,2.3,0.8,10.2
			c-0.3-0.4,6.6,6.8,6.3,6.8c2.2,0,2-5.5,5.7-5.6c3.2,0,3.8,5.6,5.7,5.4c-0.6,0.1,6.6-7.7,6.6-7.7c0.2,2.5-9.7-16.9-6.5-14.9
			C697.5,266.1,688.7,275,686.6,275.4z M695.6,382.4c0.1-2.4-2.6-3-4.4-2.5c-4,1.1,3.4,7.1,2.9,4.1c-1.5-9.4,0-2.8,2.1-10.6
			c0.4-1.4,5.8-16.9,2.8-18.1c1.8,0.7-11.5,1.1-11.6,1.1c-3.3,1.1,7.7,8.9,0.5,8.9c-3.8,0-0.4-5.3-4-5.8c-3.3-0.5-2,5-3.1,6
			c-1.6-0.1-3-0.6-4.3-1.5c-1.4-3.4,7-4,4.2-7.5c-3.1-3.9-9,6.8-9.8,1.7c-1.3-7.8,15.6-13.8-1.7-22.2c-2.7-1.3-3.7,5-5.9,5
			c-2.6,4.9-5.1,4.9-7.6,0c-1.7-1.8-3.2-1.4-4.5,1.1C648.1,349.1,688.5,378.7,695.6,382.4z M659.5,284.4c13.2,0.1,5.1,4.2,2.7,7.8
			c4.7,10.5-5.9,10.2-5.6,11.7c-1.4-7.9,7-5.4-1.8-9.3c-1.2-0.6-16.9,1.4-17.1,1.7c-2.4,4.2,8.5,2.8,4.3,9.1
			c-2.2,3.3-14.5-10.2-14.6-10.4c-0.7-4.7,9-9.3,8.4-12c-1.2-5.5-20.4,11.9-19.3,14.4c-0.7-1.7,7.5,8.1,6.1,7.7
			c13.8-17-0.6,18.2,1.1,19c3,1.4,4.5-11.7,10.1-9.5c9.2,3.7-1.1,4.9-2.2,8.7c1.3-4.5,9.6-3.1,13,0.4c2.2,2.3-1.6,10.9,0.6,16.5
			c2.6-1.6,21-3.7,21.1-7c0.1-3.4-6.6,0.5-6.7-3.9c-0.1-4,5.6-4,5.5-6.5c-0.1-2.3-9.8-1.8-4.6-7.1c4.2-4.2,5.7,1.8,8.4,3.4
			c2.6-3,5.2-5.7,8.1-8.9c4.3-4.7-4.2-5.3-0.7-9c3.8-4.1,19.7,3.7,6.8-10.2c-3.2-3.4-12.6-1.9-12.4-2.8c0.4-2.4,19.4-17,2.2-16.6
			c-5.4,0.1-15.7,19-14.7,18.6C660.2,289.3,659.5,286.1,659.5,284.4z M682.1,341.2c1.4-1.4,12.8-17.1,12.8-19.1
			c0,1.2-5.7-6.2-5.9-6.2c-1.1,1.8-2.2,3.7-3.2,5.6c-2,0.2-5.6-5.6-6.7-4.8c-1.4,1-4.9,5.6-7.3,6.3c0.7-0.2,9.9,9.3,9.8,11.1
			c-0.1,3-5.3,0.2-5.5,3.4C676,338.7,682.1,341.2,682.1,341.2z M621.4,277.9c-6.1-2.3-7.4-6.5-11.9-10.7c-1-0.9-5.2,5.2-6.7,3.4
			c-3.4-3.9,5.8-4.9,3-8.5c-1.2-1.6-14.1,5-0.5,15.3C612.3,282.8,615.7,286.6,621.4,277.9z M670.6,257.4c0.2-6.6,12.5,10.2,15.2,8.5
			c2.8-1.7-10-13.2-10.3-13.2c-4-0.6-19.5,8.4-12.9,13c-2.9-2,12.5-2.7,10.4,0.2C677.3,260.3,670.5,262.7,670.6,257.4z M699.4,296
			c-5.3,6-10.6,9-10.3,15.1C689.8,324.1,716,301.5,699.4,296z M595.8,293.4c2-2,11.4,1.1,11-0.8c-0.6-2.9-4.8,0-5.4-4.3
			c-0.4-2.6-0.6-15.9-6.6-16.9C589.1,270.6,595.7,291.6,595.8,293.4z M688,344.8c-4.3-1.7-9.1,4.7-7.8,8c0.3,0.9,14.8,1.5,15.3,0.9
			C696.4,352.1,689.3,344.7,688,344.8z M603.5,255c-2.6-3.2-15.9,8.4-10.4,11C595.9,267.3,603.1,255.6,603.5,255z M621.1,286.1
			c0.4-3.2-12.4,3.9-8.3,7.7C615.6,296.3,621.2,287.5,621.1,286.1z M669.7,325.7C666.5,329.2,678.4,341.6,669.7,325.7z M691.8,396.9
			c-0.8,2.7,1.3-17.5-3.6-10.3C687.2,387.9,692.5,398.9,691.8,396.9z M624.6,272.6c1.5,1.3,7.7-3.8,5-5.8
			C626.4,266.9,624.8,268.8,624.6,272.6z M680.4,268.2c-0.4-0.7-4.5-7.2-4.6,0.6C675.8,271.3,680.7,270.5,680.4,268.2z M602.5,302
			c0.8,2.1-3.2-10.1-3.7-5.9C599,298.7,600.3,300.7,602.5,302z M705,286.7c-1.3,2.8-2,4.4-3.2,7C705.9,292.8,706,290.7,705,286.7z"
			/>
		<path class="st1" d="M1210.3,89.2c-9.5-20.1,6-23.6,10.2-37.6c0.3-1.1-7.3-46.7,3.9-44c-0.1,0,4.5,30.6,7.2,35.8
			c6.7,12.6,16.6,22.7,16.6,38.3c0.1,39.3-27.4,63.3-47.1,92.9c-3,4.6-10.7,34.5-12.9,35c-8.6,1.7-15.4-28.4-16.3-33.5
			C1168,155.5,1175.6,82.9,1210.3,89.2z M1217.2,67.4c2.3-0.4,4.7-6.2,2.6-5.5c-2.2,0.7-4.4,8-3.8,9.5
			C1216.4,70,1216.8,68.7,1217.2,67.4z M1177.1,141.7c-2.6-9.7,5.9,9.9,4.8,2.3C1181.5,141.4,1178.8,141.7,1177.1,141.7z
			 M1213.2,146.8c0,0.1-6.8-10-6.6-2.2C1206.7,146.2,1213.1,146.7,1213.2,146.8c1.1,5.9-5.8,3.4-5.8,7.5
			C1207.3,160.1,1226.4,150.3,1213.2,146.8z M1242.3,74.4c-3.7-6.8-6.8,17.2,0.6,17.3C1245.3,91.7,1246.6,74.8,1242.3,74.4z
			 M1189.4,135.4c-2.1-6.2,2-18.3-6.5-14.2c-0.1,0.1-4.5,14.8-5.2,13.8C1180.1,138.5,1184.6,131.1,1189.4,135.4z M1185.7,202.1
			c2.4-13.7-1.3-15.9-9.6-26.1C1176,179.6,1182.9,200,1185.7,202.1z M1222.6,70.5c3.6-2.1,12.6,3.4,14.3,0
			C1238.4,67.5,1223.5,57.1,1222.6,70.5z M1203.3,127.8c-0.1,0.7,5.1,10.4,7.5,7.1C1212.2,132.9,1209.2,111.7,1203.3,127.8z
			 M1214,117c-3.5,5.3,10.2,15.5,11.9,12.9C1226.6,128.8,1213.9,117,1214,117z M1190.2,164.1c-0.4-5.1-2.5-7.3-6.4-6.8
			c1.2-0.9-0.2,12.1-0.3,11.9C1186.9,170.6,1189.1,168.9,1190.2,164.1z M1174.8,163.8c0-0.1,2.2-15.3,0.6-15.5
			c-2-0.2-3.1,20.4,0.7,21.2c0.3-0.2,5.4-5.6,5.3-5.8C1180.9,161.5,1175,163.7,1174.8,163.8z M1240.2,94.5c0-5.2-9.2,2.3-8.4,5.5
			C1235.9,102.8,1238.7,100.9,1240.2,94.5z M1238.3,110.8c-0.6-9.2-13.1,3.3-10.3,4.2C1229.3,115.5,1238,111.2,1238.3,110.8z
			 M1189.3,175.8c1.2-0.5,7.9-6.4,7.6-7.6C1195.3,162.1,1182.4,175.8,1189.3,175.8z M1221.1,134c0.2,0.5-7.2-7.3-6.2-7.1
			C1209.7,125.8,1219.4,141.1,1221.1,134z M1207,138.7c0.2-1.7-7-6.5-8.4-5.9C1195.2,134,1205,143.9,1207,138.7z M1208.7,115.4
			c6.1,0.4-3.5-7.7-4.9-6.4C1202.6,111.9,1204.2,114,1208.7,115.4z M1237.3,60.2c-0.2-3-5.5-3.2-5.4-0.7
			C1231.9,61.7,1237.2,63.7,1237.3,60.2z M1224,143.2c1.9-1.6,2.7-3.6,2.6-5.9C1224.6,132,1224.1,143.6,1224,143.2z M1219.2,72.5
			c-2.5,1.7-2.4,3.2,0.3,4.7C1222.2,77.3,1221.4,72.5,1219.2,72.5z M1204.6,147.8c-3.1,1.7-3.1,3,0,3.9
			C1207.9,150.6,1207.9,149.3,1204.6,147.8z M1221.4,79.9c0.2,1,5.3,2.9,5.3,0.3C1225.1,78,1223.3,77.9,1221.4,79.9z M1227,47.8
			c-3.8,0.6-4.6,1.9-2.6,4C1226.2,51.1,1227,49.7,1227,47.8z M1199.8,152.8c-1.5,0.1-4.4,2.7,0,2.9
			C1202.7,154.7,1202.6,153.8,1199.8,152.8z M1218.5,102.9c-1.7,1.3-1.6,2.7,0.2,4.2C1220.9,106,1220.8,104.6,1218.5,102.9z
			 M1229.2,82.5c-2.2,0.9-2.2,1.9,0,2.8C1231.7,84.2,1231.7,83.3,1229.2,82.5z M1240.2,103.1c-1.3-1.9-2.3-1.7-2.7,0.6
			C1238.3,105.7,1239.2,105.5,1240.2,103.1z M1239.9,65.6c-0.9-2.2-1.8-2.2-2.5,0C1238.5,67.7,1239.3,67.7,1239.9,65.6z
			 M1215.9,100.6C1216.8,93.5,1212.9,106.7,1215.9,100.6z M1189,183C1187,177.6,1188.2,188.9,1189,183z"/>
		<path class="st1" d="M89,73c2.4,9.5,0.1,17.3,5.4,22.7c3.6,3.7,11.6,1.1,17,8.3c2.8,3.8,17.1,60.2,17.3,60c-2.7,4-36.5-14-39.3-16
			c-11.9-8.7-19.9-21.5-23.8-35.7c-4.4-15.6-3.4-32-9.4-47.3c-2.6-6.7-17.9-24-14.1-29.5c11.5-16.4,54.8,19.2,45.4,36.5
			c-3.4,6.3-5.8,2.2-8.4,3.1c11-3.7-28.2-7.4-12.1,1.8c3.1,1.8,3.3-5.2,5.5-5.6c6.4-1.3,2,12.7,4.3,13.8c2.7,1.3,5.7-4.2,9.9-2.7
			c0,9.2-13.7,3.1-15.4,6.4C68,95,85.3,92.5,86.6,92.4c0,5.7-5.1,2.1-5.4,7.3c-0.1,3,6.9,2.5,7.4-0.1C90.1,91.2,88.9,81.5,89,73z
			 M94.8,108.6c1.3,0,2.6,0,4,0c-1.2,2-1.9,4.2-2.3,6.5c1.1,1.2,7.4-1.9,10.8,0.3c0-2.7-0.5-5.4-1.4-7.9c1.2,0.4,2.3,0.9,3.4,1.5
			c0.2-5.9-5.2-10.4-10.9-10.2c4.8,1.9,13.6,11.6,0.4,9.7c3.3-12.2-7.1-1.9-7.6,1.4C91,112,94.6,111.2,94.8,108.6z M72.1,58.4
			c-4.7,1.4,10.4,12.2,11,11.4c-0.8,1-2.6-10.9-2.1-10.3C82.8,61.3,70.4,58.6,72.1,58.4z M87.8,137.6c-7.4-28.3-7.8,4.3-1.2,3.5
			C87.8,140.3,88.2,139.1,87.8,137.6z M111,129.3c0.6-3.8-0.8-6-4.1-6.4C105.6,123.6,106.2,146,111,129.3z M70.9,115.4
			c-0.4,2,4.1,15.8,8.5,9.3C80.1,123.6,70.7,115.3,70.9,115.4z M106.1,153.4c4.8,3,11.1-4.7,7.9-6.9
			C112.7,145.6,106.5,153.2,106.1,153.4z M68.6,109.7c1.7,1.1,8.1,6.3,10.4,5.5C79.9,114.8,73.8,106.6,68.6,109.7z M59.6,53.5
			c-2.3-1.1-4.1-2.8-5.4-5C52.6,46.7,57.5,62.4,59.6,53.5z M69.6,64.9c-1.4-3.1-2.7-3.3-3.9-0.5C65.8,68.6,69.5,67.4,69.6,64.9z
			 M67,100.8c0.2-0.3,2.3-7.4,1.9-7.8C64.5,89.1,67.6,103.7,67,100.8z M94.6,119.7c-0.2-0.6-3.3-5.6-3.7-1
			C92.1,122,93.4,122.4,94.6,119.7z M69.6,53.4c-0.3-0.9-3.9-4.4-3.8,0.5C67.1,56.8,68.4,56.6,69.6,53.4z M103.8,149
			c-0.9-2.8-2.2-2.5-3.6,0.9C100.2,153.8,103.7,150.5,103.8,149z M63,75.4c0-0.2,2.8-9.8-0.6-6.6C61.4,71.1,61.6,73.3,63,75.4z
			 M97.2,122.6c-1.4,0.2-4.2,2.7,0.2,2.9C100.4,124.5,100.3,123.6,97.2,122.6z M84.5,110.5c-0.6-2.3-2-2.6-4.2-1.1
			C80.9,111.7,82.3,112.1,84.5,110.5z M98.1,132.8c-2.6,0.8-2.8,1.8-0.4,2.8C100,134.6,100.2,133.7,98.1,132.8z M87.5,112.7
			c-2,0.7-2,1.7-0.1,2.8C90.2,114.6,90.3,113.7,87.5,112.7z M63.9,58.4c-2.8,1-2.8,1.9,0.1,2.8C65.9,60.1,65.9,59.2,63.9,58.4z
			 M93.5,139.5C98.5,139,88.1,139.7,93.5,139.5z M72.6,49C69.4,51.4,73.8,51.5,72.6,49z M89.5,143.2C88.7,145.1,91.4,144,89.5,143.2
			z"/>
		<path class="st1" d="M896.7,325.5c0.4-33.5,25.5-66,61.8-66c15.7,0,19.3,8.6,31-6.1c3.2-4.1,8.7-24.3,14.7-20
			c15.7,11.6-23.1,74.3-33.7,81.8c-13.7,9.7-26.7,2.2-41.6,5.9c-8.4,2.1-26.8,26.2-27.3,26.2C898,347.2,896.6,326.2,896.7,325.5z
			 M998.1,255.2c-5.1,1.9-8,4.8-13.1,8.6c-7.8,5.8-11.1,7.4-21,11.5c-1.6-5.5,4.3-5.3,6.9-8.1c-7.1-4.3-19.8-2-27.6,0.3
			c-2.5,0.8-2.5,7.2-4.1,7.8c-0.9,0.3-7.2-1-5.4-2c-4.5,2.5-10.9,3.9-16,10.1c-2.4,2.9-6.1,6.1-8.8,8.8c-0.3,0.3,6.2,3.4,3.9,6.2
			c-2.7,3.4-3.9-3.9-6.4-2.7c-3.3,1.5-9.2,24.6-4.7,28.7c12.7-21.7,35.9-6.7,56.4-13.3c7.4-2.4,19.1-8.6,21-17.5
			c1-5-13.2-17.3,4.8-18.2c-1.1,3.8-2.8,7.4-5,10.8c2.8-2.9,4.1-0.7,6.2,0.6c-0.4-3,9.3-14.9,6-15.4c-2.5,1.2-4.8,2.5-7.2,3.9
			c-4.1-10,28.6-20.3,18.1-39C997.4,241.9,996,248.2,998.1,255.2z M901.6,337.1c-0.1,0.1,6.3-10.2,5.5-10.9
			C903.1,322.3,901.8,338.3,901.6,337.1z M918.4,317.1c-0.4-3.6-8.6,3.9-7.4,5.7C914.3,324.1,916.8,322.2,918.4,317.1z"/>
		<path class="st3" d="M89,73c0,3.6,1.9,30.5-3.4,28.5C87.3,99.3,87.4,68.2,89,73z"/>
		<path class="st3" d="M511.9,313.2c-4.4,1.6-8.8,2.2-13.3,0.3C503,310.4,507.4,310.1,511.9,313.2z"/>
		<path class="st1" d="M532.2,325.3C534.3,327.4,532.5,325.8,532.2,325.3z"/>
		<path class="st5" d="M601.9,387c0.3,2.1-3.8,2.4-4.3,0.6C598.5,385.6,600,385.4,601.9,387z"/>
		<path class="st4" d="M697.6,579.2c-1.2-0.6-0.4-0.9,0.1-1.3C697.7,578.3,697.6,578.7,697.6,579.2z"/>
		<path class="st4" d="M161.2,349.8c42.8-1.7,52.4,39.6,68.8,69.4c7.7,14,32.4,33.1,25.4,52.6c-4.5,12.6-1.4,6.4-15.3,7.1
			c-8.6,0.5-15.6-1.5-24.6,1.1c-18.8,5.4-27.5,16.3-47.8,5.3c-18.3-9.9-29.7-27.6-37.2-46.4c-7.2-18-11.9-38.4-7.3-57.7
			C126.9,366.5,143,345.1,161.2,349.8z M248,475c15.3-4.4-24.4-36.9-27.5-39.7c-16.6-14.9-21.4-44.9-42.9-54.5
			c-42.8-18.9-24.6,81.3,20.2,85.3c0.8-5.6-18-12.2-20.8-16.5c-4.9-7.5-0.8-9.4-3-14.2c-4.9-10.3-15.6-17.1-14-30.3
			c1.4-11.8,5.8-16.4,15.5-9.1c8.4,6.3,7.1,20.1,12.6,28.2c6.4,9.4,14,9.7,23.7,13.8c8.6,3.7,19.6,7.6,23.2,17.6
			c4.4,12.3-2.6,8.7-6.3,18.4c5.8,6.5,19-1.6,18.5-2.1C247.5,472.4,245.6,476.7,248,475z M177.2,470.4c-0.7-4.7-28.8-27.9-31.1-23.4
			C142.1,455,176.8,476.5,177.2,470.4z M175.9,361.1c-1.6-0.3,22.7,31,26.4,28.4C210.5,383.7,181.5,361.3,175.9,361.1z M204.9,392.1
			c-7.7,2.3,4.9,10,5,10.2C210,402.4,212.9,392.1,204.9,392.1z M245.3,475.8C244.5,474.9,244.8,476.7,245.3,475.8z"/>
		<path class="st4" d="M369.8,415.3c15.5-1.6,36.8,12.7,46.8,23.1c8.1,8.4,36.6,31.5,19.1,36.3c1.9,2.3,4.3,3.4,7.2,3.3
			c-8.8,5.6-15.2,10.1-22.5,17.6c-4,4.1-4.7,13-12,14.3c-9.7,1.8-25.5-27.7-33.5-32.9c-11.3-7.3-32.8-8-40.4-19.5
			c-4.3-6.5-1.2-23-3.7-31.2c-1.7-5.3-9.8-15.2-9.7-19.9c1-40.6,86.9-12.4,104.4-0.1c16.5,11.6,30.5,27,38,45.9
			c1.3,3.2,8.8,21.3,5.7,25.8c-0.4,0.6-24.2,0-24.9-0.7c20.7-19.4-6.3-26-22.8-40.8c-16.8-15-33.8-30.4-57.7-31
			c-21.4-0.6-40.2,12.4-15.8,27.4c4.6,2.8,66.7,29.4,61.2,35.6c10.2-11.4-44.2-33.1-47.4-35.6c-32.4-25.9,28.9-8,28.8-7.9
			C392.2,422,371.5,416,369.8,415.3z M372.4,396.3c-1.4,0-6.1-0.4-6,2.3c0,0.3,37.9,10.9,37.9,10.8
			C408.5,401.5,373,396.3,372.4,396.3z M373.7,462.2c-1.6-0.3-3,0.1-4.2,1.1c0.3-0.5,24.6,19.8,27,17.6
			C402.3,475.4,376.9,462.5,373.7,462.2z M413.3,412.1c-7.7,0.3,3.4,11.6,9.4,8.4C426.8,418.4,412.8,411.9,413.3,412.1z"/>
		<path class="st4" d="M281.5,472.3c-24.6-0.3-23-21-33.5-37.3c-9.8-15.2-17.1-27.3-25.1-43.4c-10-20.1-20.9-31.6-12.1-56
			c5.9-16.2,18.7-23.9,35.8-19c14.7,4.2,23.2,17.5,28.7,30.9c9,21.9,14.7,34.1,31.5,51.4c12,12.4,22.8,27.4,20.8,45.9
			c-0.9,8.3-2.8,14.7-10.1,19.1C312.4,467,287.1,473.1,281.5,472.3z M257.5,399.3c-5.5-6.7-22.1-29.7-10.5-39
			c6.3-5,16.9,33.3,20.5,38.6c8.3,12.1,30.1,19.5,34.1,33.8c6.3,22.2-12.4,0.2-16.6,6.3c-5.6,8,56.2,28.4,24.7-9.3
			c-6.9-8.3-17.6-12.2-24.4-21.1c-6.8-8.8-9.5-19.4-14.2-29.3c-5-10.5-17.5-44.9-33.1-37.6C222,349.3,244.7,405,257.5,399.3z
			 M257.5,436.3c-5.5,0,20.5,35.6,29.2,25.8C286.2,462.7,261.7,437.6,257.5,436.3z M249.5,327.6c-1.2,0.5-2.4,0.9-3.7,1.4
			c-0.2,0.8,21.3,28.3,21.7,28C274.2,352,256,328.5,249.5,327.6z M281.3,377.2c-0.5-1.3-6.8-15.6-10.9-13
			C263.4,368.7,282.1,383.8,281.3,377.2z"/>
		<path class="st4" d="M87,254.6c16.6-2.3,23.4,9.6,34.1,19.2c12.5,11.3,28.9,14.6,41.5,25.2c8.1,6.9,19.9,22.7,16,34.3
			c-4.4,13.2-17.6,8.1-30,11.7c-17.3,5-25.2,12.3-44.2,7.2c-16.6-4.4-31-14.4-41.5-28c-9.1-11.8-17.7-28.2-13.8-43.5
			C52.8,266.5,71.4,250.4,87,254.6z M137.6,338c16.9,0.6,42.3-9.3,18.4-24.4c-9.8-6.2-25.1-2.5-35.3-8.7
			c-10.3-6.3-12.7-18.1-20.3-26.7c-18.6-21.1-40.6-5.6-27.2,19.3c3,5.5,45,44.9,49.1,33.2c-0.3,0.9-37.6-21.2-41-28.8
			c-1.6-3.6-5.6-15.5-0.9-19.2c9.5-7.5,9.4,2.5,14.3,6.8c18,15.6,15.8,24.3,40.4,27.5c5.6,0.7,16.3-2.3,20.3,4.6
			C162.3,333.3,146.1,333.2,137.6,338z M92.1,259.3c-1.7-0.4-2.7,0.1-3.2,1.6c0.2-1.3,30.8,28,33.3,26
			C128.7,281.8,96.8,259.1,92.1,259.3z M118.4,350.9c2.5,0.7,4.5,0,5.9-2c0-0.4-33.8-12.5-34-12.2C86,343.4,116.2,350.4,118.4,350.9
			z M135.7,294.6c-0.1-2.4-8.5-7.2-10.7-6C120.1,291.4,136.2,300.6,135.7,294.6z"/>
		<path class="st4" d="M144.6,234.2c23.5,0,32.3,8.8,50,21.8c11.5,8.4,23.9,9.4,36.5,14.9c11.6,5.1,36.8,24.7,17.5,37.2
			c-5.9,3.8-14.8-0.4-21.3,1.5c-9.3,2.7-12.5,9.6-20,13.4c-17.8,8.8-17,2.5-26.4-10.4c-9.9-13.6-19.9-18.2-34.3-25.8
			C120.4,273.1,93.5,229.8,144.6,234.2z M137,258.3c-2.1,15.7,51.9,38.7,52.1,38.2c-1.9,3.3-53.1-46.8-22.2-32.9
			c3.4,1.5,9.1,10.4,12.4,12.6c5.2,3.4,16.7,7.1,22.6,9.1c1.7,0.6,31.1,6.1,27.9,12.6c-1.5,3-17.6-0.7-13.3,7.2
			c3.7,6.7,47.9-4.2,13.8-18.8c-8.5-3.7-18.2-0.7-26.8-4.5c-9.5-4.3-14.6-13.5-22-20.3C173.6,254,134.3,228.5,137,258.3z
			 M165.8,239.2c-8,0.6,18,19.2,19.9,16.3C188.7,251.2,169.1,240.3,165.8,239.2z M198.8,314.6c3,0.5,4.8-0.7,5.3-3.6
			c0-0.4-21.2-4.1-21.6-2.2C181.6,312.6,198.3,314.6,198.8,314.6z"/>
		<path class="st4" d="M471.6,414c-2.5-6.7,19.8,7.2,23,9.4c9.7,6.5,18.4,14.7,26.8,22.8c-28.4,1.6-28.4,46.1-48.3,17
			c-10.7-15.6-15.6-32.8-29.5-46.7c-15.8-15.8-33.3-19.9-51.3-31.3c-2.9-1.8-13.4-1.4-13.1-5.5c0.4-7.5,14.4-5,19.2-4.8
			c20.8,0.5,41.1,6.7,60.1,14.7c8.1,3.4,97.2,50.5,84.9,60c-4.7,3.6-40.1-24-44.8-27.2c-20-13.6-43.9-28.7-68.1-33.4
			c-37.8-7.4,14.9,18.4,23.1,23.3c4,2.4,43.1,34.4,41.6,35.5c6.3-4.9-33.7-35.6-34.5-36.2C463,410.1,472.7,414.4,471.6,414z
			 M441.7,388.4c-1.5-2.6-31.9-14.2-31.8-6.8C409.9,380.9,439.2,389.8,441.7,388.4z M459.6,432.2c1.3,1.5,17.1,20.4,19.5,18.3
			C483.2,446.6,460.7,426.5,459.6,432.2z"/>
		<path class="st4" d="M111,242.5c0.2,17.1-33.8-11.9-37.2-16.3c8.3,0,28.4,0.4,35.9,4.4c-2.5,1.2-5,2.4-7.6,3.5
			c11.9,5.8,29.9-3.5,9.7-12.4c-14-6.1-41.8-0.2-56.1,1c19.4-5.5,48.1-15,67.3-4.2c-1.9,0.1-3.5,0.8-4.8,2.2
			c0,1.5,11.2,5.3,12.1,2.8c1.1-2.9-5.4-2.5-6-4.7c2.8,0.1,16.5,4.4,15.9,9.9C140.4,227.5,113.6,239.8,111,242.5
			c0.3-5.7-8.5-1.9-11-0.1C103.7,243,107.4,243,111,242.5z"/>
		<path class="st4" d="M372.1,376.9c0.9,6.2-24.5,5.2-30.3,7c-5.2,1.6-29.6,19.2-30.9,12C308.9,384.4,370.8,361.3,372.1,376.9z"/>
		<path class="st4" d="M380.2,371.6c5.8-2.6,34.6-15,36.4-3.5C417.6,374.8,386.3,371.4,380.2,371.6z"/>
		<path class="st1" d="M570.5,468.3c6.6-0.2,4.8-10.5,11.5-10.4c6.2,0.1-8.5,14.6-8.1,14C572.7,470.7,571.6,469.5,570.5,468.3z"/>
		<path class="st3" d="M278.1,484.5c0.3,0-20.4-2-17.9-7C260.9,476.2,278.2,484.5,278.1,484.5z"/>
		<path class="st3" d="M261,471.2c6.4,2.9,12.5,6.3,20.3,6.6C276.2,480.3,264.9,476.7,261,471.2z"/>
		<path class="st5" d="M124.4,218.6c0.6,2.3,7,1.8,6,4.7c-0.8,2.3-12.1-1.1-12.1-2.8C118.3,218.7,123.3,218.4,124.4,218.6z"/>
		<path class="st3" d="M258.5,482.4c5.5,2.8,10.8,6,16.8,7.4C268.8,489.5,263,487.4,258.5,482.4z"/>
		<path class="st3" d="M204.9,336.3c-2.4,5.8-1.6,10.8-2,15.5C200.9,346.9,200.6,342,204.9,336.3z"/>
		<path class="st1" d="M471.6,390.7c0-0.4,2.6-11.5,5.6-4.4C478.2,388.9,473.1,391.5,471.6,390.7z"/>
		<path class="st4" d="M458.5,405.8c4,0.4,7.4,2.1,10.1,5.1C465.2,409.2,461.9,407.5,458.5,405.8z"/>
		<path class="st3" d="M335.4,467.6c-2.1,1.6-4.5,1.2-7-1.2C326.8,465.4,334.8,467.3,335.4,467.6z"/>
		<path class="st3" d="M199,341.4c0,3.5,0,5.9,0,8.4C196.1,347.4,198.4,344.9,199,341.4z"/>
		<path class="st3" d="M401.2,513.6c1.2,0.5,2.3,0.9,3.5,1.4C403.1,513,401.9,512.6,401.2,513.6z"/>
		<path class="st4" d="M378.7,373.3C376.8,374.1,378.2,372.4,378.7,373.3z"/>
		<path class="st1" d="M531.5,423.4c0.8,0.1,1.2,0.6,1.1,1.3C532.2,424.3,531.9,423.8,531.5,423.4z"/>
		<path class="st3" d="M173.2,495.4C174.3,496.2,173.5,495.8,173.2,495.4z"/>
		<path class="st1" d="M24.7,425.1c0,0.6-0.3-17.8,0.4-17.8C25.1,406.7,25.4,425,24.7,425.1z"/>
		<path class="st1" d="M58.2,462.3c-0.5-2.2-4.1-1.6-4.2-4.6C57.3,457.5,58.3,459.3,58.2,462.3z"/>
		<path class="st1" d="M57.4,421.2c0,0,0.4,12.8-0.5,12.8C56.9,434,56.5,421.2,57.4,421.2z"/>
		<path class="st2" d="M74.8,372.2C73.6,372.7,73.9,370.6,74.8,372.2z"/>
		<path class="st1" d="M1184.3,536.4c0,0-0.4-12.8,0.5-12.8C1184.8,523.6,1185.2,536.4,1184.3,536.4z"/>
		<path class="st4" d="M981,413.8c1-34.1,18.2-67.5,50.2-81.5c12.1-5.3,37.1-11.2,45.7,3.9c8.4,14.8-6.9,27.9-13.4,40
			c-8.1,15.2-13.9,32.3-14,49.8c-0.1,16.7,5.4,29.6-10.9,40c-11.9,7.6-30.5,6.8-42.1-1.4C980.6,453.5,982.1,431.5,981,413.8z
			 M1010.7,390.5c-0.5-3.8-1.5,10.4,0.4,10.9c-3-0.8,22.7-36.4,33.1-38.7c-0.6,20.6-27.2,35.2-23.7,58.7c0.9,5.9,10.4,15.9,9.9,21.5
			c-0.4,4.9-10,9.7-10,9.8c0.8,7.4,15.1,2.4,17.5-1.8c5-9.3-9-20.3-11.3-29c-5.2-19.7,38.9-55.6,22.3-69.2
			c-18.7-15.4-43.4,25-47.3,37.6c-2.9,9.5-10.9,76.8,11.6,65.6c-12.3-4.8-17.2-51-8.2-59c0,0.7-0.5,6.7,1.5,6.7
			C1008,403.5,1013.4,386.5,1010.7,390.5z M1047.2,333.7c-2,0.3-43.3,15.4-36.4,22.4c-0.6-0.6,41.8-21.8,42.1-19.8
			C1051.4,334.5,1049.5,333.6,1047.2,333.7z M1041.4,450c0,0.3-1,6.6,0.3,6.9c5.5,1.5,4.9-27.8-1.2-26.5
			C1036.7,431.3,1042.1,447.1,1041.4,450z"/>
		<path class="st4" d="M1053.5,426.3c-1.6-31.5,19.5-67,47.3-81.6c12.8-6.7,31-11.8,42.2,0.9c11.9,13.5,1.6,32.7-4,46.7
			c-6.9,17.2-5.8,22.9-5.6,41c0,5,0.2,21.4-4.5,25.1c-6.7,5.4,0.6-1.9-12.8,0.3C1086.6,463.5,1049.2,471.5,1053.5,426.3z
			 M1095.9,451c8.7,9.4,17.2,2.3,20.7-6.4c4.1-10-7-23.3-7.1-33.7c-0.2-15.1,29.6-46,15.2-57.3c-20.6-16.2-40.6,31-43.7,43
			c-3.1,12-6,29-6,41.1c0,0.6,1.2,27.5,9.4,18.9c-1.7,1.8-1.7-25.8-1.7-26.6c0.3-5.1-3.9-23.2,2.2-26.4c0-8.8-2,14.1,1.2,14
			c0,0,6.7-28.8,7.2-30.6c1.3,3.9-7.2,26.3-2.5,27.5c-6.4-1.7,26.1-65.5,34-51.3c2,3.6-18.9,38.5-19.7,46.5
			C1102.9,428.8,1114.6,441.1,1095.9,451z M1098,352.4c-9.8-2.1-25.6,26.5-21.5,28.1C1077.2,380.7,1096,354.7,1098,352.4z
			 M1124.7,444.7c0.3-1.2-0.9-16.3-4.8-16c0.8-0.1-2.3,26.3-1.4,27.1C1124.1,460.3,1124.7,444.7,1124.7,444.7z"/>
		<path class="st4" d="M1212.9,274.3c9.5-0.8,28.4,1.6,34.2,10.2c9.1,13.5-1.4,13.8-13.1,19.6c-24.2,12-42.4,46.9-70.4,44.8
			c-17.3-1.3-44.8-15-34.7-34.9C1142.9,286.6,1184.9,275,1212.9,274.3z M1165.5,303.9c1.3,0.9,1.7,2.3,1,4
			c6.4,5.7,28.8-21.2,42.7-12.3c-4,2.1-50.6,27.3-45.5,31.4c-1-0.9,49.6-27.8,53-31.2c24.3-24.3-32-7.1-42.5-5
			c9.2-11.5,27.8-11.5,41-13.8c-6.1-2.3-48.7,2.6-45.9,12.3c0.4,1.5,3.9,1.3,4.9,1.5c-4.5,3.5-49.3,33.9-33.5,42.5
			C1145.3,335.8,1154.5,308.7,1165.5,303.9z M1168.1,344.6c4.1,0.6,20.1-15.7,18.6-19c-1.4-3.1-22.4,16.7-22.2,17.5
			C1165.7,343.7,1166.9,344.2,1168.1,344.6z"/>
		<path class="st4" d="M1163.7,249.4c12.1-0.5,33,3.6,24.7,20.3c-3.9,7.9-32.7,14.7-41.3,20.7c-21.5,15-34.3,43.1-64.7,38.7
			c-38.7-5.6-23.8-31.3-1.2-48.1C1105.5,263.2,1134.5,253.4,1163.7,249.4z M1138.9,276.4c-0.3,0.2-13.1,8.7-12.4,10.2
			c2.3,5.2,78-34.7,24.8-25.7c-21.1,3.5-38.1,16.4-55.5,27.7c-5.3,3.5-16.8,7.8-19.5,13c-0.9,1.8-7.1,14.9,0.9,13.7
			c0.3,0,9.3-14.7,10.8-16.3c3.4-3.4,18.5-16.9,23.9-15.3c-0.4,1.8-8.2,6-6.6,8C1105.5,292.1,1136.4,277,1138.9,276.4z M1123,305.2
			c-13.6,3.5-23.5,13.8-35.8,19.7C1102.9,325.1,1111.2,312,1123,305.2z M1161.3,253c-3.1-0.2-44.2,6.2-41.1,12.3
			C1120.2,265.4,1159.8,253.6,1161.3,253z"/>
		<path class="st4" d="M931.8,495.4c-12.4,26.6-82.4,27.1-66.4,1.9c8.3-13.1,34.2-15.6,47.8-15.5c7.2,0,15.7,0.3,22.4,2.4
			c4.2,1.4-0.9,8-0.7,8.2c-1.3-11.4-53.3-3.1-56.6,6.7c-7.3,21.5,37,2.8,35.8-0.8c-1.8-5.4-23.2,11.7-25.2,5.5
			c-0.6-1.7,23-10.5,25.9-11C926.6,491,922.9,492.4,931.8,495.4L931.8,495.4z M885.1,490.7c-3.7-0.5-21.6,8.4-15.6,12.4
			C868.8,502.6,883.9,491.6,885.1,490.7z M888.6,513.9c7.1,0.4,13-2.9,20-6C900.2,506.6,895,512.1,888.6,513.9z"/>
		<path class="st4" d="M846.5,500.3c-23.1,5.3-20.6-15.8-5.6-23.7c16.5-8.6,42.3-13.2,60.5-12.2c22.7,1.2,29.7,8.5,5.6,14.2
			c-10.7,2.5-21,3-31.1,8.2C865.9,491.9,858.8,501.8,846.5,500.3z M869.3,479.6c-5.1-0.8-9.1,3.5-14.2,2.5
			c7.9-4.3,32.8-16,42.4-10.5c-0.5,0.4-14.1,3.8-13.9,5.3c0.2,1.2,27.4-0.1,26.7-6.5c-0.9-7.8-34.6,0.6-38.3,1.6
			c-6.8,1.9-30.9,7.5-30.1,15.9C843.3,501.8,866.4,483.9,869.3,479.6z M843.1,480.7c0.1-4.2-14.2,4.8-10.9,7.4
			C833.5,489,842.5,481.7,843.1,480.7z"/>
		<path class="st1" d="M871.8,464.9c0.9-2-3.9-12.1-5.2-11c0.8-0.7-11,14.2-8.4,2c-10.1,2.3-2.6,4-12-0.8
			c-2.2-1.2-12.2-10.4-12.6-13.7c0.9,8.6,29.6-18.5,31.1-17.2c5.4,4.6-20.1,19.1-16.8,24.7c7.6,12.7,28-14,32.1-7.9
			c1.4,2.2-9.7,9.4-10.2,11.1C870.6,449.7,903.5,455.7,871.8,464.9z M878.5,456.8c-0.1-1.8-3.4-4.1-3.7-0.3
			C874.5,460.4,878.2,458.6,878.5,456.8z"/>
		<path class="st5" d="M789.5,502c10.2,2.4-24.7,26.4-23.2,27.2c-4.7-2.6,12-17.1,11.7-19.8c-0.4,0.3,1.4-1.3,1-0.9
			C780.6,509,787.1,503.2,789.5,502z"/>
		<path class="st4" d="M961.1,468.6c-2.3,0.2-27.2-5.3-25,2.7c1.2,4.3,12.6,2.3,16.1,3.9c-2.5-0.1-25.6,5.8-23.7-4.1
			C930.3,461.1,955.6,466.2,961.1,468.6z"/>
		<path class="st1" d="M755,528.4c0,0.4,1.3-8.4-1.5-8.7c4.5,0.4-18.6,6.5-9.5-0.3c12-9,6.8-1.2,18.1-0.9
			C760.3,522.2,757.9,525.5,755,528.4z"/>
		<path class="st1" d="M742.2,547.4c-0.2-1.4-6.4-4.6-7.6-7.4c-1-2.2,5.2-3.7,0-12.3C743.7,528.7,749.8,540.8,742.2,547.4z"/>
		<path class="st1" d="M975.7,429.8c-5.7,10-18.8-2.6,0-6.8C975.8,425.3,975.9,428.4,975.7,429.8z"/>
		<path class="st3" d="M1017,479.2c2.3,1,15.1,13.1,7.1,15.4C1022.3,495.1,1017.5,480.4,1017,479.2z"/>
		<path class="st5" d="M1211,230.6c3,1.7,6.6-0.2,10.7,1.7c-8.1,1.2-16.2,2.3-24.3,3.5C1198.4,233.7,1208.8,230.7,1211,230.6z"/>
		<path class="st1" d="M781.2,497.7c-1.1-8.8,5.5-9.5,11-6.2C788.6,493.6,784.9,495.7,781.2,497.7z"/>
		<path class="st3" d="M825.1,514.9c1-4.9,1.8-8.9,2.7-12.9C830.9,505.9,830.2,511.3,825.1,514.9z"/>
		<path class="st1" d="M739.6,553.8c-2.5,1.7-5,3.2-7.5,4.7C726.8,557.5,744,543.9,739.6,553.8z"/>
		<path class="st3" d="M1048.7,468.9c0.7-4.7,3-8.1,6.7-10.2C1060,460.8,1049,468.8,1048.7,468.9z"/>
		<path class="st1" d="M772.6,506.6c-2.7-0.2-8.4-8.7-6.8-8.7C769.7,498,774.9,502.8,772.6,506.6z"/>
		<path class="st1" d="M730.8,577.8c-0.9-3.4,0.3-5.4,3.8-6C734.8,575.1,731.1,582,730.8,577.8z"/>
		<path class="st3" d="M1025.7,481.3c3.5,1,6.2,7.4,4.8,6.8C1028.1,486.4,1026.5,484.1,1025.7,481.3z"/>
		<path class="st3" d="M1017,486.9c1.3,3.6,3.9,6.8,2.8,10.7C1018.8,494.2,1017.2,490.7,1017,486.9z"/>
		<path class="st1" d="M861.5,466.1c1.4-2,2.8-4.5,5-0.7C865,466.9,863.2,466.2,861.5,466.1z"/>
		<path class="st4" d="M778,509.4c0.2,2.2-0.8,3.2-3,3C775.1,510.5,776.1,509.5,778,509.4z"/>
		<path class="st1" d="M912.7,460.3c2.2-2.1,3.6-0.3,5.1,1C916.1,461,914.2,461.9,912.7,460.3z"/>
		<path class="st3" d="M1274.5,308.6C1272,309.5,1272.4,309.1,1274.5,308.6z"/>
		<path class="st4" d="M787.6,503c-0.2,1-0.8,1.5-1.9,1.3C785.9,503.3,786.4,502.7,787.6,503z"/>
		<path class="st3" d="M1025.1,480.4C1024.8,481.7,1024.3,479.1,1025.1,480.4z"/>
		<path class="st4" d="M934.8,492.4c-0.5,0.8-1,1.5-2.1,1C933.4,493.9,934.1,493.6,934.8,492.4L934.8,492.4z"/>
		<path class="st4" d="M932.8,493.4C932.8,493.5,930.4,498.9,932.8,493.4z"/>
		<path class="st3" d="M1274.5,321.6C1273.3,322.9,1274.5,321.7,1274.5,321.6z"/>
		<path class="st4" d="M779.1,508.5c0.1,0.8-0.3,1.2-1.1,1C777.9,508.6,778.2,508.2,779.1,508.5z"/>
		<path class="st4" d="M780.3,507.6c-0.1,0.8-0.4,1.2-1.3,0.9C779.1,507.6,779.7,507.6,780.3,507.6z"/>
		<path class="st4" d="M733.9,578.7c0.3-0.3,0.7-0.5,1-0.8C735.1,578.8,734.5,578.8,733.9,578.7z"/>
		<path class="st5" d="M241.7,493.4c2.8,0.5,39,19.6,32.3,25.5C273.7,519.1,228.8,495.1,241.7,493.4z"/>
		<path class="st5" d="M285.6,533.1c-0.5,6.8-11.8-5.3-8.4-8C281,522.1,285.7,531,285.6,533.1z"/>
		<path class="st5" d="M478.4,504.4c5,0.8,34,18.1,28.8,22.4c-1.4,1.2-33.3-20.5-33.1-21.4C475.3,504.3,476.7,504,478.4,504.4z"/>
		<path class="st5" d="M588.5,517.4c1.8,6.3-32.4-34.5-29.9-37.3C565.2,472.7,587.8,514.8,588.5,517.4z"/>
		<path class="st5" d="M598.2,533.2c-0.8,9.2-12.6-4-8.5-7.9C592.8,522.3,597.9,532.2,598.2,533.2z"/>
		<path class="st5" d="M1023.4,526.4c-7.2,0.2,13.2-36.7,18.5-30.2C1042.3,496.8,1026.2,525.7,1023.4,526.4z"/>
		<path class="st5" d="M1091.7,542.6c0-0.5,2.4-10.8,5.4-5.7c1.2,2-1.4,9.9-4.5,9.2C1091.6,545.1,1091.3,544,1091.7,542.6z"/>
		<path class="st5" d="M350.9,499.7c0.2,5.7-27.2-16.1-27.5-19.1C322.4,470.7,349.2,496.9,350.9,499.7z"/>
		<path class="st5" d="M1229.6,540.7c2.4-3.4,5.7-4.6,9.8-3.7c-3,3.2-6.3,6.2-9.9,8.7C1229.5,544.1,1229.5,542.4,1229.6,540.7z"/>
		<path class="st3" d="M1217,524.5c-0.1-0.4-2.5-10.7,2.3-8.6C1221.5,516.8,1217.4,524.3,1217,524.5z"/>
		<path class="st3" d="M1272.5,460.9c-0.5,0-9.6,0.7-7.9-2.7C1265.8,455.7,1271.3,461.6,1272.5,460.9z"/>
		<path class="st4" d="M1233.9,566.1C1230.5,568.2,1234.7,563.1,1233.9,566.1z"/>
		<path class="st3" d="M1280.5,435.7C1277.8,436.3,1279.9,433.6,1280.5,435.7z"/>
		<path class="st4" d="M62.2,516.4c5.4,6.4,5.6,14.3,6.6,23.2c-4.4-5-25.6-16.8-27.3-21.1c-3-7.9,4.5-15.7,12.6-8.5
			c-2.4,0.4-4.8,0.7-7.1,1.1C51.7,514.5,57.3,514.4,62.2,516.4z"/>
		<path class="st4" d="M1.9,503.2c9.6-5.7,28.7-2.2,39.6-1.2C27.2,515.8,20.4,505,1.9,503.2z"/>
		<path class="st5" d="M62.2,516.4c-4.9-1.9-10.5-1.9-15.2-5.4C52,510.3,60.3,509.1,62.2,516.4z"/>
		<path class="st3" d="M81.7,546.7c6,1.2,2.6,8.8,0.3,7.2C80.3,551.8,80.3,549.3,81.7,546.7L81.7,546.7z"/>
		<path class="st4" d="M45.3,549.8c-4.6-2.1-9.3-4.3-13.9-6.4C36.9,543.6,41.5,545.7,45.3,549.8z"/>
		<path class="st3" d="M81.8,546.6C81.4,546.8,78.3,544.6,81.8,546.6z"/>
		<path class="st3" d="M72.6,499.8c-0.1,0.3-0.3,0.6-0.4,0.9c-0.3-0.6-0.3-1.1,0-1.7C72.3,499.2,72.4,499.5,72.6,499.8z"/>
		<path class="st4" d="M32.5,546.6C30.8,546.5,32.3,546.6,32.5,546.6z"/>
		<path class="st5" d="M959.5,487.3c-2,2-26.4,30.8-26.9,30.6C928.1,515.8,948.1,482.6,959.5,487.3z"/>
		<path class="st5" d="M843.1,516.4c-2.7,2-25.6,24.9-27.8,23.9C812.9,539.2,835.2,515,843.1,516.4z"/>
		<path class="st2" d="M820.7,563.6c1.2-3.9,2.8-6.3,6-9C826.6,558,824,561.8,820.7,563.6z"/>
		<path class="st2" d="M779.4,537.9C778.3,539,778.6,538.2,779.4,537.9z"/>
		<path class="st5" d="M38.3,532.3c-2.6,0.1-25.4-4.2-26.3-5.6C11.3,525.7,34.2,525.2,38.3,532.3z"/>
		<path class="st4" d="M1036.8,547c-0.4-2,0.5-2.7,1.2-3.6C1038.5,544.8,1038.5,546,1036.8,547z"/>
		<path class="st4" d="M935,555.6c-0.2,0.4-0.4,0.8-0.7,1.3C934.3,556.4,934.5,554.7,935,555.6z"/>
		<path class="st4" d="M589.1,549.8C586.6,541.9,589,549.8,589.1,549.8z"/>
		<path class="st4" d="M588.2,546.8c-0.1-0.2-0.3-0.5-0.4-0.7C587.8,546.8,588,547,588.2,546.8z"/>
		<path class="st4" d="M487.8,534.6c-2.1-1.3-4.3-2.6-6.4-3.9C483.2,530.5,489.3,532.2,487.8,534.6z"/>
		<path class="st4" d="M476.6,526.6c1.7,0.1,3.1,0.7,4.3,3.4C478.7,528.7,476.5,529.2,476.6,526.6
			C476.7,526.5,476.6,526.6,476.6,526.6z"/>
		<path class="st4" d="M481.8,524.4c-1.4-0.4-2.8-0.9-4.2-1.3C479.5,522.3,480.5,523.9,481.8,524.4z"/>
		<path class="st4" d="M491.1,535.2C494.6,538.2,487.9,534.4,491.1,535.2z"/>
		<path class="st4" d="M473.6,525.6c1.4,1.5,2.5,1.8,3.1,0.9C475.4,525.1,474.3,524.8,473.6,525.6z"/>
		<path class="st4" d="M473.7,525.6C472.4,525.2,472.9,525.1,473.7,525.6z"/>
		<path class="st5" d="M24.4,269.3c4.3-1.4,7.5-0.6,9.6,2.5c-0.1,0.9-23.7,2.9-24,0.6C9.4,268.3,23,269.4,24.4,269.3z"/>
		<path class="st5" d="M72.4,237.8c-1.4,3.6-15-4.7-14.6-6.3C58.9,226.4,71.2,235.9,72.4,237.8z"/>
		<path class="st2" d="M850.1,572.8c0.9-4.5,4.3-6.3,8.6-8.4C857.3,569.6,852.6,570.1,850.1,572.8z"/>
		<g>
			<path class="st1" d="M797.8,457.8c-3,0.4-9.3,8.3-8.1,11.6c0.8,2.4,9.1-2.2,11.5,0.1c2.6,2.5-3.1,8.6,1.9,8.8
				c0.8,0.3,7.9-5.5,7.9-6.3C811.1,470.5,800.1,457.5,797.8,457.8z"/>
			<path class="st1" d="M810.4,443.6c-3,1.9,8.8,16.1,9.5,16.6C833.7,455.1,813,442,810.4,443.6z"/>
			<path class="st1" d="M839.4,423.3c-4.5,1.3,9.2,16.8,10.9,8.5C850.3,429.1,842,422.5,839.4,423.3z"/>
			<path class="st1" d="M828.3,457.5c0.9-0.1,8.1,6.5,6.3-1.1C838.4,447.6,824.9,457.9,828.3,457.5z"/>
			<path class="st1" d="M853.6,395.1c-7.2,1.5,3.9,12.3,5.7,6.9C858,399.3,856.1,397,853.6,395.1z"/>
			<path class="st1" d="M888.7,427.6c-0.3,7.9,6.9-2.5,6.9-2.6C895,421,888.8,425.4,888.7,427.6z"/>
		</g>
		<path class="st4" d="M351.4,530c0.8,3.3,1.7,6.6,2.5,9.9C352.5,536.7,349.6,534,351.4,530z"/>
		<path class="st4" d="M339.6,519.5C339.5,520,339.5,519.9,339.6,519.5z"/>
		<path class="st2" d="M430.3,565.9C426.2,563.7,432,564.2,430.3,565.9z"/>
		<path class="st2" d="M431.1,567.1C429.4,564.4,432.6,565.6,431.1,567.1z"/>
		<path class="st2" d="M423.3,567.8C422.2,566.7,423.1,567.2,423.3,567.8z"/>
		<path class="st4" d="M780.5,533.2c-0.4-2.6,0.8-3,1.9-3.7C783.5,531.6,781.8,532,780.5,533.2z"/>
		<path class="st4" d="M784.4,527.8C785.1,528.6,782.4,528.8,784.4,527.8z"/>
		<path class="st4" d="M772.1,537.7C772.6,534.7,772.8,537.7,772.1,537.7z"/>
		<path class="st4" d="M1239.4,262.4c0.1-1.7,1-2.6,2.7-2.7C1241.8,261.5,1240.2,261.5,1239.4,262.4z"/>
		<path class="st3" d="M1125.4,575.5C1126.8,574.3,1126.6,576.6,1125.4,575.5z"/>
		<path class="st3" d="M1126.1,576.2C1125.3,577.6,1124.4,574.5,1126.1,576.2z"/>
		<path class="st4" d="M730.8,577.8C730.9,579.2,724.2,577.6,730.8,577.8z"/>
		<path class="st3" d="M1241.5,88.5c1-4.7,1.3-9.4,0.8-14.1c3.9,0.4,3.3,17.3,0.6,17.3C1241.5,91.1,1241.1,90,1241.5,88.5z"/>
		<path class="st5" d="M105.9,107.5c-0.3-4.6-3.2-7-7.5-8.7c5.7-0.3,11,4.3,10.9,10.2C108.2,108.4,107.1,107.9,105.9,107.5
			C105.9,107.5,105.9,107.5,105.9,107.5z"/>
		<path class="st2" d="M247.1,473.9c0.2-2.3-11.9,7.6-18.4,0.2c2.7-7.2,9.5-5.7,8.1-15.2c-1.3-9.1-14-16.5-21.3-19.8
			c-9.2-4.1-18.4-3.6-25.6-11.8c-7.6-8.6-5-24-14.4-31.1c-24.2-18.3-8.8,27.4-4.9,35.4c3.3,6.7,0.9,9.1,4.3,14.3
			c2.7,4.1,23.4,16.5,22.9,20.4c-20.9-1.9-40.3-30.6-44.8-48.6c-5.5-21.7,1.9-51.6,28.3-34c10.7,7.1,15.2,17.5,21.1,28.3
			c6.7,12.2,11.7,17,21.9,26.2c6.3,5.7,17.8,14.2,22,21.7C247.5,461.6,252.3,479.9,247.1,473.9z"/>
		<path class="st5" d="M177.2,470.4c-0.4,6-35.1-15.4-31.1-23.4C148.4,442.5,176.5,465.7,177.2,470.4z"/>
		<path class="st5" d="M175.9,361.1c7.2,0.3,33.6,23.4,26.4,28.4C198.6,392.1,174.4,360.8,175.9,361.1z"/>
		<path class="st5" d="M204.9,392.1c7.5,0,5.1,10.2,5,10.2C209.6,401.7,196.9,394.5,204.9,392.1z"/>
		<path class="st2" d="M248,475C246.6,476,245.9,472.6,248,475z"/>
		<path class="st2" d="M245.3,475.8C244.8,476.7,244.5,474.9,245.3,475.8z"/>
		<path class="st5" d="M372.4,396.3c2.7,0.3,36.1,5.3,32,13.1c-0.1,0.1-37.9-10.5-37.9-10.8C366.3,395.9,371,396.3,372.4,396.3z"/>
		<path class="st5" d="M373.7,462.2c3.2,0.3,28.6,13.3,22.8,18.7c-1.3,1.3-27.5-16.8-27-17.6C370.7,462.2,372.1,461.9,373.7,462.2z"
			/>
		<path class="st5" d="M413.3,412.1c-0.5-0.2,13.5,6.3,9.4,8.4C416.6,423.7,405.6,412.4,413.3,412.1z"/>
		<path class="st2" d="M257.5,399.3c-12.8,5.7-35.4-50-19.4-57.5c15.6-7.3,28.1,27.1,33.1,37.6c4.7,9.8,7.4,20.5,14.2,29.3
			c6.8,8.8,17.5,12.8,24.4,21.1c31.5,37.7-30.3,17.3-24.7,9.3c4.2-6,19.1,16.6,17.8-4.3c-0.8-12.8-28.3-25.7-35.3-35.8
			c-4.6-6.7-12.2-41.4-19-40C232.9,362.4,254.4,395.5,257.5,399.3z M304.9,449.2c-3.7-1.4,5.3,1.9,8.4-1.1
			C310.5,448.4,307.9,450.3,304.9,449.2z"/>
		<path class="st5" d="M257.5,436.3c4.2,1.2,28.7,26.3,29.2,25.8C278,472,252,436.4,257.5,436.3z"/>
		<path class="st5" d="M249.5,327.6c5.9,0.8,24.7,24.3,18,29.4c-1.1,0.8-21.6-28.1-21.7-28C247.1,328.6,248.3,328.1,249.5,327.6z"/>
		<path class="st5" d="M281.3,377.2c0.9,7-16.7-9.2-10.9-13C274.5,361.6,280.8,375.9,281.3,377.2z"/>
		<path class="st2" d="M137.6,338c8.5-4.8,24.7-4.8,17.8-16.6c-4.1-6.9-14.8-3.7-20.3-4.6c-12-1.9-9.5,2.9-21.3-4.3
			c-9.7-5.9-11.8-16.8-19.1-23.2c-4.9-4.3-4.7-14.1-14.3-6.8c-4.9,3.8-0.9,15.2,0.9,19.2c3.4,7.6,40.7,29.8,41,28.8
			c-3.8,10.7-43.6-24.8-46.7-29.4c-16.1-24,3.1-47.6,24.7-23.1c6.7,7.6,9.1,18.3,17.4,24.5c9.8,7.5,22.7,5.2,33.6,9.9
			C178.8,324.5,160,338.8,137.6,338z"/>
		<path class="st5" d="M92.1,259.3c6-0.2,36,22.9,30.1,27.6c-2.5,2-33.1-27.3-33.3-26C89.3,259.4,90.4,258.9,92.1,259.3z"/>
		<path class="st5" d="M118.4,350.9c-3.2-0.7-32.3-7.8-28.1-14.2c0.2-0.3,34.1,11.7,34,12.2C122.9,350.9,120.9,351.6,118.4,350.9z"
			/>
		<path class="st5" d="M135.8,294.6c0.4,6-15.6-3.3-10.7-6C127.2,287.4,135.6,292.2,135.8,294.6z"/>
		<path class="st2" d="M137,258.3c-2.4-26.7,32.3-8.1,41.1-0.3c8.6,7.6,14.7,18.9,25.5,23.7c8.7,3.9,18.3,0.9,26.8,4.5
			c29.2,12.6-3.7,28-12.9,19.1c-7.1-6.8,11.3-5.2,12.4-7.5c3.6-7.4-21.1-9.5-24.3-10.6c-6.1-2.1-21.2-8-26.2-11
			c-4.9-3-8.1-10.5-12.4-12.6c-30.3-14.6,20.2,36.3,22.2,32.9C188.6,297.5,135,273.4,137,258.3z"/>
		<path class="st5" d="M165.8,239.2c1.9,0.6,22.9,11.9,19.9,16.3C182.7,260.1,160.4,239.6,165.8,239.2z"/>
		<path class="st5" d="M198.8,314.6c-0.5,0-17.2-2.1-16.3-5.8c0.4-1.9,21.6,1.9,21.6,2.2C203.5,314,201.8,315.2,198.8,314.6z"/>
		<path class="st5" d="M441.7,388.4c-1.3,0.7-31.8-6.4-31.8-6.8C409.8,374.8,439.1,384,441.7,388.4z"/>
		<path class="st5" d="M459.6,432.2c1.1-5.6,23.6,14.4,19.5,18.3C477,452.4,461.6,434.5,459.6,432.2z"/>
		<path class="st2" d="M471.6,414C472.5,414.3,472.5,414.8,471.6,414z"/>
		<path class="st5" d="M111,242.5c-3.7,0.5-7.3,0.5-11-0.1C105.7,238.3,109,241.7,111,242.5z"/>
		<path class="st2" d="M1010.7,390.5c2.7-4-2.7,13-4.1,13.1c-2.1,0.1-1.5-6-1.5-6.7c-8.7,7.7-4.8,54,8.2,59
			c-21.5,10.7-15-52.8-12.8-61.5c3.2-13,28.5-58.4,48.6-41.8c16.4,13.5-25.2,47.4-23.1,65.1c1,8.3,15.7,22.3,13.5,30.5
			c-1.6,5.8-17.9,12.9-18.9,4.5c0-0.1,9.5-4.9,10-9.8c0.6-6.5-8.8-14.6-9.9-21.5c-3.5-23.3,23-38.4,23.7-58.7
			c-11.3,2.5-17.3,9.2-23.2,18.8c-1.6,2.5-7.9,20.5-9.9,19.9C1009.2,400.9,1010.2,386.7,1010.7,390.5z"/>
		<path class="st5" d="M1047.2,333.7c2.2-0.1,4.1,0.8,5.7,2.5c-0.2-2-42.7,19.2-42.1,19.8C1003.9,349.2,1045.3,334,1047.2,333.7z"/>
		<path class="st5" d="M1041.4,450c0.7-2.9-4.7-18.7-0.9-19.6c6.1-1.3,6.7,28,1.2,26.5C1040.4,456.6,1041.4,450.3,1041.4,450z"/>
		<path class="st2" d="M1095.9,451c19-10,7-21.4,9-41.2c1-10,22.4-41.5,19.7-46.5c-8-14.5-40,49.8-34,51.3
			c-4.7-1.2,3.9-23.7,2.5-27.5c-0.6,2.3-6.2,30.6-7.2,30.6c-3.2,0.1-1.2-22.8-1.2-14c-6,3.2-1.9,21.3-2.2,26.4
			c0,0.8-0.1,28.4,1.7,26.6c-8.2,8.6-9.4-18.3-9.4-18.9c0-12.2,2.9-29.1,6-41.1c3.1-12,23.1-59.2,43.7-43
			c14.4,11.3-15.4,42.2-15.2,57.3c0.1,10.4,11.2,23.7,7.1,33.7C1113,453.2,1104.5,460.4,1095.9,451z"/>
		<path class="st5" d="M1098,352.4c-3,3.2-20.5,28.4-21.5,28.1C1071.8,378.7,1088.9,350.4,1098,352.4z"/>
		<path class="st5" d="M1124.7,444.7c0,0-0.6,15.6-6.1,11.1c-0.9-0.7,2.1-27.1,1.4-27.1C1123.8,428.3,1125,443.4,1124.7,444.7z"/>
		<path class="st2" d="M1165.5,303.9c-9.8,4.3-11.7,12.8-18,20c-0.1,0.1-3.7,20.9-8.3,8.1c-5.4-15,24.2-35,35.1-41.2
			c11.9-6.8,64.8-17.3,42.5,5c-3.4,3.4-54,30.4-53,31.2c-5.1-4.2,41.5-29.3,45.5-31.4c-14.2-9.1-36,18.3-42.7,12.3
			C1165.9,307.3,1168,301.6,1165.5,303.9z"/>
		<path class="st5" d="M1168.1,344.6c-1.2-0.5-2.4-1-3.6-1.4c-0.2-0.8,20.8-20.7,22.2-17.5C1188.2,328.9,1172.2,345.3,1168.1,344.6z
			"/>
		<path class="st2" d="M1138.9,276.4c-2.4,0.6-33.6,15.4-33.5,15.4c-1.6-2,6.2-6.2,6.6-8c-5.6-1.7-21.2,12.5-23.9,15.3
			c-1.7,1.7-11.2,16.3-10.8,16.3c-5.3,0.8-4.1-8.9-3.1-11.6c2-5.4,17.7-12.5,21.7-15.2c17.3-11.4,34.5-24,55.5-27.7
			c53.2-9.6-22.3,31.3-24.8,25.7c-1-2.3,14.8-10.2,16.3-11.9C1141.2,274.8,1139.7,275,1138.9,276.4z M1114.7,281.4
			C1111.9,281.5,1114.8,281.4,1114.7,281.4z"/>
		<path class="st5" d="M1123,305.2c-11.8,6.8-20.1,19.9-35.8,19.7C1099.5,319,1109.4,308.7,1123,305.2z"/>
		<path class="st5" d="M1161.3,253c-1.5,0.7-41.1,12.4-41.1,12.3C1116.7,258.3,1158.2,252.8,1161.3,253z"/>
		<path class="st2" d="M932.9,493.5c-1,0.3-1.6,0.9-1,2c-9-3.1-5.2-4.5-17.2-2.7c-2.9,0.4-26.5,9.2-25.9,11
			c2.1,6.2,23.5-10.9,25.2-5.5c1.3,3.9-48.1,22.8-33.9-0.3C886.3,488,937,481.2,932.9,493.5z"/>
		<path class="st5" d="M885.1,490.7c-1.2,0.9-16.3,11.9-15.6,12.4C862.8,498.6,882.6,490.3,885.1,490.7z"/>
		<path class="st5" d="M888.6,513.9c6.4-1.7,11.6-7.3,20-6C901.6,511,895.7,514.3,888.6,513.9z"/>
		<path class="st2" d="M869.3,479.6c-2.4,3.6-23.5,21.4-27.4,10.7c-3.6-9.8,24.5-16.7,30.3-18.4c7.5-2.1,30-9.2,36-3.1
			c8.3,8.6-24.4,8-24.4,8c-0.2-1.5,13.4-4.9,13.9-5.3c-9.7-5.5-34.5,6.2-42.4,10.5C860.2,483.1,864.2,478.8,869.3,479.6z"/>
		<path class="st5" d="M878.5,456.8c-0.3,1.7-4,3.7-3.7-0.3C875.1,452.7,878.4,455,878.5,456.8z"/>
		<path class="st1" d="M964,275.4c3.5,9.9,5.1,19.8,4,30.1c-2.5,0-20.9-15.5-21.5-20c-7.5,4.7,0.4,9.8-3,12.6c0,0-12,1.4-12.1,1.4
			c-14.6-4-13.5-22.1-1.1-17c1.1,0.5-9.8,9.5,1.2,9.8c7.6,0.2,13.6-18.1,20.7-16c6.4,1.9-4.4,9.8,3.3,12.9
			C964.5,292.9,955.7,276.8,964,275.4z"/>
		<path class="st4" d="M304.9,449.2c3,1.1,5.6-0.8,8.4-1.1C310.9,450.3,307.6,450.4,304.9,449.2z"/>
		<path class="st4" d="M304.9,449.1C302.3,448.9,302.6,448.7,304.9,449.1z"/>
		<path class="st4" d="M1165.5,303.9C1167.1,302.4,1167.7,306.3,1165.5,303.9z"/>
		<path class="st4" d="M1138.9,276.4c0.9-1.4,2.3-1.7,3.8-1.7C1139.2,274.7,1137.9,275.2,1138.9,276.4z"/>
		<path class="st4" d="M1114.7,281.3C1114.9,281.8,1111.1,285.6,1114.7,281.3z"/>
		<path class="st4" d="M1114.7,281.4C1116.4,279.7,1114.7,282.1,1114.7,281.4z"/>
	</g>
</g>
</svg>
